<svg xmlns="http://www.w3.org/2000/svg" width="283.18" height="136.913" viewBox="0 0 283.18 136.913"><g transform="translate(-1010.658 -1557.471)"><path d="M8.84-6.936a5.893,5.893,0,0,1,.068-1.02H7.786a9.293,9.293,0,0,1,.051,1.02H3.315A8.937,8.937,0,0,1,1.8-7.021V-5.95a9.439,9.439,0,0,1,1.513-.085H13.8a9.185,9.185,0,0,1,1.513.085V-7.021a8.916,8.916,0,0,1-1.53.085ZM5.338-5.78A4.48,4.48,0,0,1,4.148-4.3,7.316,7.316,0,0,1,1.9-2.924a3.055,3.055,0,0,1,.748.8,9.346,9.346,0,0,0,2.5-1.853A6.807,6.807,0,0,0,7.089-2.6a3.382,3.382,0,0,1,.578-.782A4.9,4.9,0,0,1,5.7-4.59c.187-.255.306-.408.561-.8Zm6.018.034a5.344,5.344,0,0,1-2.3,2.652,3.068,3.068,0,0,1,.714.646A8.359,8.359,0,0,0,11.424-4.1a9.551,9.551,0,0,0,3.247,1.87,2.844,2.844,0,0,1,.561-.85,7.776,7.776,0,0,1-3.332-1.7c.136-.221.2-.323.374-.629ZM8.891-1.054h5.372a13.134,13.134,0,0,1,1.751.1V-2.091a11.918,11.918,0,0,1-1.717.1H8.891v-.7a5.79,5.79,0,0,1,.085-1.122H7.786a6.237,6.237,0,0,1,.085,1.122v.7H2.7a11.663,11.663,0,0,1-1.7-.1V-.952a13.134,13.134,0,0,1,1.751-.1H7.871v.935a9.965,9.965,0,0,1-.119,1.6H9.01A10.178,10.178,0,0,1,8.891-.136Zm-.731-10.8a13.167,13.167,0,0,1,.068-1.632,11.508,11.508,0,0,1-1.632.068H2.907a10.789,10.789,0,0,1-1.683-.1v1.122a8.555,8.555,0,0,1,1.615-.1H7.174v3.383c0,.391-.136.493-.646.493a8.945,8.945,0,0,1-1.564-.17,3.279,3.279,0,0,1,.2.918c.459.051,1.054.085,1.394.085,1.224,0,1.6-.306,1.6-1.309ZM5.185-11A13.724,13.724,0,0,0,2.7-12.308l-.561.7a11.16,11.16,0,0,1,2.465,1.377Zm10.421-.833a13.481,13.481,0,0,1,.068-1.649,10.937,10.937,0,0,1-1.6.068H10.421a11.5,11.5,0,0,1-1.7-.1v1.122a8.661,8.661,0,0,1,1.615-.1H14.6v3.451c0,.374-.119.476-.612.476a10.377,10.377,0,0,1-1.751-.187,4.661,4.661,0,0,1,.221.935c.833.068,1.122.085,1.649.085,1.173,0,1.5-.289,1.5-1.292Zm-3.2.935A10.029,10.029,0,0,0,10.1-12.172l-.527.663a9.415,9.415,0,0,1,2.312,1.326Zm-5.967.289a20.294,20.294,0,0,1-5.1,1.8l.374,1.02c.34-.153.561-.238.714-.306A33.258,33.258,0,0,0,6.494-9.758Zm7.429-.136A18.416,18.416,0,0,1,8.959-9.061l.408.969c.238-.1.34-.136.68-.255,1.819-.646,2.6-.969,3.876-1.53Zm6.7.6v2.108H19.5a7.892,7.892,0,0,1-1.139-.068v1.02a8.455,8.455,0,0,1,1.156-.068h1.037c-.017,1.02-.034,1.479-.119,2.329a21.676,21.676,0,0,1-2.465.442l.238,1.139A9.273,9.273,0,0,1,19.465-3.6c.408-.1.68-.17.85-.2A6.3,6.3,0,0,1,18.224.255a2.927,2.927,0,0,1,.85.8A8.6,8.6,0,0,0,21.335-4.1c1.139-.306,1.513-.442,2.737-.867v-.952c-1.207.408-1.632.544-2.618.816.051-.782.085-1.275.1-2.057h.986a7.8,7.8,0,0,1,1.122.068v-1.02a8.137,8.137,0,0,1-1.156.068h-.935v-2.108h1.02a9.509,9.509,0,0,1,1.309.068v-1.071a8.2,8.2,0,0,1-1.36.085h-.306a19.924,19.924,0,0,0,1.207-2.822l-.969-.374a16.276,16.276,0,0,1-1.207,3.2h-1.8a6.939,6.939,0,0,1-1.411-.1v1.122a6.96,6.96,0,0,1,1.394-.1ZM26.962-6.12a13.5,13.5,0,0,1-3.434,2.244l.442,1.122c.2-.136.238-.17.68-.442a23.688,23.688,0,0,0,2.312-1.785V-.493c0,.272-.153.391-.527.391a9.35,9.35,0,0,1-1.87-.238A3.838,3.838,0,0,1,24.871.782,12.123,12.123,0,0,0,26.622.9c.969,0,1.326-.323,1.326-1.241V-11.866a11.12,11.12,0,0,1,.068-1.428,10.076,10.076,0,0,1-1.19.051H25.194a6.484,6.484,0,0,1-1.292-.085v1.122a6.094,6.094,0,0,1,1.19-.085h1.87Zm4.556,0A12.832,12.832,0,0,1,28.39-3.978l.476,1.088c.374-.289.374-.289.663-.493A18,18,0,0,0,31.518-5V-.527c0,.323-.136.425-.544.425a8.666,8.666,0,0,1-1.8-.255A3.937,3.937,0,0,1,29.478.782,12.567,12.567,0,0,0,31.212.9c.952,0,1.326-.34,1.326-1.241V-11.866a10.952,10.952,0,0,1,.068-1.428,11.387,11.387,0,0,1-1.224.051H29.75a6.589,6.589,0,0,1-1.292-.085v1.122a6.173,6.173,0,0,1,1.207-.085h1.853Zm-12.9-7.735a11.578,11.578,0,0,1,1.156,2.55l.918-.374a15.237,15.237,0,0,0-1.19-2.55Zm5.61,3.315A13.454,13.454,0,0,1,25.6-7.259l.85-.442a17.893,17.893,0,0,0-1.36-3.247Zm4.471.017a13.34,13.34,0,0,1,1.377,3.3l.85-.442a17.4,17.4,0,0,0-1.377-3.281ZM39.27-13.345a5.687,5.687,0,0,1,.289,1.071A34.63,34.63,0,0,0,40.8-7.514a10.586,10.586,0,0,0-2.227,1.377,3.677,3.677,0,0,0-1.513,2.89A2.822,2.822,0,0,0,39.168-.459,11.565,11.565,0,0,0,42.942,0,34.1,34.1,0,0,0,46.7-.221a8.811,8.811,0,0,1,1.258-.1l-.136-1.411a16.879,16.879,0,0,1-4.862.578c-3.332,0-4.641-.6-4.641-2.142,0-1.411,1.258-2.533,4.165-3.689A39.1,39.1,0,0,1,47.6-8.636l-.51-1.292A9.193,9.193,0,0,1,46-9.486c-2.635.918-3.111,1.105-4.114,1.513A29.568,29.568,0,0,1,40.613-13.6Zm14.042,1.292a9.2,9.2,0,0,1,.051,1c.085,4.182.323,6.358.918,7.973.578,1.632,1.462,2.584,2.414,2.584,1.207,0,1.989-1.139,2.822-4.114a5.434,5.434,0,0,1-1-.969,12.231,12.231,0,0,1-.884,2.907c-.255.561-.544.85-.85.85-.646,0-1.343-1.173-1.717-2.907a29.112,29.112,0,0,1-.442-5.287,12.322,12.322,0,0,1,.119-2.023Zm8.6,1.445A15.014,15.014,0,0,1,65.45-2.227l1.207-.493a16.278,16.278,0,0,0-1.275-4.539,14.756,14.756,0,0,0-2.431-3.876Zm11.05-1.836a24.219,24.219,0,0,0,6.341,1.156l.238-1.139a20.789,20.789,0,0,1-6.154-1.054ZM71.5-8.058c.442-.051.8-.085,1.615-.136a32.608,32.608,0,0,0,5.066-.544C76.959-7.565,76.092-6.715,75.6-6.222c-1.377,1.36-2.788,2.72-4.012,3.859A12.248,12.248,0,0,1,69.751-.8L70.7.255c.595-.68,1.717-1.836,2.55-2.6,1.411-1.309,2.244-1.785,3.128-1.785a.83.83,0,0,1,.782.408A2.941,2.941,0,0,1,77.35-2.55a4.3,4.3,0,0,0,.374,1.87c.357.663,1.105.969,2.38.969A13.518,13.518,0,0,0,82.433.068c1.207-.187,1.207-.187,1.377-.2l-.187-1.309a9.167,9.167,0,0,1-3.434.629c-.782,0-1.173-.136-1.411-.459-.187-.272-.238-.527-.306-1.6-.068-.969-.187-1.36-.527-1.7a1.577,1.577,0,0,0-1.156-.442,3.607,3.607,0,0,0-1.7.561,37.721,37.721,0,0,0,3.366-3.06,15.657,15.657,0,0,1,1.513-1.411L79.22-9.86a3.233,3.233,0,0,1-.816.187,57.965,57.965,0,0,1-5.967.408c-.374,0-.595,0-1.02-.034Zm16.541-5.185a7.035,7.035,0,0,1-.187,1.071,28.706,28.706,0,0,0-.884,6.987,27.2,27.2,0,0,0,.476,5.049c.068.408.085.476.1.629L88.757.357a1.744,1.744,0,0,1-.034-.34,14.722,14.722,0,0,1,1.462-4.811l-.833-.391a3.489,3.489,0,0,1-.136.34,15.336,15.336,0,0,0-1,2.975h-.068l-.017-.816c-.051-.765-.068-1.768-.068-2.38a24.3,24.3,0,0,1,1.309-7.973Zm7.922,3.587c-.7.034-1.156.051-1.819.051a11.851,11.851,0,0,1-3.06-.272l-.034,1.19h.068a.781.781,0,0,1,.17.017,2.951,2.951,0,0,1,.306.017,4.422,4.422,0,0,1,.527.034c.578.034,1.207.051,1.921.051.7,0,1.207-.017,1.938-.051.051,2.567.119,4.1.17,4.437A5.1,5.1,0,0,0,94.265-4.5c-1.9,0-3.23,1-3.23,2.448,0,1.462,1.241,2.38,3.213,2.38A2.914,2.914,0,0,0,97.1-1.105a3.019,3.019,0,0,0,.2-1.173,2.279,2.279,0,0,0-.034-.425,1.007,1.007,0,0,1,.1.068l.1.068a1.008,1.008,0,0,0,.1.068A8.847,8.847,0,0,1,99.994-.731l.544-1.207a2.252,2.252,0,0,1-.425-.272,13.129,13.129,0,0,0-2.856-1.683c-.119-2.04-.17-3.332-.17-4.811.8-.1,1.411-.187,1.785-.272.629-.119.986-.2,1.088-.221.017,0,.068-.017.1-.017l-.051-1.122a13.857,13.857,0,0,1-2.941.595v-.833a21.2,21.2,0,0,1,.1-2.669H95.9a3.412,3.412,0,0,1,.051.7v1.938Zm.2,6.511a3.139,3.139,0,0,1,.034.493,1.889,1.889,0,0,1-.323,1.343A2.375,2.375,0,0,1,94.146-.7c-1.19,0-1.989-.544-1.989-1.36,0-.884.85-1.428,2.193-1.428A4.655,4.655,0,0,1,96.169-3.145Zm1.581-10.9a13.724,13.724,0,0,1,1.275,2.8l.9-.323a12.719,12.719,0,0,0-1.292-2.754Zm2.006-.51a13.955,13.955,0,0,1,1.292,2.754l.867-.34a12.926,12.926,0,0,0-1.292-2.737ZM106-11.016a3.992,3.992,0,0,1,.561.051,33.254,33.254,0,0,0,3.74.221,13.437,13.437,0,0,0,2.567-.221c-.17.1-.2.1-.323.17-.2.1-.238.119-.425.221a26.34,26.34,0,0,0-2.261,1.411l.867.7A24.212,24.212,0,0,1,115-11.05l-.085-1.122a18.591,18.591,0,0,1-4.3.357,19.436,19.436,0,0,1-4.522-.408Zm1.02,4.352a4.467,4.467,0,0,0-1.955,3.281A2.708,2.708,0,0,0,107-.816a11.993,11.993,0,0,0,3.91.527A27.731,27.731,0,0,0,115.5-.68a4.755,4.755,0,0,1,.578-.085l-.153-1.394a16.127,16.127,0,0,1-5.1.646,10.825,10.825,0,0,1-3.111-.34c-.952-.323-1.445-.884-1.445-1.666,0-.8.51-1.581,1.615-2.5ZM120.87-2.108a3.6,3.6,0,0,1,.442-.544c.289-.323.527-.6.714-.8.578-.646.578-.646.833-.935a1.888,1.888,0,0,0,.306-.408h.034c-.051.765-.051.765-.051,2.754a14.536,14.536,0,0,1-.119,2.805h1.326a26.358,26.358,0,0,1-.051-2.822V-5.729a27.566,27.566,0,0,1,3.281-2.89,4.839,4.839,0,0,1,2.567-1.156.862.862,0,0,1,.935.918,12.743,12.743,0,0,1-.425,2.55,16.514,16.514,0,0,0-.646,3.961,2.116,2.116,0,0,0,.8,1.938,2.1,2.1,0,0,0,1.19.357,2.927,2.927,0,0,0,2.346-1.224A8.39,8.39,0,0,0,135.4-2.958a5.6,5.6,0,0,1-.782-1.156,7,7,0,0,1-.969,1.955,2.05,2.05,0,0,1-1.445.935c-.663,0-1.02-.425-1.02-1.207a18.7,18.7,0,0,1,.731-4.029,11.355,11.355,0,0,0,.391-2.482,1.848,1.848,0,0,0-1.989-1.989c-1.02,0-2.295.629-3.842,1.87a12.135,12.135,0,0,0-2.159,1.989l-.034-.017c0-.1.017-.136.017-.272a.868.868,0,0,0,.017-.153c.017-.8.017-.8.034-1.139a2.9,2.9,0,0,0,.017-.425,5.858,5.858,0,0,1,.867-1.054l-.442-.527a1.11,1.11,0,0,1-.34.085,19.788,19.788,0,0,1,.2-3.026l-1.343-.017a6.92,6.92,0,0,1,.051.85c0,.221-.017.986-.068,2.278-1.428.085-2.176.136-2.227.136a3.44,3.44,0,0,1-.527-.034l.068,1.173a17.323,17.323,0,0,1,2.669-.238c-.051,1.5-.085,2.567-.1,3.247a26.1,26.1,0,0,1-2.992,2.873Zm24.259-1.071c-.034-.425-.051-.731-.051-1.037,0-.068,0-.068.017-.782l.136-6.052c.017-.714.051-1.224.1-1.87H143.65c.068.646.085,1.156.1,1.87L143.9-5v.612c0,.561,0,.68-.034,1.207Zm.2,3.179V-1.6h-1.649V0ZM4.471,22.608v1.9h-1.7a8.861,8.861,0,0,1-1.479-.085v1.1a9.113,9.113,0,0,1,1.479-.085h1.7v2.4a21.578,21.578,0,0,1-3.57.391l.272,1.207a11.543,11.543,0,0,1,1.309-.272c2.278-.357,3.774-.646,6.29-1.241l-.017-.935c-1.581.374-2.244.51-3.315.7V25.447H7.157a8.986,8.986,0,0,1,1.479.085v-1.1a8.986,8.986,0,0,1-1.479.085H5.44v-1.9h1.5a11.078,11.078,0,0,1,1.513.068c-.034-.357-.051-.782-.051-1.581V17.236c0-.714.017-1.19.051-1.564a11.365,11.365,0,0,1-1.53.068H3.111a15.489,15.489,0,0,1-1.581-.068A12.81,12.81,0,0,1,1.6,17.236v3.825a13.568,13.568,0,0,1-.068,1.615,11.951,11.951,0,0,1,1.564-.068Zm0-5.95v2.023H2.533V16.658Zm.969,0H7.463v2.023H5.44Zm-.969,2.907v2.159H2.533V19.565Zm.969,0H7.463v2.159H5.44Zm9.673-3.893a7.448,7.448,0,0,1-1.275.068H10.676a9.06,9.06,0,0,1-1.513-.085v1.122a9.015,9.015,0,0,1,1.462-.085h3.6a14.01,14.01,0,0,1-2.091,2.176,21.207,21.207,0,0,0-1.8-1.309l-.663.714a15.1,15.1,0,0,1,3.315,2.686h-2.72a8.4,8.4,0,0,1-1.462-.085v1.139a8.764,8.764,0,0,1,1.462-.085h1.411v6.715c0,.323-.119.391-.663.391a12.079,12.079,0,0,1-1.938-.221,3.861,3.861,0,0,1,.255,1.139,15.421,15.421,0,0,0,1.581.085c1.411,0,1.819-.272,1.819-1.258V21.928h2.414a9.528,9.528,0,0,1-1.955,2.431,3.453,3.453,0,0,1,.85.595,16.524,16.524,0,0,0,2.4-3.366l-.561-.7a7.448,7.448,0,0,1-1.275.068H13.175l.629-.646c-.459-.408-.612-.544-.952-.85a15.784,15.784,0,0,0,2.057-2.125,10.943,10.943,0,0,1,.816-.969Zm7.259.731H19.839a13.077,13.077,0,0,1-1.887-.1v1.122a14.206,14.206,0,0,1,1.887-.085h2.533v.374a7.012,7.012,0,0,1-.068,1.054h1.173a6.723,6.723,0,0,1-.068-1.054v-.374h4.029v.136a7.161,7.161,0,0,1-.068,1.054h1.173a6.724,6.724,0,0,1-.068-1.054v-.136h2.72a14.489,14.489,0,0,1,1.9.085V16.3a13.346,13.346,0,0,1-1.9.1h-2.72v-.442a5.689,5.689,0,0,1,.085-1.071H27.353a8.451,8.451,0,0,1,.085,1.071V16.4H23.409v-.442a5.918,5.918,0,0,1,.085-1.071H22.27a5.992,5.992,0,0,1,.1,1.071Zm1.972,8.959a14.577,14.577,0,0,1-6.528,3.281,3.047,3.047,0,0,1,.731.986,16.712,16.712,0,0,0,3.808-1.683,11.78,11.78,0,0,0,2.652-2.074c-.017.255-.051.782-.068,1.581V28.49a10.925,10.925,0,0,1-.119,1.785h1.258a9.166,9.166,0,0,1-.119-1.785V27.453c0-.391-.017-.731-.034-.986-.017-.425-.017-.425-.034-.612a13.7,13.7,0,0,0,2.6,2.074,17.284,17.284,0,0,0,4.046,1.751,4.493,4.493,0,0,1,.7-1.02,14.459,14.459,0,0,1-6.7-3.3h4.386a15.207,15.207,0,0,1,1.921.1V24.342a12.506,12.506,0,0,1-1.921.1H25.959a4.945,4.945,0,0,1,.085-1.088h-1.19a5.333,5.333,0,0,1,.085,1.088H20.06a12.141,12.141,0,0,1-1.887-.1v1.122a14.717,14.717,0,0,1,1.87-.1Zm-2.057-2.023A11.247,11.247,0,0,0,20.6,20.908l-.918.442a8.472,8.472,0,0,1,1.7,2.482Zm1.768-2.38a7.842,7.842,0,0,1,1.224,2.159l.918-.442a12.591,12.591,0,0,0-1.258-2.091Zm6.1-.867a11.62,11.62,0,0,1-2.142,3.4l.867.459a21.645,21.645,0,0,0,2.312-3.383Zm.816-1.768a21.2,21.2,0,0,1-5.083.952,67.523,67.523,0,0,1-6.919.255,2.908,2.908,0,0,1,.493.969,65.283,65.283,0,0,0,7.021-.374,38.483,38.483,0,0,0,5.253-.867Zm8.3-2.669a5.687,5.687,0,0,1,.289,1.071,34.63,34.63,0,0,0,1.241,4.76,10.586,10.586,0,0,0-2.227,1.377,3.677,3.677,0,0,0-1.513,2.89,2.822,2.822,0,0,0,2.108,2.788A11.565,11.565,0,0,0,42.942,29a34.1,34.1,0,0,0,3.757-.221,8.811,8.811,0,0,1,1.258-.1l-.136-1.411a16.879,16.879,0,0,1-4.862.578c-3.332,0-4.641-.595-4.641-2.142,0-1.411,1.258-2.533,4.165-3.689A39.1,39.1,0,0,1,47.6,20.364l-.51-1.292A9.193,9.193,0,0,1,46,19.514c-2.635.918-3.111,1.1-4.114,1.513A29.568,29.568,0,0,1,40.613,15.4Zm19.924,5.933,2.431-.816V25.09a11.07,11.07,0,0,1-.1,1.649h1.258a11.144,11.144,0,0,1-.1-1.632V20.415l2.822-.969a34.265,34.265,0,0,1-.272,4.3c-.085.493-.17.578-.561.578a6.08,6.08,0,0,1-1.309-.153,3.958,3.958,0,0,1,.255,1.071c.391.034.6.051.748.051a2.324,2.324,0,0,0,1.224-.238c.442-.255.663-.969.782-2.482.136-1.666.2-2.856.272-4.556a12.284,12.284,0,0,1-1.343.527l-2.618.867V16.624a11.311,11.311,0,0,1,.1-1.6H61.523a10.729,10.729,0,0,1,.1,1.581v3.145l-2.431.816v-2.38a12.073,12.073,0,0,1,.1-1.683H58.021a12.344,12.344,0,0,1,.1,1.734v2.669l-.612.2a6.551,6.551,0,0,1-1.479.34l.306,1.156a9.372,9.372,0,0,1,1.411-.544l.374-.119v6.239c0,1.326.7,1.581,4.216,1.581,4.42,0,4.726-.2,4.93-3.349a3.118,3.118,0,0,1-1.088-.442,4.955,4.955,0,0,1-.357,2.3c-.272.391-.986.493-3.383.493a12.358,12.358,0,0,1-2.737-.153c-.408-.1-.51-.238-.51-.646Zm-5.2-2.091h-.629a6.273,6.273,0,0,1-1.428-.1v1.156a6.453,6.453,0,0,1,1.428-.1h.629v5.814a9.575,9.575,0,0,1-2.278.765L52,28.2c.187-.085.442-.2.68-.289a32.816,32.816,0,0,0,4.386-2.074l-.1-1.037c-.884.493-1.19.646-1.921.986V20.449h.459a10.6,10.6,0,0,1,1.377.068V19.412a6.425,6.425,0,0,1-1.36.085h-.476V16.964a14.194,14.194,0,0,1,.1-1.9H53.89a13.915,13.915,0,0,1,.1,1.887Zm20.264,5.729a4.371,4.371,0,0,1,.6.017,1.847,1.847,0,0,1,.221.017,2.428,2.428,0,0,1,.561.051V24.24a7.81,7.81,0,0,1-1.377.085H72.828a12.545,12.545,0,0,0,.136-1.479h1.224l.8.034a2.409,2.409,0,0,1,.391.017,1.27,1.27,0,0,0,.187.034V21.877a7.046,7.046,0,0,1-1.36.085H73c.017-.544.017-.68.068-1.156H72a6.618,6.618,0,0,1,.068,1.156H70.856a6.939,6.939,0,0,1-1.36-.085v1.054a7.928,7.928,0,0,1,1.377-.085h1.156c-.017.578-.068,1.054-.119,1.479H70.38A7.694,7.694,0,0,1,69,24.24v1.071a8.261,8.261,0,0,1,1.394-.085H71.74a5.11,5.11,0,0,1-.969,2.176A6.035,6.035,0,0,1,68.6,29.221a2.684,2.684,0,0,1,.7.833,6.792,6.792,0,0,0,3.179-4.1,7.812,7.812,0,0,0,2.023,2.431,3.027,3.027,0,0,1,.595-.918,6.248,6.248,0,0,1-2.108-2.244ZM77.979,16.2a12.214,12.214,0,0,1-1.6-.068,9.508,9.508,0,0,1,.068,1.309V23.7a12.329,12.329,0,0,1-.068,1.547,8.8,8.8,0,0,1,1.258-.051h5.2a17.26,17.26,0,0,1-.238,2.737c-.17.918-.374,1.173-.952,1.173a10.48,10.48,0,0,1-1.887-.238A2.437,2.437,0,0,1,80,29.9a14.91,14.91,0,0,0,1.683.136,1.548,1.548,0,0,0,1.479-.6,8.681,8.681,0,0,0,.68-3.6c.068-1.19.068-1.292.085-1.411a.377.377,0,0,0,.017-.153,12.919,12.919,0,0,1-1.377.051H77.418V23.152h5.355a9.463,9.463,0,0,1,1.394.068v-1a7.928,7.928,0,0,1-1.377.085H77.418V21.146H81.5c.493,0,.969.017,1.394.034-.034-.391-.051-.782-.051-1.445V17.508c0-.629.017-1,.051-1.377a12.482,12.482,0,0,1-1.632.068H79.543c.2-.391.34-.663.6-1.224l-1.088-.238a6.181,6.181,0,0,1-.544,1.462Zm-.561,2.074V17.032h4.437v1.241Zm0,.782h4.437V20.33H77.418Zm-2.38-4.063a14.586,14.586,0,0,1-6.154,1.5,2.744,2.744,0,0,1,.493.935A20.341,20.341,0,0,0,75.7,15.791Zm-3.723,5.627a14.351,14.351,0,0,0-1.122-2.754l-.833.272a11.877,11.877,0,0,1,1.088,2.822ZM75.973,25.8a8.59,8.59,0,0,1-1.258,3.519l.867.51a10.542,10.542,0,0,0,1.241-3.74Zm1.377.272a14.646,14.646,0,0,1,.221,2.805c0,.1-.017.272-.017.476l.9-.221a19.015,19.015,0,0,0-.289-3.179Zm1.581-.068a10.948,10.948,0,0,1,.544,2.6l.816-.238a12.649,12.649,0,0,0-.6-2.533Zm1.6-.1a9.631,9.631,0,0,1,.731,2.074l.748-.306a12.065,12.065,0,0,0-.782-2.006Zm-7.191-5.967a14.691,14.691,0,0,0-.8-2.567l-.867.255a13.108,13.108,0,0,1,.816,2.618ZM75.106,16.9a14.123,14.123,0,0,1-1.411,3.825l.782.391a17.216,17.216,0,0,0,1.53-3.774Zm22.27-1.241a13.03,13.03,0,0,1,1.751,2.7l.85-.51a12.906,12.906,0,0,0-1.751-2.635ZM86.428,20.891a22.13,22.13,0,0,1,3.417-.612,25.087,25.087,0,0,1-3.638,8.466l1.156.68a33.018,33.018,0,0,0,3.672-9.248,9.761,9.761,0,0,1,1.224-.085c1.581,0,2.091.578,2.091,2.38a13.16,13.16,0,0,1-.714,4.726q-.332.816-.969.816a6.355,6.355,0,0,1-2.533-.782,3.137,3.137,0,0,1,.051.663,3.8,3.8,0,0,1-.034.612,6.4,6.4,0,0,0,2.567.663,1.776,1.776,0,0,0,1.666-.8c.7-.986,1.139-3.247,1.139-5.848a3.431,3.431,0,0,0-.833-2.737,3.249,3.249,0,0,0-2.448-.714,9.907,9.907,0,0,0-1,.051c.136-.731.289-1.513.357-1.938a10.451,10.451,0,0,1,.323-1.632l-1.36-.153v.221a21,21,0,0,1-.51,3.6,34.873,34.873,0,0,1-3.757.442Zm12.886-6.137a12.313,12.313,0,0,1,1.734,2.669l.85-.493a13.654,13.654,0,0,0-1.751-2.635ZM96.458,18.63a14.356,14.356,0,0,1,3.468,6.1l1.088-.612A15.567,15.567,0,0,0,97.461,18.1Zm-90.2,35.6a4.37,4.37,0,0,1,.595.017,1.848,1.848,0,0,1,.221.017,2.428,2.428,0,0,1,.561.051V53.24a7.81,7.81,0,0,1-1.377.085H4.828a12.545,12.545,0,0,0,.136-1.479H6.188l.8.034a2.409,2.409,0,0,1,.391.017,1.269,1.269,0,0,0,.187.034V50.877a7.046,7.046,0,0,1-1.36.085H5c.017-.544.017-.68.068-1.156H3.995a6.617,6.617,0,0,1,.068,1.156H2.856a6.94,6.94,0,0,1-1.36-.085v1.054a7.928,7.928,0,0,1,1.377-.085H4.029c-.017.578-.068,1.054-.119,1.479H2.38A7.694,7.694,0,0,1,1,53.24v1.071A8.261,8.261,0,0,1,2.4,54.226H3.74A5.11,5.11,0,0,1,2.771,56.4,6.034,6.034,0,0,1,.6,58.221a2.684,2.684,0,0,1,.7.833,6.793,6.793,0,0,0,3.179-4.1,7.812,7.812,0,0,0,2.023,2.431,3.027,3.027,0,0,1,.595-.918,6.248,6.248,0,0,1-2.108-2.244ZM9.979,45.2a12.214,12.214,0,0,1-1.6-.068,9.508,9.508,0,0,1,.068,1.309V52.7a12.329,12.329,0,0,1-.068,1.547,8.8,8.8,0,0,1,1.258-.051h5.2a17.26,17.26,0,0,1-.238,2.737c-.17.918-.374,1.173-.952,1.173a10.48,10.48,0,0,1-1.887-.238A2.437,2.437,0,0,1,12,58.9a14.911,14.911,0,0,0,1.683.136,1.548,1.548,0,0,0,1.479-.595,8.681,8.681,0,0,0,.68-3.6c.068-1.19.068-1.292.085-1.411a.377.377,0,0,0,.017-.153,12.92,12.92,0,0,1-1.377.051H9.418V52.152h5.355a9.463,9.463,0,0,1,1.394.068v-1a7.928,7.928,0,0,1-1.377.085H9.418V50.146H13.5c.493,0,.969.017,1.394.034-.034-.391-.051-.782-.051-1.445V46.508c0-.629.017-1,.051-1.377a12.482,12.482,0,0,1-1.632.068H11.543c.2-.391.34-.663.595-1.224l-1.088-.238a6.181,6.181,0,0,1-.544,1.462Zm-.561,2.074V46.032h4.437v1.241Zm0,.782h4.437V49.33H9.418Zm-2.38-4.063a14.586,14.586,0,0,1-6.154,1.5,2.744,2.744,0,0,1,.493.935A20.341,20.341,0,0,0,7.7,44.791ZM3.315,49.619a14.351,14.351,0,0,0-1.122-2.754l-.833.272a11.877,11.877,0,0,1,1.088,2.822ZM7.973,54.8a8.59,8.59,0,0,1-1.258,3.519l.867.51a10.542,10.542,0,0,0,1.241-3.74Zm1.377.272a14.646,14.646,0,0,1,.221,2.805c0,.1-.017.272-.017.476l.9-.221a19.014,19.014,0,0,0-.289-3.179Zm1.581-.068a10.948,10.948,0,0,1,.544,2.6l.816-.238a12.649,12.649,0,0,0-.595-2.533Zm1.6-.1a9.632,9.632,0,0,1,.731,2.074l.748-.306a12.065,12.065,0,0,0-.782-2.006ZM5.338,48.939a14.69,14.69,0,0,0-.8-2.567l-.867.255a13.109,13.109,0,0,1,.816,2.618ZM7.106,45.9A14.122,14.122,0,0,1,5.7,49.721l.782.391a17.216,17.216,0,0,0,1.53-3.774ZM24.82,49.789H20.672v-3.2a8.727,8.727,0,0,1,.068-1.258H19.465a12.05,12.05,0,0,1,.085,1.309V50.01c0,.289-.017.544-.034.867.357-.017.748-.034,1.054-.034h4.25v6.222H19.975V53.92a8.544,8.544,0,0,1,.085-1.445H18.768a9.439,9.439,0,0,1,.085,1.513v3.74a8.936,8.936,0,0,1-.1,1.428h1.224v-1.02h11.05v1.02h1.224a8.5,8.5,0,0,1-.1-1.428V53.886a9.439,9.439,0,0,1,.085-1.513H30.94a9.015,9.015,0,0,1,.085,1.462v3.23H25.959V50.843h4.573c.323,0,.714.017,1.054.034-.017-.289-.034-.527-.034-.867V46.627a8.385,8.385,0,0,1,.085-1.292H30.362a9.253,9.253,0,0,1,.068,1.241v3.213H25.959v-4.3a7.713,7.713,0,0,1,.119-1.547H24.7a6.875,6.875,0,0,1,.119,1.547Zm20.213.578h3.23a16.091,16.091,0,0,1,1.9.1V49.211a14.917,14.917,0,0,1-1.9.1h-3.23V46a14.68,14.68,0,0,1,.119-2.074H43.775a15.775,15.775,0,0,1,.119,2.091v3.3h-2.6a13.967,13.967,0,0,1-1.836-.1v1.258a14.716,14.716,0,0,1,1.836-.1h2.6v6.545a15.658,15.658,0,0,1-.119,2.159h1.377a15.5,15.5,0,0,1-.119-2.159ZM35.87,44.893A13.989,13.989,0,0,1,39,47.256l.7-.918A20.764,20.764,0,0,0,36.6,44.094Zm-1.1,4.131A15.851,15.851,0,0,1,38.2,51.081l.646-.986a24.766,24.766,0,0,0-3.451-1.938Zm3.6,3.842a21.452,21.452,0,0,1-2.125,3.859,5.385,5.385,0,0,1-1.088,1.241l.986.952a5.392,5.392,0,0,1,.374-.544,30.774,30.774,0,0,0,2.737-4.794Zm14.246-4.777a56.594,56.594,0,0,1,5.865-.561,34.792,34.792,0,0,0,3.74-.374,11.128,11.128,0,0,0-1.615.9,6.468,6.468,0,0,0-3.179,5.219,4.116,4.116,0,0,0,1.887,3.468,8.575,8.575,0,0,0,3.672,1.309c.306.051.34.068.527.1l.221-1.377h-.17a8.713,8.713,0,0,1-2.55-.544,3.333,3.333,0,0,1-2.38-3.145,5.2,5.2,0,0,1,2.091-3.927,8.361,8.361,0,0,1,3.264-1.7,7.13,7.13,0,0,1,1.9-.238l-.1-1.258a11.482,11.482,0,0,1-2.023.187l-.969.034c-.561.017-.782.034-2.873.153l-2.669.17c-2.091.119-2.193.136-3.145.2-.527.034-.731.051-.969.051-.119,0-.289,0-.612-.017Zm10.438,1.632a11.955,11.955,0,0,1,1.734,2.7l.867-.51A12.906,12.906,0,0,0,63.9,49.279Zm1.938-.918a13.453,13.453,0,0,1,1.734,2.669l.85-.476a13.776,13.776,0,0,0-1.751-2.652Zm5.576.2a3.755,3.755,0,0,1,.663-.051,50.056,50.056,0,0,0,6.052-.442c.1.17.1.2.289.561a20.73,20.73,0,0,0,2.04,3.332,8.489,8.489,0,0,0-3.519-.612,7.226,7.226,0,0,0-3.3.629,3.177,3.177,0,0,0-1.921,2.771,2.742,2.742,0,0,0,.765,1.87c.782.816,2.346,1.275,4.42,1.275a14.093,14.093,0,0,0,5-.918l-.187-1.309A11.208,11.208,0,0,1,76.041,57.2a5.758,5.758,0,0,1-3.315-.782,1.7,1.7,0,0,1-.646-1.326A1.931,1.931,0,0,1,73,53.512a6.026,6.026,0,0,1,3.23-.714,9.212,9.212,0,0,1,2.975.442,3.4,3.4,0,0,1,1.173.7l1.139-.646a31.482,31.482,0,0,1-3.06-4.947c.17-.034.17-.034.578-.119,1.071-.2,1.275-.255,2.3-.527.51-.136.646-.17,1-.238l-.17-1.207a19.9,19.9,0,0,1-4.114,1.071,13.986,13.986,0,0,1-.612-1.5,5.419,5.419,0,0,1-.493-1.53l-1.343.187c.153.306.255.544.442.986.306.765.578,1.445.833,2.023a39.68,39.68,0,0,1-5.066.357,7.453,7.453,0,0,1-1.309-.085Zm19.839-3.332a18.933,18.933,0,0,0,2.6,1.071,26.221,26.221,0,0,0,3.315.969l.476-1.19a20.5,20.5,0,0,1-5.763-1.887ZM89,47.511a5.719,5.719,0,0,1-.119.9c-.238,1.428-.544,3.4-.714,4.692-.068.544-.085.7-.136,1l1.326.034a2.956,2.956,0,0,1,.68-.7,8.236,8.236,0,0,1,4.76-1.479c2.074,0,3.3.816,3.3,2.21,0,1.734-1.785,2.856-4.59,2.856a12.074,12.074,0,0,1-4.335-.85,3.932,3.932,0,0,1,.119,1.054,2.68,2.68,0,0,1-.017.323c1.037.255,1.037.255,1.36.34A14.124,14.124,0,0,0,93.6,58.2a7.056,7.056,0,0,0,4.233-1.122,3.635,3.635,0,0,0,1.53-2.924c0-1.989-1.785-3.281-4.556-3.281A8.415,8.415,0,0,0,89.9,52.339a4.761,4.761,0,0,0-.527.51l-.034-.017a2.048,2.048,0,0,0,.068-.391c.051-.391.085-.51.493-2.975a14.227,14.227,0,0,1,.391-1.87Zm16.3-2.771a9.464,9.464,0,0,1-.238,1.36,28.124,28.124,0,0,0-.765,6.732,24.366,24.366,0,0,0,.442,4.811c.051.323.068.408.1.68l1.224-.1v-.255a14.819,14.819,0,0,1,1.377-4.675l-.816-.391a15.8,15.8,0,0,0-1.105,3.315c-.068-.9-.1-1.9-.1-3.23a25.131,25.131,0,0,1,.51-5.321,24.156,24.156,0,0,1,.714-2.72Zm3.5,3.213a22.643,22.643,0,0,0,2.72.17,28.7,28.7,0,0,0,3.655-.221q1.122-.153,1.173-.153l-.085-1.207a18.242,18.242,0,0,1-4.556.459,11.546,11.546,0,0,1-2.89-.255Zm1.241,3.315a4.7,4.7,0,0,0-1.479,3.162,2.4,2.4,0,0,0,.51,1.564c.731.884,1.955,1.292,3.893,1.292a17.539,17.539,0,0,0,3.485-.34c.34-.051.374-.068.6-.085l-.17-1.309a11.188,11.188,0,0,1-3.91.595c-2.193,0-3.264-.612-3.264-1.87a3.949,3.949,0,0,1,1.275-2.5Zm18-4.114V45.42a6.674,6.674,0,0,1,.085-1.071H126.7a5.334,5.334,0,0,1,.085,1.088v1.717h-3.6a14.521,14.521,0,0,1-1.564-.068,11.119,11.119,0,0,1,.068,1.377v2.295c0,.442-.034.986-.068,1.275h1.394a12.107,12.107,0,0,1-.051-1.258v-2.55h9.282c-.323,3.451-1.564,5.78-3.944,7.429a11.225,11.225,0,0,1-3.757,1.649,3.481,3.481,0,0,1,.782,1.156,13.327,13.327,0,0,0,4.981-2.822,10.593,10.593,0,0,0,3.077-6.205c.221-1.445.221-1.445.374-1.717l-.7-.663a3.786,3.786,0,0,1-1.428.1Zm11.9,3.689a32.086,32.086,0,0,1,6.63,7.31l1.037-.867c-1.139-1.513-1.836-2.4-2.482-3.094a26,26,0,0,0,5.61-6.375,4.854,4.854,0,0,1,.68-.9l-.714-.85a2.076,2.076,0,0,1-.952.119h-9.911a12.357,12.357,0,0,1-1.989-.1v1.343c.578-.051,1.054-.068,1.972-.068,9.469-.017,9.469-.017,9.707-.034-.068.1-.085.119-.136.2a24.816,24.816,0,0,1-2.8,3.689,29.646,29.646,0,0,1-2.261,2.091,36.733,36.733,0,0,0-3.451-3.213ZM163.523,44.3a27.027,27.027,0,0,1-4.981,4.658,13.134,13.134,0,0,0-1.445,1.156,1.646,1.646,0,0,0-.493,1.139c0,.578.272.952,1.224,1.7,2.482,1.938,3.162,2.5,4.3,3.553a16.048,16.048,0,0,1,2.193,2.329l1.071-1.054a4.327,4.327,0,0,1-.476-.425,50.123,50.123,0,0,0-5.44-4.641c-1.377-1.071-1.513-1.19-1.513-1.5,0-.238.119-.374.748-.85a49.519,49.519,0,0,0,3.91-3.213c1.768-1.7,1.9-1.819,2.091-1.972Zm15.606,10.523c-.034-.425-.051-.731-.051-1.037,0-.068,0-.068.017-.782l.136-6.052c.017-.714.051-1.224.1-1.87H177.65c.068.646.085,1.156.1,1.87L177.9,53v.612c0,.561,0,.68-.034,1.207Zm.2,3.179V56.4h-1.649V58Z" transform="matrix(0.978, -0.208, 0.208, 0.978, 1063.417, 1626.997)" fill="#fff"/><path d="M100.728-15.181l.108.175a13.189,13.189,0,0,1,1.317,2.79l.073.224-1.328.521-.086-.245a13.633,13.633,0,0,0-1.265-2.7l-.172-.262Zm.873,2.9a12.741,12.741,0,0,0-1.085-2.285l-.387.144a14.935,14.935,0,0,1,1.066,2.3ZM98.74-14.608l.1.157a12.941,12.941,0,0,1,1.319,2.808l.083.235-1.373.492-.083-.238a13.43,13.43,0,0,0-1.251-2.754l-.173-.276Zm.866,2.9a12.48,12.48,0,0,0-1.08-2.308l-.4.122a14.249,14.249,0,0,1,1.048,2.34Zm-77.3-2.884,1.452.56-.083.23a22.452,22.452,0,0,1-1.029,2.487,7.614,7.614,0,0,0,1.216-.082l.287-.042v.66l1.052-.5.11.215A18.206,18.206,0,0,1,26.69-7.776l.022.068v-4.333h-1.62a5.872,5.872,0,0,0-1.143.081l-.3.057v-1.724l.295.054a6.226,6.226,0,0,0,1.247.081h1.632a9.992,9.992,0,0,0,1.161-.049l.221-.026v-.057l.293.051a6.354,6.354,0,0,0,1.249.081h1.632a11.06,11.06,0,0,0,1.2-.05l.314-.031-.041.312a10.68,10.68,0,0,0-.066,1.4V-.34c0,1.031-.486,1.491-1.576,1.491a12.9,12.9,0,0,1-1.768-.121L29.254,1,29.23.813A3.7,3.7,0,0,0,28.94-.263L28.76-.7l.466.1a8.433,8.433,0,0,0,1.748.249c.294,0,.294-.023.294-.175v-3.9c-.455.4-1.005.831-1.594,1.25-.285.2-.285.2-.655.487l-.254.2-.567-1.3V-.34c0,1.059-.457,1.491-1.576,1.491a12.33,12.33,0,0,1-1.785-.121L24.648,1,24.623.814a3.6,3.6,0,0,0-.288-1.057L24.15-.68l.465.1a8.978,8.978,0,0,0,1.82.233c.277,0,.277-.053.277-.141V-4.439a23.508,23.508,0,0,1-1.922,1.45l-.009.006c-.323.2-.421.266-.536.345l-.137.092-.258.172-.65-1.65.242-.087a13.183,13.183,0,0,0,3.269-2.124V-7.554L25.448-6.9l-.086-.292a13.127,13.127,0,0,0-1.21-2.971V-9.8l-.281-.035A9.242,9.242,0,0,0,22.593-9.9h-.77v1.608h.685a7.844,7.844,0,0,0,1.119-.065l.287-.043v1.6l-.287-.043a7.44,7.44,0,0,0-1.085-.065H21.8c-.015.537-.04.948-.073,1.472.767-.216,1.213-.362,2.266-.717l.33-.112v1.478l-.389.135c-1.006.349-1.414.492-2.372.752a8.755,8.755,0,0,1-2.3,5.121l-.2.221-.182-.236a2.7,2.7,0,0,0-.789-.742L17.822.291l.23-.218A5.88,5.88,0,0,0,20-3.479l-.474.118a9,9,0,0,0-1.231.349l-.273.1-.355-1.7.279-.025a20.053,20.053,0,0,0,2.256-.4c.061-.646.081-1.084.1-1.874h-.783a8.137,8.137,0,0,0-1.121.065L18.11-6.8V-8.4l.287.043a7.585,7.585,0,0,0,1.1.065h.821V-9.9h-.872a6.722,6.722,0,0,0-1.35.1l-.294.052v-1.723l.3.057a6.741,6.741,0,0,0,1.364.1H19.5a11.236,11.236,0,0,0-1.1-2.41l-.147-.246,1.352-.572.11.192a15.487,15.487,0,0,1,1.207,2.586l.086.228-.546.222h.649a16,16,0,0,0,1.122-3.015Zm.815.851-.486-.188a15.917,15.917,0,0,1-1.147,2.977l-.069.138H19.465a8.4,8.4,0,0,1-1.161-.058v.535a7.967,7.967,0,0,1,1.144-.059H20.82v2.608H19.5c-.339,0-.633-.012-.889-.036v.457c.266-.025.57-.037.906-.037h1.291l0,.254c-.018,1.05-.036,1.512-.12,2.35l-.018.18-.177.039c-.951.211-1.681.348-2.218.416l.123.59c.2-.064.459-.134,1.012-.269.412-.1.685-.171.86-.206l.357-.071-.062.359A6.538,6.538,0,0,1,18.615.223a2.792,2.792,0,0,1,.468.443,8.383,8.383,0,0,0,2-4.794l.021-.167.162-.044c1.059-.284,1.451-.421,2.5-.785l.053-.018v-.426c-.97.326-1.412.463-2.3.709l-.339.093.03-.465c.047-.719.078-1.194.094-1.932l.005-.245h1.231c.331,0,.619.012.872.036v-.456c-.259.024-.558.036-.906.036H21.323V-10.4h1.27c.449,0,.752.01,1.059.039v-.507a9.228,9.228,0,0,1-1.11.05h-.727l.2-.37A18.473,18.473,0,0,0,23.124-13.744Zm-2.756,1.926a14.43,14.43,0,0,0-.977-2.094l-.417.176a11.348,11.348,0,0,1,.948,2.1Zm11.014-1.175H29.75a8.3,8.3,0,0,1-1.042-.045v.539a8.154,8.154,0,0,1,.957-.043h2.1v6.532l-.083.074a14.529,14.529,0,0,1-2.964,2.089l.246.562c.15-.115.211-.158.418-.3a17.67,17.67,0,0,0,1.959-1.591l.424-.41v5.06c0,.6-.424.675-.794.675A7.507,7.507,0,0,1,29.563-.02,3.755,3.755,0,0,1,29.7.559a12.434,12.434,0,0,0,1.513.092c.815,0,1.076-.241,1.076-.991V-11.866c0-.486.011-.845.037-1.153C32.052-13,31.768-12.993,31.382-12.993Zm-4.556,0H25.194a8.474,8.474,0,0,1-1.042-.044v.539a7.766,7.766,0,0,1,.94-.043h2.12v6.536l-.087.075a14.849,14.849,0,0,1-3.273,2.194l.236.6c.09-.06.211-.137.426-.27A23.446,23.446,0,0,0,26.8-5.169l.414-.361V-.493c0,.292-.135.641-.777.641a8.082,8.082,0,0,1-1.479-.157,3.784,3.784,0,0,1,.135.568,11.842,11.842,0,0,0,1.531.092C27.457.651,27.7.429,27.7-.34V-11.866c0-.485.011-.836.038-1.151C27.489-13,27.2-12.993,26.826-12.993ZM28.208-11.9v-.63c-.007.193-.01.409-.01.665v7.69l.109-.038a12.442,12.442,0,0,0,2.961-2.018v-5.809h-1.6a5.987,5.987,0,0,0-1.158.08ZM26.15-7.826a16.915,16.915,0,0,0-1.171-2.793l-.4.19a13.132,13.132,0,0,1,1.18,2.808Zm14.7-6.073.017.284a29.008,29.008,0,0,0,1.179,5.31c.868-.351,1.477-.581,3.876-1.416l.184-.068a7.29,7.29,0,0,0,.877-.362l.244-.122.719,1.82-.288.062a38.888,38.888,0,0,0-5.075,1.636c-2.774,1.1-4.01,2.169-4.01,3.458,0,1.136.747,1.892,4.391,1.892a16.7,16.7,0,0,0,4.778-.564l.3-.107.193,2h-.275a8.683,8.683,0,0,0-1.231.1A34.284,34.284,0,0,1,42.942.25,11.775,11.775,0,0,1,39.08-.225a3.052,3.052,0,0,1-2.27-3.022,3.946,3.946,0,0,1,1.605-3.084A10.242,10.242,0,0,1,40.494-7.64a35.316,35.316,0,0,1-1.18-4.585,5.5,5.5,0,0,0-.273-1.018l-.11-.293Zm.891,6.257-.085-.251a31.868,31.868,0,0,1-1.264-5.41l-.784.149c.051.161.1.368.2.827a34.432,34.432,0,0,0,1.233,4.732l.071.207-.2.1a10.349,10.349,0,0,0-2.181,1.347,3.42,3.42,0,0,0-1.421,2.7A2.564,2.564,0,0,0,39.254-.694a11.329,11.329,0,0,0,3.688.444,33.851,33.851,0,0,0,3.733-.22c.62-.068.833-.091,1.007-.1L47.6-1.4a18.543,18.543,0,0,1-4.643.5,9.261,9.261,0,0,1-3.674-.514A1.911,1.911,0,0,1,38.068-3.3a2.784,2.784,0,0,1,1.076-2.127,11.179,11.179,0,0,1,3.246-1.794,41.465,41.465,0,0,1,4.87-1.6l-.3-.772c-.188.084-.364.149-.681.267l-.191.071c-2.61.909-3.092,1.1-4.1,1.508Zm81.3-6.229,1.926.024-.062.3a17.4,17.4,0,0,0-.188,2.653l.157-.059.716.853-.19.161a5.279,5.279,0,0,0-.779.944,2.606,2.606,0,0,1-.018.37c-.014.287-.016.327-.028.881.365-.364.918-.839,1.747-1.509,1.615-1.3,2.923-1.926,4-1.926a2.1,2.1,0,0,1,2.239,2.239,11.55,11.55,0,0,1-.4,2.537,18.358,18.358,0,0,0-.725,3.974c0,.957.58.957.77.957a1.836,1.836,0,0,0,1.243-.832,6.733,6.733,0,0,0,.932-1.881l.17-.554.286.5a5.346,5.346,0,0,0,.754,1.116l.112.129-.08.151a8.666,8.666,0,0,1-1.082,1.725A3.17,3.17,0,0,1,132.005.2a2.358,2.358,0,0,1-1.336-.4,2.348,2.348,0,0,1-.9-2.141,16.894,16.894,0,0,1,.651-4.013,12.951,12.951,0,0,0,.42-2.5.616.616,0,0,0-.685-.668,4.64,4.64,0,0,0-2.421,1.109,26.6,26.6,0,0,0-3.177,2.793v3.566a26.255,26.255,0,0,0,.05,2.8l.027.275h-1.9l.047-.29a14.427,14.427,0,0,0,.116-2.767c0-1.184,0-1.665.011-2.023-.145.164-.242.273-.7.78-.117.128-.252.279-.407.455l-.307.344-.078.088a2.709,2.709,0,0,0-.339.424l-.225.354-1-1.8.2-.127a25.549,25.549,0,0,0,2.88-2.764c.016-.615.045-1.539.09-2.877a14.953,14.953,0,0,0-2.357.214l-.286.062-.1-1.765.3.037a3.2,3.2,0,0,0,.5.032l.473-.029q.5-.032,1.513-.093c.046-1.213.059-1.862.059-2.042a6.354,6.354,0,0,0-.045-.781Zm1.323.517-.771-.01c.016.183.025.342.025.6,0,.194-.014.921-.068,2.288l-.009.226-.226.013q-1.18.07-1.738.107c-.4.025-.476.03-.5.03-.088,0-.162,0-.26-.006l.034.595c.281-.044.725-.073,2.419-.187l.276-.019-.009.277c-.053,1.562-.086,2.593-.1,3.245l0,.1-.065.07a32.83,32.83,0,0,1-2.848,2.775l.385.693.145-.164.078-.088.306-.344c.157-.177.293-.33.411-.458.574-.642.575-.643.829-.93l.068-.08a1.193,1.193,0,0,0,.2-.276l.069-.138h.456l-.018.267c-.05.757-.05.757-.05,2.737a20.6,20.6,0,0,1-.077,2.555h.76c-.028-.374-.028-.8-.028-2.572V-5.835l.077-.074a27.585,27.585,0,0,1,3.306-2.911,5.053,5.053,0,0,1,2.715-1.2,1.114,1.114,0,0,1,1.185,1.168,12.985,12.985,0,0,1-.431,2.6,16.188,16.188,0,0,0-.64,3.907,1.881,1.881,0,0,0,.692,1.733,1.844,1.844,0,0,0,1.047.312,2.667,2.667,0,0,0,2.152-1.132,7.506,7.506,0,0,0,.947-1.492,4.433,4.433,0,0,1-.426-.6,7.287,7.287,0,0,1-.821,1.508,2.275,2.275,0,0,1-1.648,1.04c-.807,0-1.27-.531-1.27-1.457a19.015,19.015,0,0,1,.737-4.085,11.184,11.184,0,0,0,.385-2.426,1.6,1.6,0,0,0-1.739-1.739,6.671,6.671,0,0,0-3.686,1.815,12.3,12.3,0,0,0-2.109,1.935l-.123.18-.368-.184v-.154a1.176,1.176,0,0,1,.009-.143,1,1,0,0,0,.008-.129v-.025l0-.024a.637.637,0,0,0,.012-.105c.017-.807.017-.807.034-1.15l0-.029a2.868,2.868,0,0,0,.014-.384v-.081l.047-.066a9.091,9.091,0,0,1,.727-.927l-.181-.215a1.364,1.364,0,0,1-.231.041l-.287.032.009-.289C124.261-12.24,124.3-12.927,124.365-13.354ZM.974-13.806l.288.044a10.613,10.613,0,0,0,1.645.1H6.6a11.254,11.254,0,0,0,1.593-.065l.282-.045V-13.8l.284.039a11.123,11.123,0,0,0,1.666.1h3.655a10.745,10.745,0,0,0,1.559-.065l.327-.052-.039.328a13.191,13.191,0,0,0-.066,1.619v2.805c0,1.153-.441,1.542-1.746,1.542-.541,0-.842-.018-1.669-.086l-.2-.016-.027-.2A4.452,4.452,0,0,0,12-8.679l-.035-.109c-.5.2-1.081.409-1.836.677l-.08.028c-.28.1-.375.131-.586.221l-.231.1-.075-.179,0,.023a5.119,5.119,0,0,0-.063.733h4.695a8.638,8.638,0,0,0,1.489-.082l.291-.049v1.659L15.278-5.7A8.855,8.855,0,0,0,13.8-5.785H11.97l.664.246-.141.255c-.12.215-.191.334-.268.458A7.725,7.725,0,0,0,15.3-3.317l.39.114-.278.3a2.408,2.408,0,0,0-.454.655,10.121,10.121,0,0,0,1.019-.088l.284-.039V-.666L15.981-.7a12.825,12.825,0,0,0-1.718-.1H9.141v.668a9.943,9.943,0,0,0,.117,1.581l.039.284H7.464L7.5,1.444A9.74,9.74,0,0,0,7.621-.119V-.8H2.754a12.825,12.825,0,0,0-1.718.1L.753-.666V-2.379l.285.041a10.255,10.255,0,0,0,1.219.094,3.014,3.014,0,0,0-.507-.483l-.332-.258L1.8-3.153A7.054,7.054,0,0,0,3.983-4.489a4.1,4.1,0,0,0,1.07-1.3H3.315A9.294,9.294,0,0,0,1.84-5.7l-.288.044V-7.314l.29.046a8.627,8.627,0,0,0,1.473.082h4.27c0-.172-.011-.32-.022-.465a3.408,3.408,0,0,1-1,.115c-.366,0-.978-.037-1.422-.087l-.2-.022-.02-.2a3.06,3.06,0,0,0-.185-.843c-.558.226-1.2.461-2.21.829-.058.026-.125.054-.2.086-.131.054-.293.122-.5.215l-.245.11L1-9.012l.308-.042a14.122,14.122,0,0,0,3.162-.969l-.016-.012a10.793,10.793,0,0,0-2.413-1.346l-.3-.13.587-.729a6.661,6.661,0,0,0-1.063.095L.974-12.1Zm7.5,1.71v-1.31a13.41,13.41,0,0,0-.061,1.558V-9.1a2,2,0,0,1-.166.889h.8L8.6-9.264l.323-.044a13.056,13.056,0,0,0,2.707-.752A9.284,9.284,0,0,0,9.471-11.28l-.3-.13.661-.831a6.719,6.719,0,0,0-1.07.094Zm5.6-1.067H10.421a12.585,12.585,0,0,1-1.45-.069v.548a10.339,10.339,0,0,1,1.365-.061h4.517v3.7c0,.6-.345.726-.862.726a9.331,9.331,0,0,1-1.4-.126c.033.125.06.246.084.39.666.053.953.068,1.431.068,1.091,0,1.246-.222,1.246-1.042v-2.805c0-.617.011-1.019.038-1.365C15.1-13.172,14.7-13.163,14.076-13.163Zm-7.48,0H2.907a12.483,12.483,0,0,1-1.433-.066v.546a10.049,10.049,0,0,1,1.365-.062H7.424v3.633c0,.617-.358.743-.9.743a8.69,8.69,0,0,1-1.2-.1,3.792,3.792,0,0,1,.068.373c.4.037.87.063,1.169.063a2.372,2.372,0,0,0,.951-.134l0-.036h.073c.265-.158.328-.438.328-.889v-2.754c0-.607.011-1,.038-1.348C7.645-13.173,7.232-13.163,6.6-13.163Zm.328.918H3.465a13.044,13.044,0,0,1,1.856,1.036l.225.146-.654.866q.676-.284,1.446-.639l.332-.153.083,1.382L6.6-9.533c-.477.23-.852.407-1.21.565a8.152,8.152,0,0,0,1.135.1c.4,0,.4-.028.4-.243Zm7.429,0h-3.8a9.724,9.724,0,0,1,2,1.144l.209.147-.466.632q.7-.288,1.469-.648l.334-.157.083,1.409-.159.07c-.574.252-1.051.459-1.584.673a9.635,9.635,0,0,0,1.552.157c.26,0,.323-.034.336-.044s.026-.023.026-.182Zm-9.53,1.311A12.861,12.861,0,0,0,2.779-12l-.237.3a11.177,11.177,0,0,1,2.016,1.126Zm7.234.1a9.19,9.19,0,0,0-1.882-1.028l-.207.26a9.18,9.18,0,0,1,1.865,1.071Zm1.607.8-.019-.327a19.324,19.324,0,0,1-4.331,1.5l.188.447c.107-.041.214-.079.385-.138l.078-.027C11.737-9.213,12.528-9.538,13.663-10.036ZM6.234-9.91l-.019-.319A21.606,21.606,0,0,1,1.682-8.608l.178.486.268-.113c.078-.033.145-.06.2-.085l.016-.007A33.324,33.324,0,0,0,6.234-9.91Zm2.389,2.2H8.059c.017.226.028.46.028.77v.25H3.315a11.176,11.176,0,0,1-1.263-.048v.5a11.458,11.458,0,0,1,1.263-.05H13.8a11.493,11.493,0,0,1,1.263.049v-.5a11.621,11.621,0,0,1-1.28.048H8.59v-.25A6.782,6.782,0,0,1,8.623-7.706ZM11.1-5.785H5.964l.664.283-.163.25c-.194.3-.313.463-.438.632a4.516,4.516,0,0,0,1.523.928l-.012-.076-.046-.29h1.78l-.051.293c-.018.1-.032.2-.043.287A4.909,4.909,0,0,0,11.1-5.785Zm-5.217.508-.437-.186A4.493,4.493,0,0,1,4.31-4.11,7.092,7.092,0,0,1,2.368-2.858a3.017,3.017,0,0,1,.359.4,8.689,8.689,0,0,0,2.243-1.7l.179-.188.181.187A6.251,6.251,0,0,0,6.993-2.933a2.472,2.472,0,0,1,.25-.343A4.99,4.99,0,0,1,5.521-4.411l-.156-.152.212-.288C5.678-4.989,5.765-5.106,5.881-5.277Zm6.03,0-.427-.158A5.287,5.287,0,0,1,9.494-3.088a3.55,3.55,0,0,1,.306.3,7.662,7.662,0,0,0,1.424-1.456l.16-.211.2.172A8.946,8.946,0,0,0,14.55-2.545a3,3,0,0,1,.246-.4A7.613,7.613,0,0,1,11.734-4.59l-.157-.139.11-.179.073-.117C11.813-5.111,11.858-5.183,11.911-5.274Zm2.07,3.035a8.878,8.878,0,0,1-2.519-1.5,8.789,8.789,0,0,1-1.53,1.484l-.018.015ZM7.188-2.27l-.212-.108A7.268,7.268,0,0,1,5.154-3.623,8.716,8.716,0,0,1,3.346-2.239H7.621v-.447c0-.094,0-.179,0-.259a2.5,2.5,0,0,0-.312.468Zm1.5-1.288H8.074l.007.056L8.1-3.5l-.014.016a6.857,6.857,0,0,1,.037.794v.947H2.7a13.052,13.052,0,0,1-1.45-.068v.574a14.155,14.155,0,0,1,1.5-.07H8.121V-.119a9.739,9.739,0,0,1-.083,1.348h.686A9.972,9.972,0,0,1,8.641-.136V-1.3h5.622a14.155,14.155,0,0,1,1.5.07v-.574a12.981,12.981,0,0,1-1.467.069H8.641v-.947c0-.138,0-.26.006-.372L8.6-3.087l.048-.032C8.656-3.276,8.667-3.415,8.685-3.558Zm.941,1.319-.038-.043a3.827,3.827,0,0,0-.447-.45q0,.022,0,.045v.447ZM73.248-13.8l.224.078a20.65,20.65,0,0,0,6.079,1.04l.3.009L79.5-11.019l-.221-.02a24.454,24.454,0,0,1-6.4-1.167l-.256-.083Zm5.99,1.607a21.189,21.189,0,0,1-5.707-.981L73.3-12.6a23.724,23.724,0,0,0,5.808,1.042Zm8.577-1.343,1.912.294-.128.3A24.009,24.009,0,0,0,88.31-5.066c0,.468.01,1.144.036,1.769.161-.492.353-.979.639-1.643.027-.067.049-.116.067-.158a1.057,1.057,0,0,0,.059-.155l.081-.282,1.327.623-.109.227a14.484,14.484,0,0,0-1.437,4.7,1.545,1.545,0,0,0,.031.3l.04.257L87.329.769,87.3.521c-.01-.092-.02-.15-.045-.291-.013-.078-.031-.179-.055-.321a27.272,27.272,0,0,1-.48-5.094,29.065,29.065,0,0,1,.89-7.042,6.747,6.747,0,0,0,.182-1.035Zm1.205.691-.756-.116c-.024.165-.068.39-.163.836a28.63,28.63,0,0,0-.878,6.935,27.146,27.146,0,0,0,.471,5v.006c.024.143.041.244.055.321l.013.073.714-.08c0-.042,0-.076,0-.12a14.389,14.389,0,0,1,1.379-4.691l-.365-.171c-.012.027-.024.057-.039.093l0,.006a15.128,15.128,0,0,0-.989,2.934l-.046.192H87.9l-.022-1.055c-.05-.758-.068-1.761-.068-2.391A25.648,25.648,0,0,1,89.019-12.84Zm6.557-.653h1.885l-.042.287a21.184,21.184,0,0,0-.1,2.632v.549a12.8,12.8,0,0,0,2.621-.551l.3-.088.077,1.7h-.253l-.02,0a.508.508,0,0,1-.058.011L99.8-8.91c-.178.038-.477.1-.881.179-.345.078-.867.154-1.585.247,0,1.278.048,2.482.16,4.427a13.125,13.125,0,0,1,2.765,1.647l.077.056a1.635,1.635,0,0,0,.311.193l.215.107-.8,1.779-.256-.29a8.435,8.435,0,0,0-2.249-1.66A3.2,3.2,0,0,1,97.332-1,3.147,3.147,0,0,1,94.248.573c-2.1,0-3.463-1.032-3.463-2.63s1.431-2.7,3.48-2.7a6.348,6.348,0,0,1,1.6.2c-.046-.69-.094-2.056-.13-3.807-.59.026-1.069.04-1.693.04-.714,0-1.347-.017-1.936-.051h-.015a4.314,4.314,0,0,0-.5-.032h-.025a2.713,2.713,0,0,0-.281-.016h-.025l-.024,0a.536.536,0,0,0-.121-.012h-.325l.05-1.756.3.074a11.612,11.612,0,0,0,3,.265c.575,0,.992-.013,1.565-.039L95.7-10.6v-1.942a3.289,3.289,0,0,0-.044-.636Zm1.314.5h-.707c.011.15.015.312.015.447v1.938l.021,1.19-.242.012c-.713.035-1.168.051-1.831.051a13.065,13.065,0,0,1-2.819-.211l-.018.645h.005c.05,0,.149,0,.295.017a4.835,4.835,0,0,1,.537.035c.576.034,1.2.05,1.9.05s1.219-.018,1.926-.051l.256-.012.005.257c.056,2.8.125,4.122.167,4.4l.071.476-.43-.215a4.909,4.909,0,0,0-1.775-.3c-1.755,0-2.98.9-2.98,2.2,0,1.314,1.135,2.13,2.963,2.13a2.68,2.68,0,0,0,2.628-1.281,2.8,2.8,0,0,0,.182-1.07,2.07,2.07,0,0,0-.032-.392l-.073-.547.459.306.044.028a.634.634,0,0,1,.072.049l.116.08.016.01.049.031a10.1,10.1,0,0,1,2.209,1.541l.3-.659c-.058-.037-.107-.073-.173-.121l-.077-.056a12.92,12.92,0,0,0-2.813-1.658l-.137-.063-.009-.15c-.126-2.157-.17-3.42-.17-4.826v-.22l.218-.028c.8-.1,1.4-.186,1.761-.268l.009,0c.4-.076.686-.137.874-.177l.1-.022-.027-.588a13.645,13.645,0,0,1-2.674.515l-.282.036v-1.117C96.82-11.717,96.842-12.485,96.891-12.993Zm46.482-.177H145.6l-.021.27c-.053.672-.085,1.166-.1,1.856l-.136,6.052c-.017.711-.017.711-.017.776,0,.28.014.565.05,1.017l.022.27h-1.8l.017-.266c.033-.519.033-.635.033-1.191V-5l-.153-6.048c-.017-.7-.033-1.2-.1-1.85Zm1.691.5h-1.138c.048.544.063,1.024.077,1.614L144.155-5v.612c0,.461,0,.627-.018.957h.723c-.022-.319-.031-.554-.031-.787,0-.071,0-.071.017-.788l.136-6.052C145-11.662,145.022-12.118,145.063-12.67Zm-39.191.138.281.066a19.28,19.28,0,0,0,4.465.4,18.527,18.527,0,0,0,4.239-.349l.288-.073.121,1.6-.166.07a23.9,23.9,0,0,0-4.234,2.556l-.155.112-1.281-1.029.282-.19c.87-.584,1.305-.865,1.829-1.168-.388.032-.771.044-1.248.044a33.359,33.359,0,0,1-3.771-.223l-.219-.027a1.922,1.922,0,0,0-.311-.023h-.272Zm4.747.967a20.635,20.635,0,0,1-4.3-.352l-.056.665.1.013.213.026a32.823,32.823,0,0,0,3.712.219,13.21,13.21,0,0,0,2.526-.218l.17.461a2.207,2.207,0,0,1-.222.119c-.035.017-.063.03-.105.054l-.012.007c-.2.1-.234.117-.417.217-.686.381-1.077.621-1.959,1.21l.453.365a24.966,24.966,0,0,1,4.013-2.429l-.05-.654A20.941,20.941,0,0,1,110.619-11.565Zm-57.587-.741,2,.024L54.987-12a12.146,12.146,0,0,0-.116,1.983,28.912,28.912,0,0,0,.435,5.23c.381,1.764,1.043,2.714,1.474,2.714.192,0,.419-.256.622-.7a11.977,11.977,0,0,0,.866-2.85l.1-.514.338.4a5.2,5.2,0,0,0,.967.934l.131.1-.045.161a11.35,11.35,0,0,1-1.305,3.247A2.078,2.078,0,0,1,56.7-.243c-1.065,0-2.031-1-2.65-2.751-.593-1.609-.846-3.792-.932-8.051l0-.089a8.113,8.113,0,0,0-.047-.891Zm1.42.517-.865-.01c.01.144.014.3.023.653l0,.091c.085,4.2.33,6.339.9,7.893.537,1.517,1.352,2.42,2.179,2.42.874,0,1.642-.647,2.536-3.772a5.186,5.186,0,0,1-.573-.519,11.74,11.74,0,0,1-.8,2.469c-.3.66-.663,1-1.077,1s-.817-.32-1.176-.926a7.476,7.476,0,0,1-.786-2.178,29.468,29.468,0,0,1-.448-5.34A14.406,14.406,0,0,1,54.452-11.789Zm8.562.342.128.151a15.009,15.009,0,0,1,2.469,3.937A16.456,16.456,0,0,1,66.9-2.76l.032.2-1.7.7L65.2-2.2a14.728,14.728,0,0,0-3.477-8.242l-.208-.242Zm3.364,8.571a15.676,15.676,0,0,0-1.224-4.28,14.424,14.424,0,0,0-2.267-3.666l-.579.294a15.214,15.214,0,0,1,3.355,7.944ZM29.656-11.282l.113.22A17.614,17.614,0,0,1,31.162-7.74l.061.2-1.3.678-.085-.292A13.138,13.138,0,0,0,28.479-10.4l-.132-.23Zm.967,3.49a16.579,16.579,0,0,0-1.186-2.821l-.393.2a13.134,13.134,0,0,1,1.183,2.831ZM79.3-10.159l1.022,1.278-.2.155a14.125,14.125,0,0,0-1.387,1.29l-.1.1c-.812.812-1.552,1.514-2.213,2.1a2.3,2.3,0,0,1,.371-.027,1.835,1.835,0,0,1,1.333.515c.387.387.527.821.6,1.859s.116,1.258.26,1.47.426.354,1.208.354a8.869,8.869,0,0,0,3.334-.608l.3-.13.27,1.892-.259.026c-.163.016-.163.016-1.364.2A13.663,13.663,0,0,1,80.1.539c-1.37,0-2.2-.35-2.6-1.1a4.532,4.532,0,0,1-.4-1.97,2.83,2.83,0,0,0-.161-1.08l0-.006a.594.594,0,0,0-.555-.264c-.806,0-1.608.466-2.958,1.718C72.566-1.376,71.442-.21,70.891.42l-.185.212L69.374-.844l.236-.162a12.092,12.092,0,0,0,1.805-1.539C72.6-3.648,73.986-4.98,75.423-6.4c.484-.484,1.185-1.169,1.977-1.933-.9.144-2.065.246-4.268.388-.8.05-1.158.084-1.6.135l-.26.03-.123-1.792.289.023c.415.033.623.033,1,.033a57.689,57.689,0,0,0,5.932-.406,2.966,2.966,0,0,0,.761-.173Zm.315,1.194-.48-.6a3.967,3.967,0,0,1-.7.14,58.356,58.356,0,0,1-6,.41c-.284,0-.484,0-.751-.015l.048.695c.352-.037.713-.067,1.368-.108a32.173,32.173,0,0,0,5.027-.538l.878-.2-.65.623c-1.471,1.41-2.295,2.227-2.58,2.512-1.442,1.424-2.831,2.76-4.018,3.865A13.923,13.923,0,0,1,70.127-.756L70.7-.12c.606-.671,1.59-1.683,2.382-2.411,1.454-1.349,2.348-1.851,3.3-1.851a1.071,1.071,0,0,1,1.007.549A3.1,3.1,0,0,1,77.6-2.566,4.049,4.049,0,0,0,77.943-.8c.308.573.995.839,2.161.839a13.225,13.225,0,0,0,2.289-.218c.668-.1.969-.15,1.134-.174L83.42-1.1a9.779,9.779,0,0,1-3.231.529c-.852,0-1.319-.162-1.612-.561l0-.007c-.232-.337-.283-.67-.35-1.724-.07-1-.2-1.282-.454-1.539a1.329,1.329,0,0,0-.979-.369,3.4,3.4,0,0,0-1.591.536l-.262-.423a37.812,37.812,0,0,0,3.342-3.039l.1-.1C79.1-8.494,79.357-8.751,79.616-8.965Zm27.39,1.982,1.281.954-.244.2c-1.04.864-1.525,1.6-1.525,2.307,0,.671.417,1.138,1.275,1.429a10.7,10.7,0,0,0,3.031.327,16.049,16.049,0,0,0,5.005-.627l.307-.126.217,1.981-.258.02a3.364,3.364,0,0,0-.421.058l-.133.024a28.136,28.136,0,0,1-4.633.395,12.274,12.274,0,0,1-4-.544l-.005,0a2.964,2.964,0,0,1-2.092-2.8,4.694,4.694,0,0,1,2.044-3.472Zm.476.978-.455-.339a4.1,4.1,0,0,0-1.716,2.961,2.468,2.468,0,0,0,1.781,2.335,11.8,11.8,0,0,0,3.817.509,27.616,27.616,0,0,0,4.548-.387l.13-.023c.086-.015.151-.027.214-.037l-.091-.83a18.127,18.127,0,0,1-4.886.553,10.983,10.983,0,0,1-3.192-.353c-1.334-.453-1.614-1.284-1.614-1.9A3.416,3.416,0,0,1,107.482-6ZM94.35-3.735a4.873,4.873,0,0,1,1.9.355l.052.019.039.039c.05.05.107.107.107.67a2.141,2.141,0,0,1-.387,1.51,2.6,2.6,0,0,1-1.92.695c-1.339,0-2.239-.647-2.239-1.61a1.447,1.447,0,0,1,.707-1.255A3.212,3.212,0,0,1,94.35-3.735Zm1.591.774a4.251,4.251,0,0,0-1.591-.274c-1.2,0-1.943.451-1.943,1.178,0,.664.7,1.11,1.739,1.11a2.163,2.163,0,0,0,1.545-.525L95.7-1.48a1.715,1.715,0,0,0,.256-1.172C95.953-2.732,95.947-2.863,95.941-2.961Zm47.493,1.113h2.149V.25h-2.149Zm1.649.5h-1.149v1.1h1.149ZM100.209,13.976l.132.161a13.935,13.935,0,0,1,1.779,2.677l.111.212-1.3.753-.113-.254a11.982,11.982,0,0,0-1.695-2.607l-.2-.234Zm1.356,2.859a12.862,12.862,0,0,0-1.48-2.22l-.384.212a13.046,13.046,0,0,1,1.457,2.244Zm-22.7-2.394,1.629.356-.128.282c-.172.378-.29.626-.413.871H81.26a12.179,12.179,0,0,0,1.6-.066l.311-.042-.028.313c-.036.4-.05.775-.05,1.354v2.227c0,.61.014,1.009.05,1.423l.025.283-.284-.011C82.473,21.413,82,21.4,81.5,21.4h-3.83v.656H82.79a7.66,7.66,0,0,0,1.339-.082l.288-.044v1.587l-.289-.046a9.161,9.161,0,0,0-1.355-.065h-5.1v.673h4.9a12.8,12.8,0,0,0,1.348-.049l.279-.033v.281a.675.675,0,0,1-.023.215c-.007.064-.013.16-.03.471-.011.2-.026.479-.05.892a8.834,8.834,0,0,1-.72,3.725l0,.005a1.788,1.788,0,0,1-1.686.7,15.055,15.055,0,0,1-1.713-.138l-.212-.025-.009-.213a2.206,2.206,0,0,0-.217-.947l-.043-.1-.231.067-.034-.295a10.718,10.718,0,0,0-.534-2.553l-.084-.261,1.253-.278.071.214a12.852,12.852,0,0,1,.6,2.573l.034.217-.438.128a8.671,8.671,0,0,0,1.516.175c.356,0,.534-.041.706-.969a16.177,16.177,0,0,0,.228-2.441H81.4l.056.118a12.283,12.283,0,0,1,.795,2.038l.069.219-1.226.5-.072-.277a9.435,9.435,0,0,0-.715-2.031l-.118-.252.93-.317H77.639a8.539,8.539,0,0,0-1.229.049l-.318.037.041-.317A11.921,11.921,0,0,0,76.2,23.7V17.562a17.113,17.113,0,0,1-1.5,3.668l-.114.215-1.23-.615.121-.226a13.849,13.849,0,0,0,1.389-3.77l.076-.3,1.257.617a7.853,7.853,0,0,0-.063-.986l-.039-.274-.294.128A18.764,18.764,0,0,1,72.7,17.1l.075.182a14.993,14.993,0,0,1,.812,2.606l.05.216-1.269.457h.982l-.03.277c-.041.382-.048.534-.059.879h.949a6.73,6.73,0,0,0,1.313-.081l.3-.057v1.661l-.3-.06c-.029-.006-.055-.009-.078-.012a.707.707,0,0,1-.118-.022,2.263,2.263,0,0,0-.334-.012h-.011l-.794-.034H73.2c-.021.385-.04.64-.085.979h1.14a7.525,7.525,0,0,0,1.338-.082l.289-.046v1.563l1.182.4-.008-.045,1.315-.192.041.24a19.356,19.356,0,0,1,.292,3.213l.007.2-1.408.345v-.319c0-.126.006-.239.011-.33,0-.059.006-.11.006-.146a14.443,14.443,0,0,0-.217-2.759l-.017-.093-.017.1A10.824,10.824,0,0,1,75.8,29.955l-.125.223-1.311-.771.14-.219a7.231,7.231,0,0,0,.76-1.539,2.805,2.805,0,0,0-.546.851l-.142.283-.243-.2a8.021,8.021,0,0,1-1.8-2.023,7.013,7.013,0,0,1-3.105,3.707l-.235.154-.126-.251a2.448,2.448,0,0,0-.632-.752l-.285-.234L68.475,29a5.8,5.8,0,0,0,2.094-1.747,4.61,4.61,0,0,0,.852-1.779H70.4a7.975,7.975,0,0,0-1.356.082l-.288.044V23.945l.291.049a7.4,7.4,0,0,0,1.336.082h1.308c.032-.286.063-.608.082-.979h-.9a7.62,7.62,0,0,0-1.337.082l-.29.046V21.572l.3.06a6.621,6.621,0,0,0,1.311.08h.956a5.259,5.259,0,0,0-.063-.863l-.052-.293h.6l-.057-.257a12.824,12.824,0,0,0-.8-2.574l-.11-.259.88-.259c-.808.177-1.7.322-2.8.463l-.21.027-.062-.2a2.509,2.509,0,0,0-.455-.859l-.276-.375.465-.023a14.4,14.4,0,0,0,6.03-1.456l.186-.121,1,1.208,0-.031.328.045a11.983,11.983,0,0,0,1.564.066h.373a5.915,5.915,0,0,0,.455-1.271Zm.917.712-.549-.12a6.364,6.364,0,0,1-.5,1.281l-.07.135h-.679c-.591,0-.995-.011-1.315-.036.024.279.035.609.035,1.027V23.7c0,.55-.011.945-.037,1.268.269-.022.491-.022.977-.022H83.1l0,.254a17.431,17.431,0,0,1-.243,2.782c-.169.91-.4,1.374-1.2,1.374a8.654,8.654,0,0,1-1.5-.165,2.436,2.436,0,0,1,.088.49,13.285,13.285,0,0,0,1.446.11c.782,0,1.067-.185,1.271-.483a8.668,8.668,0,0,0,.639-3.478c.024-.415.039-.7.05-.894s.017-.307.022-.383c-.278.018-.636.026-1.1.026h-5.4V22.9h5.6c.506,0,.864.011,1.144.036V22.5a9.3,9.3,0,0,1-1.127.049H77.168V20.9H81.5c.4,0,.778.011,1.124.023-.022-.338-.031-.7-.031-1.184V17.508c0-.449.008-.783.028-1.1-.324.027-.734.037-1.359.037H79.131l.191-.366C79.488,15.763,79.608,15.526,79.781,15.153Zm-4.487.54-.311-.375a14.931,14.931,0,0,1-5.645,1.393,2.557,2.557,0,0,1,.21.438A19.912,19.912,0,0,0,75.295,15.693Zm.41,1.775-.433-.213a13.78,13.78,0,0,1-1.236,3.356l.335.167A16.2,16.2,0,0,0,75.7,17.468Zm-2.66,2.311a13.916,13.916,0,0,0-.652-2.1l-.382.112a12.665,12.665,0,0,1,.659,2.126Zm-.254,1.277h-.509c.023.231.032.509.032.906v.25H70.856a9.82,9.82,0,0,1-1.11-.043v.475a9.553,9.553,0,0,1,1.127-.048h1.413l-.008.257c-.017.577-.068,1.063-.121,1.5l-.026.22H70.38a9.587,9.587,0,0,1-1.127-.047v.5a9.633,9.633,0,0,1,1.144-.049h1.658l-.071.307a5.353,5.353,0,0,1-1.013,2.269,5.959,5.959,0,0,1-1.953,1.716,2.916,2.916,0,0,1,.356.431,6.4,6.4,0,0,0,2.858-3.815l.171-.56.286.511a7.394,7.394,0,0,0,1.727,2.157,2.886,2.886,0,0,1,.3-.48,6.3,6.3,0,0,1-1.957-2.164l-.206-.371h1.7a4.836,4.836,0,0,1,.621.017,1.683,1.683,0,0,1,.2.016h.008a2.349,2.349,0,0,1,.3.011v-.494a9.445,9.445,0,0,1-1.127.048H72.537l.044-.287a12.232,12.232,0,0,0,.134-1.455l.012-.237H74.2l.794.034a2.908,2.908,0,0,1,.323.009v-.471a9.592,9.592,0,0,1-1.11.044H72.74l.013-.412C72.763,21.478,72.768,21.309,72.79,21.056Zm2.967,4.528-.164-.026a2.264,2.264,0,0,0-.522-.048.449.449,0,0,1-.061-.005,1.183,1.183,0,0,0-.16-.012H74.82l-.03-.007c-.051-.01-.286-.01-.534-.01h-.835a6.188,6.188,0,0,0,1.812,1.79l.128.09a12.857,12.857,0,0,0,.366-1.595ZM81.7,27.53a10.729,10.729,0,0,0-.6-1.553l-.224.076a8.941,8.941,0,0,1,.557,1.588Zm-1.69.663a11.7,11.7,0,0,0-.48-2.062l-.278.062a10.326,10.326,0,0,1,.437,2.093Zm-3.469-1.932-.373-.127a8.621,8.621,0,0,1-1.1,3.1l.424.249A10.087,10.087,0,0,0,76.541,26.261Zm1.657,2.68a18.056,18.056,0,0,0-.238-2.7l-.319.047a15.53,15.53,0,0,1,.18,2.595c0,.044,0,.1-.006.155ZM21.975,14.64h1.814l-.049.291a5.666,5.666,0,0,0-.082,1.03v.192h3.529v-.192A8.308,8.308,0,0,0,27.1,14.92l-.034-.28h1.786l-.051.293a5.465,5.465,0,0,0-.081,1.028v.192H31.2a13.146,13.146,0,0,0,1.869-.1l.285-.041v1.7l-.283-.038a14.456,14.456,0,0,0-1.871-.083h-2.47a6.255,6.255,0,0,0,.065.906l.019.136a11.789,11.789,0,0,0,2.075-.539l.169-.065,1.135,1.387-.392.09c-.588.136-1.1.246-1.581.34l1.333.612-.136.237a21.952,21.952,0,0,1-2.337,3.419l-.069.083h1.917a12.12,12.12,0,0,0,1.884-.1l.287-.042v1.695l-.281-.035a14.912,14.912,0,0,0-1.89-.1H27.242a14.175,14.175,0,0,0,6.049,2.8l.412.1-.282.315a4.234,4.234,0,0,0-.662.969l-.1.184-.2-.06a17.626,17.626,0,0,1-4.1-1.776,12.625,12.625,0,0,1-2.187-1.675c.022.342.033.664.033.985V28.49a9.013,9.013,0,0,0,.114,1.736l.06.3H24.529l.044-.287a10.754,10.754,0,0,0,.116-1.748V27.448c.008-.382.02-.7.032-.958a11.015,11.015,0,0,1-2.24,1.672,17.047,17.047,0,0,1-3.858,1.705l-.2.065-.1-.188a2.807,2.807,0,0,0-.682-.92l-.328-.313.44-.111a14.372,14.372,0,0,0,5.889-2.789h-3.6a14.44,14.44,0,0,0-1.839.1l-.281.035V24.052l.287.042a11.85,11.85,0,0,0,1.85.1h4.627a4.622,4.622,0,0,0-.079-.8l-.051-.293H25a7.468,7.468,0,0,0-1.148-1.995l-.2-.256.654-.277c-.778.05-1.713.081-3.549.135l.027.032a11.437,11.437,0,0,1,1.714,2.476l.118.219-1.35.739-.114-.237a8.18,8.18,0,0,0-1.654-2.416l-.244-.249,1.148-.553-.861.025-.267.008-.057-.18a2.663,2.663,0,0,0-.457-.9l-.289-.4h.491a67.029,67.029,0,0,0,6.894-.254q1.131-.114,2.045-.249h-.827l.039-.284a6.714,6.714,0,0,0,.065-.906H23.659v.124a6.49,6.49,0,0,0,.066,1.02l.039.284H22.018l.039-.284a6.742,6.742,0,0,0,.066-1.02v-.124H19.839a14.058,14.058,0,0,0-1.854.083l-.283.038v-1.7l.287.042a12.845,12.845,0,0,0,1.85.1h2.283v-.192a5.746,5.746,0,0,0-.1-1.03Zm1.23.5h-.643a5.6,5.6,0,0,1,.06.821v.692H19.839a15.438,15.438,0,0,1-1.637-.068v.558c.466-.045.972-.055,1.637-.055h2.783v.624a7.538,7.538,0,0,1-.036.8h.609a7.241,7.241,0,0,1-.036-.8v-.624h4.529v.386a7.639,7.639,0,0,1-.036.8h.609a7.242,7.242,0,0,1-.036-.8v-.386H31.2c.658,0,1.183.01,1.654.055v-.559a15.512,15.512,0,0,1-1.654.069h-2.97v-.692a6.224,6.224,0,0,1,.044-.821h-.635a6.94,6.94,0,0,1,.054.821v.692H23.159v-.692A6.309,6.309,0,0,1,23.2,15.14ZM31.29,19.1l-.4-.484a22.808,22.808,0,0,1-4.978.9,64.372,64.372,0,0,1-6.482.256,2.84,2.84,0,0,1,.21.464,62.8,62.8,0,0,0,6.816-.367A38.174,38.174,0,0,0,31.29,19.1Zm-2.482,5.089-1.188-.629.209-.238a11.358,11.358,0,0,0,2.1-3.334l.045-.1c-1.086.2-2.051.33-3.46.485-.532.056-.942.1-1.321.134a12.762,12.762,0,0,1,1.227,2.054l.116.228-.656.316h.469l-.06.3a4,4,0,0,0-.078.789Zm2.034-3.513-.557-.256a11.5,11.5,0,0,1-1.874,2.993l.41.217A21.094,21.094,0,0,0,30.842,20.681Zm-4.984,1.881a11.544,11.544,0,0,0-1-1.669l-.406.172a7.644,7.644,0,0,1,.963,1.713Zm-3.91.678a10.485,10.485,0,0,0-1.408-2.023l-.437.21a8.53,8.53,0,0,1,1.392,2.061Zm3.8.366h-.6a5.988,5.988,0,0,1,.043.838v.25H20.06a14.464,14.464,0,0,1-1.637-.067v.557a15.775,15.775,0,0,1,1.62-.072h4.983l-.52.441a14.626,14.626,0,0,1-6.211,3.224,3.013,3.013,0,0,1,.375.549,16.114,16.114,0,0,0,3.56-1.6,11.484,11.484,0,0,0,2.6-2.038l.467-.452-.043.648c-.015.225-.05.751-.067,1.568V28.49a11.751,11.751,0,0,1-.082,1.535h.676a11.686,11.686,0,0,1-.074-1.535V27.453c0-.315-.011-.632-.033-.969v-.007c-.017-.419-.017-.419-.033-.6l-.061-.669.484.467a13.458,13.458,0,0,0,2.555,2.039,16.669,16.669,0,0,0,3.8,1.666,4.6,4.6,0,0,1,.371-.571,14.553,14.553,0,0,1-6.409-3.256l-.526-.442h5.073a16.457,16.457,0,0,1,1.671.072v-.558a15,15,0,0,1-1.671.067H25.709v-.25A6.377,6.377,0,0,1,25.749,23.606Zm35.489-8.83h1.83l-.039.284a11.057,11.057,0,0,0-.1,1.564v2.442l2.289-.758a12.089,12.089,0,0,0,1.32-.518l.367-.163-.016.4c-.071,1.776-.142,2.971-.273,4.566-.128,1.625-.382,2.376-.906,2.678a2.556,2.556,0,0,1-1.349.271c-.165,0-.377-.018-.77-.052l-.2-.018-.023-.2a3.724,3.724,0,0,0-.24-1.011l-.165-.434.453.1a5.819,5.819,0,0,0,1.255.147c.251,0,.251,0,.315-.37a31.621,31.621,0,0,0,.258-3.9l-2.312.794v4.514a10.881,10.881,0,0,0,.1,1.6l.039.284H61.235l.041-.285a10.828,10.828,0,0,0,.1-1.614V21.12l-1.931.648v6.2c0,.293.03.331.321.4l.009,0a12.19,12.19,0,0,0,2.667.143c2.2,0,2.975-.094,3.178-.386a4.443,4.443,0,0,0,.312-2.156l.006-.438.374.228a2.876,2.876,0,0,0,1.017.413l.2.049-.014.21c-.1,1.543-.217,2.518-.993,3.045-.715.485-1.88.538-4.186.538-3.46,0-4.466-.24-4.466-1.831v-5.9l-.048.015a9.151,9.151,0,0,0-1.366.525l-.285.136-.458-1.729.29-.031a6.3,6.3,0,0,0,1.424-.328l.443-.148V18.239a12.159,12.159,0,0,0-.1-1.7l-.039-.284h1.847l-.038.283a11.922,11.922,0,0,0-.1,1.65V20.22l1.931-.648V16.607a10.531,10.531,0,0,0-.1-1.548Zm1.26.5h-.692a11.06,11.06,0,0,1,.069,1.331v3.325l-2.931.984V18.188a12.894,12.894,0,0,1,.07-1.433H58.3a13.593,13.593,0,0,1,.069,1.484v2.849l-.783.261a6.97,6.97,0,0,1-1.243.314l.156.591c.229-.1.457-.186,1.166-.427l.7-.224v6.581c0,1.062.39,1.331,3.966,1.331,2.285,0,3.332-.063,3.906-.452.518-.351.66-1.023.761-2.456a3.072,3.072,0,0,1-.585-.213,4.169,4.169,0,0,1-.394,2.021c-.333.479-1.037.6-3.586.6a12.152,12.152,0,0,1-2.8-.162.775.775,0,0,1-.695-.887V21.408l2.931-.984V25.09a12.051,12.051,0,0,1-.068,1.4H62.5a11.968,11.968,0,0,1-.069-1.382v-4.87l3.332-1.144-.01.361a34.37,34.37,0,0,1-.276,4.34c-.093.539-.232.782-.807.782a5.974,5.974,0,0,1-.938-.078,4.121,4.121,0,0,1,.106.514c.254.022.41.033.526.033a2.1,2.1,0,0,0,1.1-.207c.347-.2.544-.884.654-2.283.12-1.466.189-2.592.255-4.147-.308.132-.608.249-1,.375l-2.945.975V16.624A11.931,11.931,0,0,1,62.5,15.276ZM53.6,14.81h1.828l-.035.281a13.8,13.8,0,0,0-.1,1.873v2.283h.226a6.169,6.169,0,0,0,1.309-.08l.3-.063V20.8l-.28-.034a10.291,10.291,0,0,0-1.347-.066H55.3v4.695c.5-.237.831-.41,1.549-.811l.333-.186.155,1.58-.143.08a32.893,32.893,0,0,1-4.413,2.087l-.01,0c-.2.073-.424.173-.6.254l-.334.152-.426-1.727.266-.044a8.7,8.7,0,0,0,2.069-.685V20.7h-.379a6.168,6.168,0,0,0-1.381.1l-.3.057V19.085l.3.066a6.1,6.1,0,0,0,1.375.1h.379v-2.3a13.7,13.7,0,0,0-.1-1.853Zm1.265.5h-.7a15.846,15.846,0,0,1,.07,1.637v2.8h-.879a8.536,8.536,0,0,1-1.178-.054v.562a7.937,7.937,0,0,1,1.178-.056h.879V26.43l-.154.064a11.553,11.553,0,0,1-2.068.731l.154.625c.134-.059.278-.12.42-.171A32.358,32.358,0,0,0,56.8,25.7l-.049-.495c-.647.356-.962.511-1.6.81l-.355.165V20.2h.709c.474,0,.8.011,1.127.04v-.533a9.715,9.715,0,0,1-1.11.041H54.8V16.964A15.274,15.274,0,0,1,54.868,15.31ZM98.289,14.9l.129.155a13.131,13.131,0,0,1,1.782,2.682l.106.208-1.287.772-.118-.25a12.764,12.764,0,0,0-1.707-2.639l-.226-.241Zm1.358,2.856a12.4,12.4,0,0,0-1.485-2.226l-.389.2A14.259,14.259,0,0,1,99.231,18ZM40.846,15.1l.017.284a29.008,29.008,0,0,0,1.179,5.31c.868-.351,1.477-.581,3.876-1.416l.184-.068a7.29,7.29,0,0,0,.877-.362l.244-.122.719,1.82-.288.062a38.887,38.887,0,0,0-5.075,1.636c-2.774,1.1-4.01,2.169-4.01,3.458,0,1.136.747,1.892,4.391,1.892a16.7,16.7,0,0,0,4.778-.564l.3-.107.193,2h-.275a8.683,8.683,0,0,0-1.231.1,34.283,34.283,0,0,1-3.784.222,11.775,11.775,0,0,1-3.862-.475,3.052,3.052,0,0,1-2.27-3.022,3.946,3.946,0,0,1,1.605-3.084,10.242,10.242,0,0,1,2.078-1.309,35.316,35.316,0,0,1-1.18-4.585,5.5,5.5,0,0,0-.273-1.018l-.11-.293Zm.891,6.257-.085-.251a31.868,31.868,0,0,1-1.264-5.41l-.784.149c.051.161.1.368.2.827a34.432,34.432,0,0,0,1.233,4.732l.071.207-.2.1a10.349,10.349,0,0,0-2.181,1.347,3.42,3.42,0,0,0-1.421,2.7,2.564,2.564,0,0,0,1.944,2.553,11.329,11.329,0,0,0,3.688.444,33.851,33.851,0,0,0,3.733-.22c.62-.068.833-.091,1.007-.1L47.6,27.6a18.543,18.543,0,0,1-4.643.5,9.261,9.261,0,0,1-3.674-.514A1.911,1.911,0,0,1,38.068,25.7a2.784,2.784,0,0,1,1.076-2.127,11.18,11.18,0,0,1,3.246-1.794,41.465,41.465,0,0,1,4.87-1.6l-.3-.772c-.188.084-.364.149-.681.267l-.191.071c-2.61.909-3.092,1.1-4.1,1.508ZM90.309,15.12l1.94.218-.091.29a10.077,10.077,0,0,0-.314,1.593c-.049.306-.14.787-.236,1.3l-.062.329c.22-.016.418-.025.7-.025a3.46,3.46,0,0,1,2.622.784,3.662,3.662,0,0,1,.909,2.917c0,2.662-.454,4.958-1.185,5.992a2.029,2.029,0,0,1-1.87.9,6.636,6.636,0,0,1-2.665-.683l-.175-.074.025-.189a3.562,3.562,0,0,0,.032-.579,2.893,2.893,0,0,0-.048-.622l-.081-.488.441.225a6.178,6.178,0,0,0,2.42.755c.116,0,.469,0,.737-.66a12.891,12.891,0,0,0,.7-4.632,2.574,2.574,0,0,0-.39-1.7,1.832,1.832,0,0,0-1.451-.429,8.293,8.293,0,0,0-1.02.065,33.231,33.231,0,0,1-3.659,9.142l-.125.221-1.618-.951.171-.224a24.521,24.521,0,0,0,3.506-8.015,19.493,19.493,0,0,0-3.017.553l-.285.082-.2-1.789.272-.008A33.163,33.163,0,0,0,89.842,19a20.623,20.623,0,0,0,.467-3.381Zm1.289.648-.79-.089a21.732,21.732,0,0,1-.516,3.6l-.038.168-.17.024c-2.167.31-2.941.4-3.514.433l.074.665a26.9,26.9,0,0,1,3.166-.54l.363-.051-.085.357a26.026,26.026,0,0,1-3.515,8.333l.7.41a32.48,32.48,0,0,0,3.521-8.958l.039-.175.178-.019a10.063,10.063,0,0,1,1.251-.086c1.728,0,2.341.688,2.341,2.63a13.381,13.381,0,0,1-.734,4.823c-.325.8-.832.969-1.2.969a5.964,5.964,0,0,1-2.235-.611c0,.073,0,.148,0,.242,0,.177,0,.3-.014.454a5.888,5.888,0,0,0,2.3.571,1.531,1.531,0,0,0,1.462-.693c.664-.94,1.093-3.178,1.093-5.7a3.2,3.2,0,0,0-.755-2.555,3.033,3.033,0,0,0-2.276-.646,9.66,9.66,0,0,0-.981.05l-.328.028.06-.323c.04-.217.082-.437.123-.652.1-.506.186-.984.233-1.279C91.453,16.443,91.527,16.052,91.6,15.769ZM8.913,15.362l.29.046a8.739,8.739,0,0,0,1.473.082h3.162a7.229,7.229,0,0,0,1.232-.064l.139-.024.859.979-.166.166a10.924,10.924,0,0,0-.8.95,15.348,15.348,0,0,1-1.876,1.968c.217.195.39.348.744.663l.2.174-.4.409H14.6a7.229,7.229,0,0,0,1.232-.064l.146-.026.763.948-.089.149a16.8,16.8,0,0,1-2.426,3.406l-.171.189-.186-.175a3.217,3.217,0,0,0-.8-.558l-.089-.049v4.249c0,1.268-.727,1.508-2.069,1.508a15.653,15.653,0,0,1-1.6-.086l-.2-.019-.021-.2a3.6,3.6,0,0,0-.24-1.077L8.692,28.5l.427.071a11.678,11.678,0,0,0,1.9.218,1.138,1.138,0,0,0,.4-.037.4.4,0,0,0,.009-.1V22.178H10.268a8.456,8.456,0,0,0-1.423.082l-.174.028c.007.132.016.251.027.365l.03.318-.316-.047a10.784,10.784,0,0,0-1.476-.065H5.69v1.4H7.157A8.739,8.739,0,0,0,8.6,24.18l.287-.042v1.685L8.6,25.779A8.739,8.739,0,0,0,7.157,25.7H5.69v1.7c.877-.157,1.552-.3,3.007-.642l.3-.071.026,1.447-.2.046c-2.429.575-3.962.877-6.309,1.245a11.279,11.279,0,0,0-1.285.267l-.25.065-.4-1.764H.9a20.354,20.354,0,0,0,3.32-.354V25.7H2.771a8.827,8.827,0,0,0-1.441.082l-.288.044V24.132l.291.049a8.688,8.688,0,0,0,1.438.082h1.45v-1.4H3.094a11.637,11.637,0,0,0-1.529.065l-.326.047.043-.326a13.224,13.224,0,0,0,.066-1.583V17.236A12.451,12.451,0,0,0,1.282,15.7l-.037-.31.31.031a15.073,15.073,0,0,0,1.556.067H6.919a11.119,11.119,0,0,0,1.5-.066l.31-.04-.028.311c-.035.38-.05.855-.05,1.541V20.6l.2.032a8.136,8.136,0,0,0,1.423.082H12.4a15.263,15.263,0,0,0-2.86-2.225l-.254-.161L10.3,17.233l.177.118c.78.52,1.14.782,1.658,1.193a13.087,13.087,0,0,0,1.571-1.6H10.625a8.89,8.89,0,0,0-1.423.082l-.29.046Zm6.474,1-.371-.423a9.1,9.1,0,0,1-1.178.05H10.676a11.334,11.334,0,0,1-1.263-.049v.55a11.112,11.112,0,0,1,1.212-.049h4.121l-.321.405A14.308,14.308,0,0,1,12.3,19.06l-.157.131-.16-.128c-.556-.445-.89-.7-1.608-1.178l-.314.338A15,15,0,0,1,13.083,20.7l.359-.369c-.316-.281-.471-.419-.758-.677l-.208-.187.209-.186a15.536,15.536,0,0,0,2.027-2.094C15.129,16.671,15.288,16.476,15.387,16.363ZM6.919,15.99H3.111c-.507,0-.914-.013-1.3-.042.028.34.039.725.039,1.288v3.825c0,.571-.012,1-.038,1.333.313-.025.72-.036,1.284-.036H4.721v2.4H2.771a11.229,11.229,0,0,1-1.229-.048v.533a11,11,0,0,1,1.229-.05h1.95v2.86l-.211.034a25.081,25.081,0,0,1-3.3.39l.148.655c.313-.078.565-.129,1.082-.213,2.3-.36,3.748-.644,6.076-1.191l-.008-.424c-1.41.331-2.051.458-3.028.629l-.293.051V25.2H7.157a10.541,10.541,0,0,1,1.229.05v-.535a10.541,10.541,0,0,1-1.229.05H5.19v-2.4H6.936c.553,0,.941.011,1.24.036-.02-.329-.028-.726-.028-1.3V17.236c0-.533.009-.943.029-1.283C7.861,15.98,7.495,15.99,6.919,15.99Zm9.216,5.619-.361-.449a9.19,9.19,0,0,1-1.171.049H10.268a10.378,10.378,0,0,1-1.212-.048v.566a10.8,10.8,0,0,1,1.212-.049h1.661v6.965c0,.641-.506.641-.913.641a9.994,9.994,0,0,1-1.571-.158,4,4,0,0,1,.113.6c.609.054.988.065,1.355.065,1.427,0,1.569-.292,1.569-1.008v-7.1h3.108l-.23.38a9.6,9.6,0,0,1-1.753,2.25,3.122,3.122,0,0,1,.415.294A15.818,15.818,0,0,0,16.135,21.609Zm-1.436.569H12.983v2.034l.037-.035A8.919,8.919,0,0,0,14.7,22.178ZM2.283,16.408H4.721v2.523H2.283Zm1.938.5H2.783v1.523H4.221Zm.969-.5H7.713v2.523H5.19Zm2.023.5H5.69v1.523H7.213Zm69.955-.126h4.937v1.741H77.168Zm4.437.5H77.668v.741h3.937Zm-11.287.279.1.189a14.537,14.537,0,0,1,1.138,2.794l.07.223-1.344.527-.073-.269a11.559,11.559,0,0,0-1.068-2.771L69,17.991Zm.688,2.91a13.42,13.42,0,0,0-.938-2.3l-.351.115a11.556,11.556,0,0,1,.9,2.342Zm26.508-2.679.13.139a15.812,15.812,0,0,1,3.609,6.113l.062.194-1.548.871-.082-.314a14.174,14.174,0,0,0-3.4-5.988l-.243-.24Zm3.2,6.211a15.289,15.289,0,0,0-3.305-5.59l-.536.282a14.7,14.7,0,0,1,3.211,5.663ZM77.168,18.8h4.937V20.58H77.168Zm4.437.5H77.668v.775h3.937Zm-79.322.01H4.721v2.659H2.283Zm1.938.5H2.783v1.659H4.221Zm.969-.5H7.713v2.659H5.19Zm2.023.5H5.69v1.659H7.213ZM10.864,43.44l1.629.356-.128.282c-.172.378-.29.626-.413.871H13.26a12.178,12.178,0,0,0,1.6-.066l.311-.042-.028.313c-.036.4-.05.775-.05,1.354v2.227c0,.61.014,1.009.05,1.423l.025.283-.284-.011C14.473,50.413,14,50.4,13.5,50.4H9.668v.656H14.79a7.66,7.66,0,0,0,1.339-.082l.288-.044v1.587l-.289-.046a9.161,9.161,0,0,0-1.355-.065h-5.1v.673h4.9a12.8,12.8,0,0,0,1.348-.049l.279-.033v.281a.675.675,0,0,1-.023.215c-.007.064-.013.16-.03.471-.011.2-.026.479-.05.893a8.834,8.834,0,0,1-.719,3.725l0,.005a1.788,1.788,0,0,1-1.686.7,15.056,15.056,0,0,1-1.713-.138l-.212-.025-.009-.213a2.205,2.205,0,0,0-.217-.947l-.043-.1-.231.067-.034-.295a10.719,10.719,0,0,0-.534-2.553l-.084-.261,1.253-.278.071.214a12.851,12.851,0,0,1,.6,2.573l.034.217-.438.128a8.67,8.67,0,0,0,1.516.175c.356,0,.534-.041.706-.969a16.18,16.18,0,0,0,.228-2.441H13.4l.056.118a12.283,12.283,0,0,1,.795,2.038l.069.22-1.226.5-.072-.277a9.433,9.433,0,0,0-.715-2.031l-.118-.253.93-.317H9.639a8.539,8.539,0,0,0-1.229.049l-.318.037.041-.317A11.923,11.923,0,0,0,8.2,52.7V46.562a17.113,17.113,0,0,1-1.5,3.668l-.114.215-1.23-.615.121-.226a13.848,13.848,0,0,0,1.389-3.77l.076-.3,1.257.617a7.853,7.853,0,0,0-.063-.986l-.039-.274L7.8,45.02A18.765,18.765,0,0,1,4.7,46.1l.075.182a14.992,14.992,0,0,1,.812,2.606l.05.216-1.269.457h.982l-.03.277c-.041.382-.048.534-.059.879h.949a6.731,6.731,0,0,0,1.313-.081l.3-.057v1.661l-.3-.06c-.028-.006-.055-.009-.078-.012a.707.707,0,0,1-.118-.022,2.263,2.263,0,0,0-.334-.012H6.976L6.183,52.1H5.2c-.021.385-.04.64-.085.979h1.14a7.524,7.524,0,0,0,1.337-.082l.29-.046v1.563l1.182.4-.008-.045,1.315-.192.041.24a19.358,19.358,0,0,1,.292,3.213l.007.2L9.3,58.676v-.319c0-.126.006-.239.011-.33,0-.059.006-.11.006-.146A14.443,14.443,0,0,0,9.1,55.122l-.017-.093-.017.1A10.824,10.824,0,0,1,7.8,58.955l-.125.223-1.311-.771.14-.219a7.229,7.229,0,0,0,.76-1.539,2.805,2.805,0,0,0-.546.851l-.142.283-.243-.2a8.021,8.021,0,0,1-1.8-2.023,7.013,7.013,0,0,1-3.105,3.707l-.235.154-.126-.251a2.448,2.448,0,0,0-.632-.752L.151,58.18.475,58a5.8,5.8,0,0,0,2.094-1.747,4.61,4.61,0,0,0,.852-1.779H2.4a7.975,7.975,0,0,0-1.356.082L.753,54.6V52.945l.291.049a7.4,7.4,0,0,0,1.336.082H3.688c.032-.286.063-.608.082-.979h-.9a7.62,7.62,0,0,0-1.337.082l-.29.046V50.572l.3.06a6.621,6.621,0,0,0,1.311.08h.956a5.256,5.256,0,0,0-.063-.863L3.7,49.556h.6L4.244,49.3a12.824,12.824,0,0,0-.8-2.574l-.11-.258.88-.259c-.808.177-1.7.322-2.8.463L1.2,46.7l-.062-.2a2.51,2.51,0,0,0-.455-.86l-.276-.375.465-.023A14.4,14.4,0,0,0,6.9,43.782l.186-.121,1,1.208,0-.031.328.045a11.982,11.982,0,0,0,1.564.066h.373a5.913,5.913,0,0,0,.455-1.271Zm.917.712-.549-.12a6.363,6.363,0,0,1-.5,1.281l-.07.135H9.979c-.591,0-.995-.011-1.315-.036.024.279.035.609.035,1.027V52.7c0,.55-.011.945-.037,1.268.269-.022.491-.022.977-.022H15.1l0,.254a17.429,17.429,0,0,1-.243,2.782c-.169.91-.4,1.374-1.2,1.374a8.653,8.653,0,0,1-1.5-.165,2.436,2.436,0,0,1,.088.49,13.285,13.285,0,0,0,1.446.11c.782,0,1.067-.185,1.271-.483a8.667,8.667,0,0,0,.639-3.478c.024-.415.039-.7.05-.894s.017-.307.022-.383c-.278.018-.636.026-1.1.026h-5.4V51.9h5.6c.506,0,.864.011,1.144.036V51.5a9.3,9.3,0,0,1-1.127.049H9.168V49.9H13.5c.4,0,.778.011,1.124.023-.022-.338-.031-.7-.031-1.184V46.508c0-.449.008-.783.028-1.1-.324.027-.734.037-1.359.037H11.131l.191-.366C11.488,44.763,11.608,44.526,11.781,44.153Zm-4.487.54-.311-.375a14.93,14.93,0,0,1-5.645,1.393,2.557,2.557,0,0,1,.21.438A19.911,19.911,0,0,0,7.295,44.693Zm.41,1.775-.433-.213a13.78,13.78,0,0,1-1.236,3.356l.335.167A16.2,16.2,0,0,0,7.7,46.468Zm-2.66,2.311a13.916,13.916,0,0,0-.652-2.1l-.382.112a12.665,12.665,0,0,1,.659,2.126ZM4.79,50.056H4.281c.023.231.032.509.032.906v.25H2.856a9.82,9.82,0,0,1-1.11-.043v.475A9.553,9.553,0,0,1,2.873,51.6H4.286l-.008.257c-.017.577-.068,1.063-.121,1.5l-.026.22H2.38a9.586,9.586,0,0,1-1.127-.047v.5A9.633,9.633,0,0,1,2.4,53.976H4.055l-.071.307a5.352,5.352,0,0,1-1.013,2.269,5.96,5.96,0,0,1-1.953,1.716,2.916,2.916,0,0,1,.356.431,6.4,6.4,0,0,0,2.858-3.815l.171-.56.286.511a7.4,7.4,0,0,0,1.727,2.157,2.886,2.886,0,0,1,.3-.48,6.3,6.3,0,0,1-1.957-2.164l-.206-.371h1.7a4.835,4.835,0,0,1,.621.017,1.682,1.682,0,0,1,.2.016h.008a2.348,2.348,0,0,1,.3.011v-.494a9.445,9.445,0,0,1-1.127.048H4.537l.044-.287a12.238,12.238,0,0,0,.134-1.455l.012-.237H6.2l.794.034a2.908,2.908,0,0,1,.323.009v-.471a9.591,9.591,0,0,1-1.11.044H4.74l.013-.412C4.763,50.478,4.768,50.309,4.79,50.056Zm2.967,4.528-.164-.026a2.263,2.263,0,0,0-.522-.048.449.449,0,0,1-.061-.005,1.183,1.183,0,0,0-.16-.012H6.82l-.03-.007c-.051-.01-.286-.01-.534-.01H5.421a6.188,6.188,0,0,0,1.812,1.79l.128.09a12.86,12.86,0,0,0,.366-1.595ZM13.7,56.53a10.727,10.727,0,0,0-.6-1.553l-.224.076a8.938,8.938,0,0,1,.557,1.588Zm-1.69.663a11.7,11.7,0,0,0-.48-2.062l-.278.062a10.325,10.325,0,0,1,.437,2.093ZM8.541,55.261l-.373-.127a8.621,8.621,0,0,1-1.1,3.1l.424.249A10.088,10.088,0,0,0,8.541,55.261Zm1.657,2.68a18.059,18.059,0,0,0-.238-2.7l-.319.047a15.53,15.53,0,0,1,.18,2.595c0,.044,0,.1-.006.155ZM43.49,43.674h1.952l-.042.286A14.357,14.357,0,0,0,45.283,46v3.065h2.98a14.625,14.625,0,0,0,1.871-.1l.283-.038V50.75l-.279-.033a15.748,15.748,0,0,0-1.875-.1h-2.98v6.295a15.234,15.234,0,0,0,.116,2.124l.041.285H43.489l.038-.283a15.445,15.445,0,0,0,.117-2.126V50.617H41.293a14.527,14.527,0,0,0-1.8.1l-.281.035V48.928l.281.035a13.762,13.762,0,0,0,1.8.1h2.351V46.015a15.382,15.382,0,0,0-.117-2.058Zm1.378.5h-.811a17,17,0,0,1,.087,1.841v3.548H41.293a14.868,14.868,0,0,1-1.586-.072v.7a15.816,15.816,0,0,1,1.586-.072h2.851v6.795a17.168,17.168,0,0,1-.086,1.909h.811a17.452,17.452,0,0,1-.085-1.909V50.117h3.48c.6,0,1.142.024,1.654.074v-.7c-.466.047-1.021.071-1.654.071h-3.48V46A16.5,16.5,0,0,1,44.868,44.174Zm-20.477-.483h1.986l-.052.294a7.429,7.429,0,0,0-.115,1.5v4.051H30.18V46.576a8.925,8.925,0,0,0-.066-1.209l-.037-.282h1.847l-.039.284a8.108,8.108,0,0,0-.083,1.258V50.01c0,.293.013.506.028.752l.022.378-.278-.014c-.314-.016-.716-.034-1.042-.034H26.209v5.722h4.566v-2.98a8.891,8.891,0,0,0-.082-1.423l-.046-.289h1.877l-.044.288a9.3,9.3,0,0,0-.082,1.475v3.842a8.213,8.213,0,0,0,.1,1.39l.044.288H30.775v-1.02H20.225v1.02H18.458l.046-.289a8.637,8.637,0,0,0,.1-1.389v-3.74a9.333,9.333,0,0,0-.082-1.473l-.046-.29h1.878l-.046.29a8.216,8.216,0,0,0-.082,1.405v2.9H24.57V51.093h-4c-.294,0-.674.016-1.042.034l-.276.013.023-.431c.014-.249.025-.465.025-.7V46.644a11.778,11.778,0,0,0-.084-1.282l-.03-.277h1.841l-.041.285a8.467,8.467,0,0,0-.065,1.223v2.946H24.57V45.488a6.728,6.728,0,0,0-.113-1.494Zm1.393.5H25a8.773,8.773,0,0,1,.069,1.3v4.551H20.422V46.593c0-.418.011-.732.037-1.008h-.717c.036.37.058.706.058,1.059V50.01c0,.208-.008.4-.019.6.283-.012.56-.022.789-.022h4.5v6.722H19.725v-3.4a10.428,10.428,0,0,1,.049-1.195h-.72a11.825,11.825,0,0,1,.05,1.263v3.74a9.849,9.849,0,0,1-.065,1.178h.687v-1.02h11.55v1.02h.687a9.129,9.129,0,0,1-.064-1.178V53.886a11.463,11.463,0,0,1,.05-1.263h-.721a11.112,11.112,0,0,1,.049,1.212v3.48H25.709V50.593h4.823c.245,0,.529.01.788.021-.01-.183-.018-.372-.018-.6V46.627a8.723,8.723,0,0,1,.052-1.042h-.712c.027.291.039.6.039.991v3.463H25.709V45.488A8.588,8.588,0,0,1,25.784,44.191Zm10.771-.417.175.106a21.094,21.094,0,0,1,3.127,2.268l.178.153-1.013,1.334-.2-.2a13.8,13.8,0,0,0-3.077-2.324l-.267-.156Zm2.8,2.6a20.191,20.191,0,0,0-2.707-1.96l-.384.42a13.922,13.922,0,0,1,2.709,2.044Zm124.1-2.438,1.663,1.235-.248.2c-.181.148-.335.284-2.076,1.959a50.531,50.531,0,0,1-3.931,3.231c-.592.448-.65.538-.65.652,0,.177.146.31,1.416,1.3a50.169,50.169,0,0,1,5.458,4.657l0,0a3.626,3.626,0,0,0,.37.338l.087.071.216.176-1.479,1.456-.17-.241a16.074,16.074,0,0,0-2.158-2.29c-1.126-1.042-1.807-1.6-4.285-3.54-.913-.717-1.32-1.161-1.32-1.9a1.9,1.9,0,0,1,.562-1.311l0,0a13.127,13.127,0,0,1,1.47-1.178,26.963,26.963,0,0,0,4.922-4.594Zm.858,1.26-.733-.545a29.858,29.858,0,0,1-4.887,4.5,13.256,13.256,0,0,0-1.418,1.132,1.406,1.406,0,0,0-.422.964c0,.435.157.74,1.128,1.5,2.491,1.945,3.177,2.512,4.316,3.566a18.509,18.509,0,0,1,2.053,2.132l.668-.657c-.067-.058-.144-.13-.277-.263a49.8,49.8,0,0,0-5.418-4.622c-1.4-1.086-1.611-1.253-1.611-1.695,0-.375.22-.574.847-1.049a50.139,50.139,0,0,0,3.89-3.2C163.625,45.842,164.082,45.409,164.314,45.2ZM77.152,44.016l.037.244a5.282,5.282,0,0,0,.479,1.477c.325.867.422,1.092.524,1.309a19.4,19.4,0,0,0,3.871-1.023l.3-.128.249,1.766-.234.045c-.348.066-.477.1-.985.234-1,.267-1.223.323-2.313.531l-.261.054a32.4,32.4,0,0,0,2.9,4.616l.171.227-1.535.871-.133-.108a3.179,3.179,0,0,0-1.1-.654,8.924,8.924,0,0,0-2.894-.429,5.833,5.833,0,0,0-3.1.676,1.689,1.689,0,0,0-.8,1.369,1.447,1.447,0,0,0,.553,1.131,5.576,5.576,0,0,0,3.158.727,11.028,11.028,0,0,0,4.713-1.06l.313-.163.265,1.858-.189.07a14.425,14.425,0,0,1-5.085.934c-2.131,0-3.765-.48-4.6-1.352a3,3,0,0,1-.835-2.043,3.417,3.417,0,0,1,2.062-3,7.463,7.463,0,0,1,3.407-.654,11,11,0,0,1,2.837.339,20.9,20.9,0,0,1-1.58-2.695c-.086-.165-.134-.264-.169-.336l-.033-.068a51,51,0,0,1-5.912.421,3.216,3.216,0,0,0-.554.038l-.347.046-.1-1.818.3.047a7.2,7.2,0,0,0,1.271.082,39.785,39.785,0,0,0,4.7-.311c-.217-.509-.446-1.081-.7-1.726-.18-.426-.283-.665-.434-.967l-.156-.311ZM77.9,47.6l-.118-.249a14.906,14.906,0,0,1-.583-1.437,7.708,7.708,0,0,1-.466-1.337l-.763.106c.09.2.177.4.3.688.311.778.578,1.446.831,2.02l.134.3-.328.045a40.206,40.206,0,0,1-5.1.359,8.59,8.59,0,0,1-1.043-.046l.037.67a3.789,3.789,0,0,1,.428-.019,50,50,0,0,0,6.017-.44l.164-.023.085.142a2.707,2.707,0,0,1,.133.25c.034.069.08.164.163.324a20.447,20.447,0,0,0,2.02,3.3l-.318.369a8.252,8.252,0,0,0-3.4-.583,7,7,0,0,0-3.188.6,2.924,2.924,0,0,0-1.781,2.547,2.5,2.5,0,0,0,.7,1.7c.738.77,2.244,1.2,4.237,1.2a13.876,13.876,0,0,0,4.722-.834l-.11-.768a11.663,11.663,0,0,1-4.629.963,5.946,5.946,0,0,1-3.469-.835l-.006,0a1.959,1.959,0,0,1-.736-1.518A2.171,2.171,0,0,1,72.864,53.3a6.3,6.3,0,0,1,3.364-.753A9.535,9.535,0,0,1,79.282,53l.005,0a3.405,3.405,0,0,1,1.113.631l.745-.423a31.4,31.4,0,0,1-2.917-4.764l-.133-.288.311-.062.576-.119c1.08-.206,1.278-.256,2.282-.524.389-.1.567-.15.787-.2l-.093-.657a21.6,21.6,0,0,1-3.87.967Zm48.5-3.5h2.016l-.046.289a6.46,6.46,0,0,0-.082,1.032V46.9h3.337c1.061,0,1.086,0,1.349-.089l.143-.047.947.9-.1.17c-.131.232-.131.232-.345,1.632a10.829,10.829,0,0,1-3.152,6.349A13.493,13.493,0,0,1,125.4,58.7l-.211.07-.094-.2a3.247,3.247,0,0,0-.739-1.092l-.284-.306.4-.106a11.026,11.026,0,0,0,3.681-1.615,8.235,8.235,0,0,0,2.662-2.949,11.02,11.02,0,0,0,1.145-4.023h-8.755v2.3a11.966,11.966,0,0,0,.05,1.232l.029.276h-1.953L121.37,52c.032-.273.066-.8.066-1.246v-2.3a10.8,10.8,0,0,0-.066-1.346l-.039-.31.311.03a14.344,14.344,0,0,0,1.54.067h3.354V45.437a5.1,5.1,0,0,0-.082-1.047Zm1.436.5h-.85a5.792,5.792,0,0,1,.044.838V47.4h-3.854c-.524,0-.886-.011-1.284-.042.026.311.038.664.038,1.1v2.3c0,.339-.019.728-.043,1.025h.847c-.019-.281-.029-.609-.029-1.008v-2.8h9.806l-.026.273c-.328,3.505-1.615,5.924-4.051,7.611A11.158,11.158,0,0,1,125,57.438a3.121,3.121,0,0,1,.457.713,12.854,12.854,0,0,0,4.68-2.7,10.34,10.34,0,0,0,3-6.062,7.649,7.649,0,0,1,.312-1.627l-.454-.432a5.248,5.248,0,0,1-1.362.07h-3.837V45.42A6.874,6.874,0,0,1,127.842,44.6Zm-36.9-.3.211.119a20.191,20.191,0,0,0,5.679,1.858l.31.048-.674,1.686-.213-.055a26.377,26.377,0,0,1-3.337-.976A19.075,19.075,0,0,1,90.3,45.9l-.254-.117Zm5.5,2.419a21.457,21.457,0,0,1-5.326-1.749l-.36.594a17.176,17.176,0,0,0,2.323.944,24.428,24.428,0,0,0,3.083.908Zm8.621-2.267,1.9.289-.1.284a24.062,24.062,0,0,0-.706,2.692,24.854,24.854,0,0,0-.5,5.267c0,.592.007,1.129.021,1.626.182-.555.41-1.134.707-1.811l.1-.237,1.27.609-.1.223a14.7,14.7,0,0,0-1.355,4.572v.485l-1.692.141-.03-.238c-.025-.2-.04-.295-.068-.467-.009-.057-.02-.123-.032-.2a24.522,24.522,0,0,1-.445-4.852,28.479,28.479,0,0,1,.771-6.786,9.23,9.23,0,0,0,.233-1.327Zm1.238.694-.79-.12c-.033.266-.086.517-.215,1.125a28.031,28.031,0,0,0-.76,6.68,24.082,24.082,0,0,0,.438,4.767V57.6c.013.08.023.146.033.2.015.093.027.166.039.247l.758-.063v-.025a14.535,14.535,0,0,1,1.3-4.555l-.362-.174a15.064,15.064,0,0,0-.986,3.028l-.494-.032c-.07-.928-.1-1.961-.1-3.249a25.324,25.324,0,0,1,.515-5.37C105.9,46.613,106.09,45.831,106.31,45.147Zm71.063-.317H179.6l-.021.27c-.053.672-.085,1.166-.1,1.856l-.136,6.052c-.017.711-.017.711-.017.776,0,.28.014.565.05,1.017l.022.27h-1.8l.017-.266c.033-.519.033-.635.033-1.191V53l-.153-6.048c-.017-.7-.033-1.2-.1-1.85Zm1.691.5h-1.138c.048.544.063,1.024.077,1.614L178.155,53v.612c0,.461,0,.627-.018.957h.723c-.022-.319-.031-.554-.031-.787,0-.071,0-.071.017-.788l.136-6.052C179,46.338,179.022,45.882,179.063,45.33Zm-113.048.31.149,1.832h-.271a6.854,6.854,0,0,0-1.84.23,8.116,8.116,0,0,0-3.165,1.648,4.924,4.924,0,0,0-2,3.737A3.1,3.1,0,0,0,61.1,56a8.47,8.47,0,0,0,2.461.528h.463l-.308,1.919-.251-.046c-.077-.014-.129-.025-.184-.037-.079-.017-.16-.034-.34-.064a8.845,8.845,0,0,1-3.772-1.349,4.34,4.34,0,0,1-2-3.674,5.623,5.623,0,0,1,.868-2.963,8.18,8.18,0,0,1,2.421-2.463c.138-.093.27-.178.4-.258-.64.066-1.388.122-2.366.187a56.219,56.219,0,0,0-5.821.554l-.291.073-.122-1.923.28.015c.316.017.48.017.6.017.186,0,.355-.011.693-.033l.26-.017.508-.037c.57-.042.982-.073,2.639-.167l2.667-.17,1.132-.065c1.082-.062,1.308-.075,1.749-.089l.965-.034a11.694,11.694,0,0,0,1.966-.178Zm-.393,1.336-.058-.71c-.276.04-.746.075-1.782.135h-.006l-.969.034c-.436.013-.66.026-1.736.088l-1.131.065-2.667.17c-1.654.094-2.064.125-2.632.167l-.511.037-.261.017c-.348.023-.523.035-.726.035-.079,0-.185,0-.345-.005l.049.779c.786-.135,2.488-.288,5.616-.508a34.821,34.821,0,0,0,3.714-.371l.15.472a10.817,10.817,0,0,0-1.582.882,6.19,6.19,0,0,0-3.069,5.012,3.855,3.855,0,0,0,1.777,3.261,8.292,8.292,0,0,0,3.574,1.27c.13.022.214.038.279.051l.134-.832a9.271,9.271,0,0,1-2.513-.557,3.58,3.58,0,0,1-2.544-3.38,5.474,5.474,0,0,1,2.18-4.119,8.628,8.628,0,0,1,3.363-1.751A7.169,7.169,0,0,1,65.621,46.976Zm85.162-1.206.975,1.161-.162.162a4.617,4.617,0,0,0-.648.861,26.209,26.209,0,0,1-5.457,6.264c.64.715,1.349,1.629,2.319,2.917l.143.19-1.439,1.2-.152-.243a31.9,31.9,0,0,0-6.575-7.248l-.242-.2,1.337-1.069.157.13a36.145,36.145,0,0,1,3.308,3.065c.631-.537,1.456-1.282,2.064-1.922a24.582,24.582,0,0,0,2.657-3.459c-.741.007-2.808.01-9.241.022-.9,0-1.375.016-1.95.067l-.272.024v-1.9l.285.041a12.068,12.068,0,0,0,1.954.1h9.911a1.829,1.829,0,0,0,.864-.1Zm.3,1.137-.46-.548a2.747,2.747,0,0,1-.871.076h-9.911a14.3,14.3,0,0,1-1.739-.067v.787c.482-.035.948-.047,1.722-.047,9.371-.017,9.462-.017,9.689-.033l.509-.036-.283.424c-.027.041-.047.069-.063.093s-.039.056-.066.1a25,25,0,0,1-2.838,3.732A30.136,30.136,0,0,1,144.49,53.5l-.177.149-.162-.165a36.8,36.8,0,0,0-3.275-3.065l-.534.428a32.721,32.721,0,0,1,6.29,6.934l.636-.532c-.976-1.294-1.68-2.191-2.323-2.885l-.182-.2.208-.168a25.646,25.646,0,0,0,5.557-6.316A6.932,6.932,0,0,1,151.085,46.907ZM9.168,45.782H14.1v1.741H9.168Zm4.437.5H9.668v.741H13.6Zm102.886-.06L116.616,48h-.261c-.042,0-.252.029-1.146.151a29.007,29.007,0,0,1-3.689.223,22.971,22.971,0,0,1-2.747-.171l-.226-.024.025-1.752.307.079a11.244,11.244,0,0,0,2.828.247,18.029,18.029,0,0,0,4.491-.45Zm-.409,1.306-.047-.671a19.637,19.637,0,0,1-4.328.394,13.139,13.139,0,0,1-2.644-.192l-.009.669a21.439,21.439,0,0,0,2.467.145,28.482,28.482,0,0,0,3.621-.219C115.626,47.588,115.912,47.55,116.082,47.528ZM2.317,46.561l.1.189a14.537,14.537,0,0,1,1.138,2.794l.07.223-1.344.527-.073-.269a11.56,11.56,0,0,0-1.068-2.771L1,46.991Zm.688,2.91a13.42,13.42,0,0,0-.938-2.3l-.351.115a11.557,11.557,0,0,1,.9,2.342Zm85.753-2.227,1.854.122-.087.3a13.969,13.969,0,0,0-.384,1.841c-.191,1.153-.3,1.8-.367,2.188-.039.227-.063.372-.082.488l.044-.037.006,0a8.7,8.7,0,0,1,5.065-1.514,5.9,5.9,0,0,1,3.463.942,3.087,3.087,0,0,1,1.343,2.589,3.864,3.864,0,0,1-1.635,3.127A7.3,7.3,0,0,1,93.6,58.454a14.448,14.448,0,0,1-3.028-.312l-.01,0c-.321-.084-.321-.084-1.356-.339l-.213-.052.024-.218a2.423,2.423,0,0,0,.015-.3,3.674,3.674,0,0,0-.113-1l-.108-.47.446.182a11.83,11.83,0,0,0,4.241.831c2.636,0,4.34-1.023,4.34-2.606,0-1.246-1.111-1.96-3.048-1.96a7.94,7.94,0,0,0-4.612,1.431,2.718,2.718,0,0,0-.63.648l-.077.1-1.74-.045.047-.284c.043-.259.061-.4.109-.791l.025-.2c.177-1.343.487-3.329.715-4.7a5.548,5.548,0,0,0,.116-.874Zm1.2.58-.737-.049c-.017.186-.045.355-.1.681-.227,1.364-.536,3.343-.712,4.679l-.025.2c-.029.234-.048.385-.068.528l.916.023a2.987,2.987,0,0,1,.65-.644,8.451,8.451,0,0,1,4.91-1.529c2.222,0,3.548.92,3.548,2.46,0,1.887-1.9,3.106-4.84,3.106a12.441,12.441,0,0,1-4-.706,4.38,4.38,0,0,1,.039.66c0,.035,0,.077,0,.131.83.2.856.211,1.153.289a13.946,13.946,0,0,0,2.916.3,6.825,6.825,0,0,0,4.089-1.076,3.362,3.362,0,0,0,1.424-2.72c0-1.841-1.69-3.031-4.306-3.031a8.187,8.187,0,0,0-4.758,1.408,4.576,4.576,0,0,0-.5.484l-.127.137-.376-.188.042-.191c.008-.035.015-.064.021-.09a1.405,1.405,0,0,0,.042-.267v-.012c.028-.213.051-.349.127-.8.066-.387.176-1.034.367-2.185C89.775,48.655,89.855,48.24,89.964,47.825Zm-80.8-.02H14.1V49.58H9.168Zm4.437.5H9.668v.775H13.6Zm21.708-.462.187.088a25.029,25.029,0,0,1,3.482,1.955l.21.137-.931,1.421-.214-.165a15.551,15.551,0,0,0-3.388-2.029l-.273-.129ZM38.5,50.168a23.913,23.913,0,0,0-3.024-1.7l-.331.456a15.337,15.337,0,0,1,2.993,1.792Zm27.387-2.143.132.161A13.991,13.991,0,0,1,67.8,50.88l.113.215-1.3.726-.114-.244a13.283,13.283,0,0,0-1.7-2.613l-.2-.233ZM67.24,50.9a13.1,13.1,0,0,0-1.478-2.233l-.386.213a14.09,14.09,0,0,1,1.458,2.248Zm-3.274-1.933.129.155A13.131,13.131,0,0,1,65.877,51.8l.107.21-1.309.77-.115-.253a11.774,11.774,0,0,0-1.686-2.632l-.233-.241Zm1.357,2.854a12.4,12.4,0,0,0-1.484-2.224l-.387.2A13.319,13.319,0,0,1,64.9,52.07Zm44.661-.866,1.39.758-.214.235a3.731,3.731,0,0,0-1.21,2.331c0,.4,0,1.62,3.014,1.62a11.009,11.009,0,0,0,3.816-.577l.3-.122.246,1.892-.263.02a2.762,2.762,0,0,0-.3.039c-.066.011-.148.025-.269.043a17.81,17.81,0,0,1-3.528.344c-2.007,0-3.306-.439-4.086-1.383a2.646,2.646,0,0,1-.567-1.723,4.913,4.913,0,0,1,1.541-3.326Zm.6.9-.483-.263a4.3,4.3,0,0,0-1.287,2.846,2.163,2.163,0,0,0,.455,1.408c.675.816,1.851,1.2,3.7,1.2A17.319,17.319,0,0,0,116.4,56.7l.012,0c.12-.018.2-.032.266-.043l.086-.014-.1-.747a12.159,12.159,0,0,1-3.7.5,5.258,5.258,0,0,1-2.579-.5,1.759,1.759,0,0,1-.935-1.624A3.9,3.9,0,0,1,110.582,51.848Zm-72.308.62,1.29,1.042-.084.178a31.078,31.078,0,0,1-2.759,4.832l0,.007a4.58,4.58,0,0,0-.3.435l-.058.092-.164.258-1.424-1.374.247-.174a5.228,5.228,0,0,0,1.029-1.183,21.271,21.271,0,0,0,2.1-3.815Zm.669,1.183-.479-.387a20.961,20.961,0,0,1-2.016,3.607,7.551,7.551,0,0,1-.916,1.111l.564.545c.051-.075.115-.165.219-.3A30.163,30.163,0,0,0,38.942,53.651Zm138.492,2.5h2.149v2.1h-2.149Zm1.649.5h-1.149v1.1h1.149Z" transform="matrix(0.978, -0.208, 0.208, 0.978, 1063.417, 1626.997)" fill="#fff"/><path d="M0,75.649H-.006A1,1,0,0,1-1,74.643,75.116,75.116,0,0,1,.594,61.686a107.5,107.5,0,0,1,10.8-29.937c6.3-11.665,11.435-19.835,14.634-24.635C29.5,1.893,31.465-.53,31.546-.631a1,1,0,0,1,1.407-.145A1,1,0,0,1,33.1.631c-.028.034-2.009,2.486-5.437,7.632C24.491,13.022,19.4,21.125,13.15,32.7A105.5,105.5,0,0,0,2.556,62.075,74.462,74.462,0,0,0,1,74.654,1,1,0,0,1,0,75.649Z" transform="translate(1250.311 1563.099) rotate(-8)" fill="#fff"/><path d="M0,53.311H0a1,1,0,0,1-1-1A62.517,62.517,0,0,1-.06,43.2a86.02,86.02,0,0,1,6.368-21.03C13.416,6.491,18-.283,18.19-.564a1,1,0,0,1,1.39-.262,1,1,0,0,1,.262,1.39c-.057.084-4.7,6.958-11.712,22.43A83.991,83.991,0,0,0,1.913,43.527,61.6,61.6,0,0,0,1,52.315,1,1,0,0,1,0,53.311Z" transform="translate(1273.007 1578.968) rotate(6)" fill="#fff"/><path d="M32.322,75.649a1,1,0,0,1-1-.994,74.868,74.868,0,0,0-1.568-12.638A104.6,104.6,0,0,0,26.14,48.638,105.6,105.6,0,0,0,19.172,32.7C7.2,10.522-.7.727-.776.631A1,1,0,0,1-.631-.776,1,1,0,0,1,.776-.631C.858-.53,2.819,1.893,6.3,7.114c3.2,4.8,8.334,12.97,14.634,24.635a107.6,107.6,0,0,1,7.113,16.28,106.574,106.574,0,0,1,3.682,13.657,75.118,75.118,0,0,1,1.594,12.958,1,1,0,0,1-.994,1.006Z" transform="matrix(0.921, -0.391, 0.391, 0.921, 1011.969, 1624.358)" fill="#fff"/><path d="M19.017,53.311a1,1,0,0,1-.827-.436C18,52.594,13.416,45.82,6.308,30.143A86.02,86.02,0,0,1-.06,9.112,62.516,62.516,0,0,1-1,0,1,1,0,0,1,0-1,1,1,0,0,1,1,0a62,62,0,0,0,.921,8.837A84,84,0,0,0,8.129,29.317C15.153,44.808,19.8,51.68,19.842,51.747a1,1,0,0,1-.825,1.563Z" transform="translate(1061.922 1678.798) rotate(143)" fill="#fff"/></g></svg>