<svg xmlns="http://www.w3.org/2000/svg" width="476.456" height="154.308" viewBox="0 0 476.456 154.308"><g transform="translate(-810.771 -2624.848)"><g transform="translate(-259.906 411.443) rotate(-7)"><path d="M473-10462H25a10.012,10.012,0,0,1-10-10v-23.007c.157.006.325.009.5.009a15.392,15.392,0,0,0,10.959-4.541A15.4,15.4,0,0,0,31-10510.5a15.4,15.4,0,0,0-4.539-10.959A15.4,15.4,0,0,0,15.5-10526c-.147,0-.306,0-.5.008V-10550a10.012,10.012,0,0,1,10-10H473a10.014,10.014,0,0,1,10,10v24.008a15.415,15.415,0,0,0-10.624,4.7A15.418,15.418,0,0,0,468-10510.5a15.419,15.419,0,0,0,4.376,10.795,15.406,15.406,0,0,0,10.624,4.7V-10472A10.014,10.014,0,0,1,473-10462Z" transform="matrix(0.996, 0.087, -0.087, 0.996, -144.147, 12882.302)" fill="#111"/><path d="M473-10462H463v-3h10v3Zm-15,0H448v-3h10Zm-15,0H433v-3h10Zm-15,0H418v-3h10Zm-15,0H403v-3h10Zm-15,0H388v-3h10Zm-15,0H373v-3h10Zm-15,0H358v-3h10Zm-15,0H343v-3h10Zm-15,0H328v-3h10Zm-15,0H313v-3h10Zm-15,0H298v-3h10Zm-15,0H283v-3h10Zm-15,0H268v-3h10Zm-15,0H253v-3h10Zm-15,0H238v-3h10Zm-15,0H223v-3h10Zm-15,0H208v-3h10Zm-15,0H193v-3h10Zm-15,0H178v-3h10Zm-15,0H163v-3h10Zm-15,0H148v-3h10Zm-15,0H133v-3h10Zm-15,0H118v-3h10Zm-15,0H103v-3h10Zm-15,0H88v-3H98Zm-15,0H73v-3H83Zm-15,0H58v-3H68Zm-15,0H43v-3H53Zm-15,0H28v-3H38Zm-14.987-.2a9.988,9.988,0,0,1-4.957-2.613h0l-.1-.095h0l-.041-.04h0l-.054-.054v0l-.04-.04h0l-.04-.041h0l-.013-.014h0l-.039-.041v0l-.012-.013h0l-.026-.027h0l-.011-.012,0,0-.025-.026,0,0-.01-.011,0,0-.011-.012h0l-.025-.028,0,0-.011-.012,0,0-.025-.027h0l-.011-.013,0,0-.011-.012h0l-.025-.028,0,0-.01-.012,0,0-.024-.027,0,0-.01-.012,0,0-.011-.013h0l-.012-.014h0l-.011-.013,0,0-.01-.012v0l-.024-.028v0l-.011-.013,0,0-.012-.014h0l-.012-.015,0,0-.01-.012,0,0-.011-.013h0l-.024-.028v0l-.011-.014h0l-.024-.029h0l-.01-.013,0,0-.01-.013h0l-.023-.029v0l-.01-.013,0,0-.023-.029h0l-.011-.014,0,0-.01-.013v0l-.023-.028,0,0-.01-.013,0,0-.023-.029,0,0-.009-.012,0,0-.01-.013h0l-.011-.015,0,0-.01-.013,0,0-.009-.013,0,0-.022-.029,0,0-.01-.014v0l-.023-.03h0l-.01-.014,0,0-.009-.012v0l-.022-.03,0,0-.009-.013,0,0-.022-.03h0l-.01-.014,0,0-.009-.012,0,0-.021-.03,0,0-.009-.014v0l-.022-.03h0l-.01-.016v0l-.01-.015h0l-.022-.031v0l-.01-.014h0l-.022-.032h0l-.043-.063h0l-.042-.064h0a9.992,9.992,0,0,1-.968-1.871l2.8-1.089a7.075,7.075,0,0,0,5.134,4.33Zm-5.012-11.1H15v-10h3Zm0-15H15v-3.711h0v-3h0c.157.006.325.009.5.009s.353,0,.529-.009h.023a.092.092,0,0,0,.023,0,.09.09,0,0,0,.023,0h.024a.094.094,0,0,1,.023,0,.049.049,0,0,1,.024,0c.01,0,.02,0,.03,0h.058c.008,0,.015,0,.023,0H16.3a.181.181,0,0,1,.023,0h.023a.092.092,0,0,0,.023,0H16.4a.181.181,0,0,1,.023,0l.023,0h.024a.09.09,0,0,1,.023,0,.048.048,0,0,1,.023,0,.046.046,0,0,0,.023,0h.023a.1.1,0,0,0,.023,0h.023a.065.065,0,0,1,.024,0,.07.07,0,0,0,.024,0,.237.237,0,0,0,.052,0h0l.026,0a.2.2,0,0,1,.025,0l.023,0,.023,0a.187.187,0,0,1,.023,0l.023,0,.023,0,.094-.009a.189.189,0,0,1,.023,0c.008,0,.015,0,.023,0s.015,0,.023,0a.052.052,0,0,0,.024,0,.213.213,0,0,0,.025,0h0q.6-.06,1.184-.165l.53,2.952q-.4.072-.8.126Zm6.413-5.984-1.448-2.627.02-.011h0l.019-.011h0l.04-.021h0l.04-.023h0a15.542,15.542,0,0,0,3.042-2.244h0l.035-.033h0l.052-.05h0l.035-.033h0l.017-.016h0l.033-.032,0,0,.033-.032,0,0,.014-.015,0,0,.032-.032,0,0,.015-.015,0,0,.016-.016,0,0,.013-.013,0,0,.016-.016.017-.017,0,0,.012-.013.006-.006.011-.011.006-.006.01-.011.007-.007.01-.01.007-.007.01-.01.006-.007.01-.011.006-.006.01-.011.006-.006.011-.012.005,0,.012-.013,0,0,.015-.015v0l.033-.034,0,0,.013-.013,0,0,.012-.012,0,0,.012-.013,0,0,.011-.012.005-.006.011-.012,0,0,.012-.013,0,0,.012-.013,0,0,.013-.014,0,0,.065-.069h0l.015-.017,0,0,.014-.015,0,0,.013-.014,0,0,.012-.014,0,0,.013-.014,0,0,.013-.015,0,0,.014-.016v0l.1-.106,0,0,.014-.016,0,0,.014-.016,0,0,.014-.016,0,0,.014-.016,0,0,.015-.017h0l.11-.127h0l.015-.018h0l.015-.018h0l.014-.017v0l.015-.017h0a15.406,15.406,0,0,0,2.288-3.613v0l.005-.013,2.734,1.234a18.442,18.442,0,0,1-3.789,5.472A18.564,18.564,0,0,1,24.413-10494.279Zm9.494-14.358-2.985-.3q.037-.371.056-.745h0v-.023h0v-.724s0-.01,0-.015v-.01c0-.006,0-.013,0-.019s0,0,0-.006,0-.017,0-.024h0c0-.007,0-.015,0-.021v-.006c0-.007,0-.013,0-.019v0c0-.008,0-.015,0-.022v-.316h0v-.386h0v-.047h0v-.314l0-.021v-.027l0-.021h0l0-.021v-.006l0-.019v0l0-.021v-.027l0-.021v-.027l0-.021v-.028l0-.02v0l0-.021v-.006l0-.017v0l0-.021v-.006l0-.018v0l0-.021v0l0-.018v-.006l0-.021v0l0-.018v-.007l0-.019v0l0-.021v-.007l0-.017v0l0-.021v-.006l0-.016v-.006l0-.021v0l0-.017v-.007l0-.02v0l0-.017v-.007l0-.017v0l0-.02v-.007l0-.016v-.006l0-.021v-.006l0-.016v-.006l0-.021v-.006l0-.015v-.008l0-.019v0l0-.018v-.008l0-.016v0l0-.021v-.006l0-.017v0l0-.02v-.008l0-.014v-.008l0-.02v0l0-.016v-.007l0-.018v-.006l0-.018v-.008l0-.016v0l0-.021v0l0-.017v-.006l0-.02v-.007l0-.015v-.007l0-.02v0l0-.017v-.007l0-.018v0l0-.02v-.008l0-.016v0l0-.02v-.007l0-.015v-.007l0-.02v-.007l0-.014v-.008l0-.017v-.009l0-.014v-.009l0-.014,0-.009,0-.018v-.008l0-.013v-.008l0-.019v-.008l0-.013v-.009l0-.019v-.007l0-.014,0-.008,0-.016,0-.009,0-.015,0-.009,0-.014v-.007l0-.019,0-.009,0-.012,0-.009,0-.018,0-.009,0-.012,0-.009,0-.015,0-.013,0-.012,0-.009,0-.013,0-.011,0-.015,0-.009,0-.012,0-.01,0-.017,0-.011,0-.01,0-.01,0-.014,0-.015,0-.008,0-.012,0-.009,0-.019,0-.009,0-.011,0-.011,0-.015,0-.012,0-.011,0-.009,0-.012,0-.016,0-.011,0-.009,0-.011,0-.012,0-.017,0-.008,0-.012,0-.008,0-.02,0-.009,0-.011,0-.009,0-.019,0-.009,0-.011,0-.009-.009-.039,0-.008,0-.012v-.006l-.005-.022,0-.007,0-.012,0-.008,0-.021v-.006l0-.013,0-.006-.01-.042v0l-.01-.042v-.006l0-.013v0l-.006-.025v-.006l0-.013v-.006l-.006-.024v0l0-.013v0l-.011-.042v-.006l-.011-.043v0l0-.015v0l-.007-.028v0l0-.015v0l-.012-.046v0l-.012-.045v0l-.012-.046h0l-.017-.062h0l-.013-.047h0a15.3,15.3,0,0,0-1.643-3.769l2.564-1.557A18.448,18.448,0,0,1,34-10510.5C34-10509.88,33.968-10509.253,33.907-10508.638Zm-8.369-13.674a15.408,15.408,0,0,0-1.473-1.112h0l-.079-.053,0,0-.013-.009,0,0-.013-.008,0,0-.041-.027-.006,0-.011-.007-.008,0-.01-.007-.007,0-.011-.007-.008,0-.016-.01-.01-.007-.01-.006-.009-.006-.009-.006-.01-.006-.008-.006-.011-.007-.008,0-.015-.009-.005,0-.016-.01-.006,0-.013-.008-.006,0-.013-.009-.005,0-.016-.01,0,0-.039-.024,0,0-.016-.01,0,0-.017-.011h0l-.06-.036h0l-.02-.012h0a15.369,15.369,0,0,0-7.075-2.187l.174-3a18.291,18.291,0,0,1,10.889,4.373l-1.946,2.283ZM18-10529.57H15v-10h3Zm0-15H15V-10550q0-.009,0-.018v0s0-.009,0-.013v-.077c0-.012,0-.022,0-.034v-.334l0-.035v-.11h0v-.092c0-.019,0-.036,0-.054v-.073l0-.036h0l0-.017v-.038l0-.016v0c0-.023,0-.048.007-.071h0l0-.017v0l0-.016v0l0-.018h0c0-.024.005-.048.008-.072h0l0-.017v0l0-.017h0a9.919,9.919,0,0,1,.731-2.733h0l.006-.015v0l.006-.015h0l.007-.016h0l.02-.047,0,0,0-.011,0,0,0-.011,0,0,0-.01,0-.006,0-.011,0,0,.006-.014v0l.006-.014,0-.006,0-.009,0-.007,0-.008,0-.008,0-.006,0-.01,0,0,0-.01,0,0,.024-.051h0l.006-.013v0l.006-.012v0l.006-.013h0l.066-.135,2.69,1.327A6.916,6.916,0,0,0,18-10550Zm2.975-11.153-1.731-2.45c.117-.082.236-.163.357-.241h0l.037-.024h0l.023-.015,0,0,.012-.007h0l.023-.015,0,0,.012-.007h0l.023-.015,0,0,.034-.021.006,0,.016-.01.008,0,.009,0,.009-.006.013-.008.009,0,.009-.006.009,0,.014-.009.008,0,.009,0,.014-.009.007,0,.011-.007.007,0,.015-.009.008,0,.011-.007.006,0,.015-.009.007,0,.013-.008.006,0,.015-.009.006,0,.016-.009,0,0,.015-.009.005,0,.017-.01,0,0,.014-.008.005,0,.017-.01,0,0,.015-.009,0,0,.018-.01,0,0,.016-.009h0l.018-.011,0,0,.038-.021h0l.019-.011h0l.019-.011h0l.019-.01h0l.019-.011h0l.02-.011h0l.039-.021h0l.04-.021h0l.041-.021h0a9.908,9.908,0,0,1,2.89-.945h0l.047-.008h0l.168-.025h0l.047-.007h0l.047-.007h0l.024,0h0l.048-.006h0l.046-.006h0l.046-.006h0l.046,0h0l.024,0,.023,0,.025,0h0l.023,0h0l.026,0,.046,0h0l.046,0a.058.058,0,0,0,.026,0h0l.024,0a.079.079,0,0,0,.026,0l.021,0a.1.1,0,0,0,.024,0h0l.045,0,.027,0h0a.118.118,0,0,1,.026,0h.022l.023,0h.026a.052.052,0,0,0,.024,0,.108.108,0,0,0,.025,0,.222.222,0,0,1,.025,0h0l.027,0h.049a.074.074,0,0,1,.025,0,.1.1,0,0,1,.024,0,.12.12,0,0,0,.026,0,.177.177,0,0,1,.023,0h.049a.085.085,0,0,1,.027,0h.071c.006,0,.015,0,.023,0a.246.246,0,0,0,.027,0H24.9a.078.078,0,0,1,.026,0h.025a.07.07,0,0,0,.025,0,.065.065,0,0,0,.027,0h3.865v3H25A6.936,6.936,0,0,0,20.975-10555.724ZM43.864-10557h-10v-3h10Zm15,0h-10v-3h10Zm15,0h-10v-3h10Zm15,0h-10v-3h10Zm15,0h-10v-3h10Zm15,0h-10v-3h10Zm15,0h-10v-3h10Zm15,0h-10v-3h10Zm15,0h-10v-3h10Zm15,0h-10v-3h10Zm15,0h-10v-3h10Zm15,0h-10v-3h10Zm15,0h-10v-3h10Zm15,0h-10v-3h10Zm15,0h-10v-3h10Zm15,0h-10v-3h10Zm15,0h-10v-3h10Zm15,0h-10v-3h10Zm15,0h-10v-3h10Zm15,0h-10v-3h10Zm15,0h-10v-3h10Zm15,0h-10v-3h10Zm15,0h-10v-3h10Zm15,0h-10v-3h10Zm15,0h-10v-3h10Zm15,0h-10v-3h10Zm15,0h-10v-3h10Zm15,0h-10v-3h10Zm15,0h-10v-3h10Zm13,1.17A6.95,6.95,0,0,0,473-10557h-4.135v-3H473.1a.232.232,0,0,1,.026,0h.118a.057.057,0,0,1,.026,0h.07a.229.229,0,0,0,.026,0h.089a.074.074,0,0,0,.021,0,.084.084,0,0,1,.027,0h.047a.075.075,0,0,0,.021,0l.026,0h.021a.064.064,0,0,1,.027,0c.007,0,.013,0,.02,0a.07.07,0,0,1,.024,0h.023a.047.047,0,0,0,.023,0l.024,0a.061.061,0,0,1,.023,0,.069.069,0,0,1,.024,0h.022c.009,0,.017,0,.025,0a.055.055,0,0,1,.022,0l.026,0a.161.161,0,0,1,.021,0l.026,0a.076.076,0,0,0,.021,0,.08.08,0,0,0,.026,0l.021,0,.026,0a.155.155,0,0,1,.021,0l.026,0,.02,0a.119.119,0,0,1,.026,0l.021,0a.076.076,0,0,0,.026,0,.158.158,0,0,1,.021,0l.023,0a.067.067,0,0,1,.024,0l.023,0a.049.049,0,0,1,.024,0l.021,0a.221.221,0,0,0,.026,0c.006,0,.013,0,.02,0l.027,0,.02,0,.026,0,.02,0,.027,0a.062.062,0,0,0,.019,0,.09.09,0,0,0,.027,0l.019,0c.009,0,.018,0,.027,0l.019,0,.027,0a.043.043,0,0,0,.019,0l.039.007h.006l.039.007a.13.13,0,0,0,.019,0,.065.065,0,0,1,.027,0,.13.13,0,0,0,.019,0,.125.125,0,0,0,.027,0,.045.045,0,0,1,.019,0l.027,0a.063.063,0,0,0,.019,0h0l.023,0a.061.061,0,0,0,.018,0,.219.219,0,0,0,.027.006l.018,0,.027,0a.056.056,0,0,0,.018,0,.07.07,0,0,0,.028.006l.018,0h.005l.023,0,.017,0h0l.024,0a.1.1,0,0,1,.017,0h0l.027.006h0a.135.135,0,0,0,.018,0l.041.01h0l.042.01h0l.043.011h0l.043.011h0l.043.011h0l.042.011h0l.042.012h0l.043.012h0l.044.012h0l.045.013h0l.089.024h0l.015,0h0l.044.013h0l.043.013h0l.043.013h0l.043.013h0l.042.014h0l.041.013h0l.042.013h0l.042.014h0l.041.013h0l.041.014h0l.013,0h0l.025.008s.01,0,.016.006h0l.027.009a.124.124,0,0,1,.015.006h0l.025.009h0l.012,0h0l.024.009a.045.045,0,0,1,.015.006h0l.022.008,0,0a.061.061,0,0,1,.018.007l.021.008h0l.012,0,.006,0,.021.008h0l.011,0,.006,0,.021.008a.028.028,0,0,0,.015.006l.008,0,.018.007.017.007.017.007.009,0,.016.007.018.007.015.006.009,0c.006,0,.012,0,.018.008l.011,0,.013.006.009,0,.009,0,.012,0,.012,0a.128.128,0,0,0,.018.007l.014.006.009,0,.011,0,.007,0,.016.007.005,0,.014.006.006,0,.016.006,0,0,.015.006.005,0,.017.008h0l.016.007.006,0,.014.006,0,0,.017.008.005,0,.016.007h0l.018.008,0,0,.016.007h0l.018.008,0,0,.017.008h0l.019.008,0,0,.017.008h0l.019.009h0l.018.008h0l.019.009h0l.018.009h0l.04.019h0l.04.019h0a9.9,9.9,0,0,1,1.246.707Zm6.133,10.988h-3V-10550a6.9,6.9,0,0,0-.8-3.255l2.653-1.4q.164.309.306.632h0l.007.016h0l.007.017h0l.015.034h0l.006.015v0l.006.014v0l.007.016h0l.014.033,0,0,0,.012,0,.006,0,.011,0,0,.006.014v0l.006.016,0,.006,0,.01,0,.007,0,.01,0,.006,0,.01,0,.007,0,.012,0,.011,0,.008,0,.009,0,.007,0,.009,0,.007,0,.009,0,.006.013.034,0,0,0,.01,0,.006,0,.01,0,0,.02.051,0,0,0,.011v0l0,.013h0l.016.041v0l0,.012v0l0,.013v0l.02.056h0l0,.014h0a9.912,9.912,0,0,1,.481,1.917v0l.011.076h0l0,.015v0c0,.02.006.04.008.061h0l0,.014v0l0,.014v0l.007.06v0l0,.014v0l0,.014h0l.005.045v.049h0l0,.042v.04l0,.038v.057l0,.025v.068l0,.023v.594c0,.006,0,.012,0,.019v.043s0,.008,0,.012,0,0,0,.007,0,.009,0,.014,0,0,0,0v.019s0,0,0,0v.014s0,0,0,.007,0,.008,0,.012,0,0,0,.007,0,.008,0,.012v.007c0,.006,0,.012,0,.018Zm0,15h-3v-10h3Zm-10.081,8.015-2.049-2.19a18.3,18.3,0,0,1,10.671-4.878l.314,2.983a15.385,15.385,0,0,0-4.665,1.249h0l-.1.047h0l-.02.01h0l-.083.038h0l-.02.009h0l-.082.038h0l-.018.009h0l-.019.009h0l-.062.029h0l-.019.009h0l-.018.009h0l-.081.04h0l-.018.009h0l-.019.01h0l-.041.02h0l-.02.01h0l-.017.009,0,0-.017.009h0l-.06.03,0,0-.016.008,0,0-.016.009,0,0-.019.01h0l-.04.021,0,0-.016.009,0,0-.015.008,0,0-.017.009h0l-.04.021h0l-.017.009,0,0-.015.008-.005,0-.015.009,0,0-.018.01h0l-.02.01,0,0-.017.009,0,0-.015.008-.005,0-.014.008-.005,0-.017.009h0l-.02.011h0l-.019.01,0,0-.015.009-.005,0-.015.008,0,0-.016.009,0,0-.039.021,0,0-.015.009-.005,0-.014.008-.006,0-.014.008-.005,0-.018.011h0l-.02.012h0l-.017.011,0,0-.014.009-.006,0-.013.008-.006,0-.016.01h0l-.019.012h0l-.018.011,0,0-.015.008-.005,0-.013.008-.006,0-.014.009,0,0-.038.022,0,0-.015.009-.005,0-.014.008-.006,0-.014.008-.005,0-.017.011h0l-.019.011,0,0-.015.009-.006,0-.013.008-.006,0-.013.008-.006,0-.015.009,0,0-.019.012h0l-.017.011-.006,0-.012.007-.007,0-.012.007-.006,0-.013.009,0,0-.037.023-.005,0-.013.008-.006,0-.012.007-.006,0-.013.008-.005,0-.017.011h0l-.019.012,0,0-.014.009-.006,0-.013.009-.006,0-.013.009-.006,0-.015.01h0l-.019.013h0l-.017.011-.005,0-.013.009-.006,0-.013.009-.005,0-.015.01,0,0-.037.023,0,0-.014.01-.005,0-.013.009-.005,0-.014.009,0,0-.037.025h0l-.016.011,0,0-.013.01-.005,0-.013.01-.005,0-.015.011,0,0-.019.013h0l-.017.012,0,0-.014.01,0,0-.013.01-.005,0-.015.011,0,0-.036.025,0,0-.014.01,0,0-.014.01,0,0-.015.011,0,0-.037.026h0l-.017.012,0,0-.014.011,0,0-.015.011,0,0-.055.039,0,0-.015.012,0,0-.015.011,0,0-.017.012h0l-.037.027h0l-.016.012,0,0-.015.011,0,0-.016.012,0,0-.037.027h0l-.018.013,0,0-.016.012,0,0-.016.012,0,0-.054.041,0,0-.016.012,0,0-.016.013h0l-.055.042h0l-.017.014,0,0-.016.013h0l-.073.057h0l-.017.013h0l-.017.015h0l-.073.058h0l-.109.088h0Q473.314-10522.2,472.92-10521.828Zm-7.72,14.054a18.751,18.751,0,0,1-.2-2.727,18.525,18.525,0,0,1,2.234-8.824l2.636,1.433q-.129.237-.249.478h0l-.013.026h0l-.026.053v0l-.012.024v0l-.026.053h0l-.012.024,0,0-.011.023v0l-.024.051,0,0-.01.021,0,.006-.012.024h0l-.012.026,0,0-.01.021,0,.007-.009.02,0,.006-.012.025,0,0-.009.02,0,.009-.008.017,0,.009-.009.021,0,0-.01.023,0,.009-.007.016,0,.01-.008.018,0,.007-.01.023,0,.01-.007.016,0,.01-.006.015,0,.011-.008.019-.006.013-.007.016-.005.012-.006.013-.005.013-.006.014,0,.011-.009.022-.005.012-.005.012-.006.014,0,.011-.006.014-.005.013-.01.022,0,.011-.006.015,0,.009-.006.016,0,.008-.012.029,0,.008-.006.015,0,.01-.006.015,0,.009-.022.053,0,.007-.007.017,0,.008-.007.017,0,0-.014.035,0,0-.007.017,0,.008-.007.017,0,.006-.022.057,0,.006-.007.017,0,.007-.022.059v0l-.007.018,0,.006-.007.019v0l-.023.061,0,0-.007.019v0l-.022.061v0l-.007.02v0l-.03.083v0l-.007.021v0l-.03.085v0c-.01.028-.02.057-.03.086h0l-.037.108h0l-.029.087h0l-.028.087h0l-.007.021h0l-.028.088v0c-.009.028-.018.058-.027.087h0q-.03.1-.059.2h0l-.032.111h0l-.025.089h0l-.024.089h0l-.03.111h0l-.023.089h0c-.009.038-.019.074-.028.112h0l-.022.088v0l-.021.087v0l-.005.021h0l-.02.089v0c-.007.029-.013.059-.02.089v0l0,.021h0l-.014.067h0l0,.021v0l-.018.088v0l0,.021v0l-.013.066h0l0,.021v0l-.013.067h0l0,.021v0l0,.021v0l-.012.063v0l0,.02v0l-.011.063v0l0,.02v.006l0,.02h0l-.008.045h0l0,.02v.006l0,.02v0l-.01.063v.006l0,.019v.007l0,.019h0l-.007.042v0l0,.019v.008l0,.018v.008l-.009.058s0,.006,0,.009l0,.017v.009l0,.017v0l-.005.036v.008l0,.017v.01l0,.016v.011l0,.029v.01l0,.016v.011l0,.016v.011l0,.016v.008l0,.03v.012l0,.015v.012l0,.015,0,.013,0,.024,0,.014,0,.014,0,.013,0,.015v.012l0,.027v.011l0,.015v.012l0,.015v.013l0,.015,0,.014,0,.022,0,.015,0,.014v.04l0,.019,0,.02v.067l0,.021v.07l0,.016,0,.017,0,.02v.067l0,.024v.067l0,.021v.012l0,.021v.066l0,.025v.066l0,.026v.094l0,.026v.056s0,.007,0,.01v.146s0,.007,0,.01,0,.013,0,.019v.064s0,.006,0,.008v.059c0,.009,0,.018,0,.027v.093c0,.009,0,.018,0,.027v.065c0,.009,0,.019,0,.027v.058s0,0,0,.008,0,.017,0,.024v0c0,.009,0,.018,0,.027s0,.006,0,.009v.029q0,.01,0,.021s0,0,0,.007,0,.019,0,.027,0,0,0,.007,0,.015,0,.021,0,.006,0,.009,0,.014,0,.021,0,.006,0,.008v.028h0v.028s0,.01,0,.016v.028q0,.01,0,.021s0,0,0,.007v.044c0,.007,0,.015,0,.021s0,0,0,0,0,.011,0,.017,0,0,0,.007v.064s0,0,0,.007v.016s0,0,0,.007,0,.014,0,.021v.123s0,.009,0,.014v.668l0,.043v.05l0,.021v.049l0,.021v0l0,.019v0l0,.02v0l0,.022h0l0,.021v0l0,.019v0l0,.045v0l0,.021v0l0,.045h0l0,.022h0l.007.069h0q.035.333.083.662Zm10.163,13.9a18.486,18.486,0,0,1-5.138-3.738,18.529,18.529,0,0,1-3.217-4.491l2.673-1.362a15.5,15.5,0,0,0,2.167,3.19h0l.047.053h0l.016.018h0l.031.035h0l.015.017v0l.015.017h0l.031.034,0,0,.013.015,0,0,.031.033,0,0,.013.015,0,0,.013.014,0,0,.015.017h0l.014.016,0,0,.013.014,0,0,.031.032,0,0,.012.013,0,0,.012.013,0,0,.015.016,0,0,.012.013,0,0,.011.012,0,0,.015.016h0l.015.017,0,0,.011.012,0,0,.012.012,0,0,.015.016,0,0,.011.012,0,0,.011.012,0,0,.015.016.016.017,0,0,.011.012,0,0,.011.012,0,0,.012.012,0,0,.012.013,0,0,.013.014,0,0,.016.016h0a15.53,15.53,0,0,0,4.19,3.017Zm7.638,7.313h-3v-8.442h1.432l.017-.126c.44.058.884.1,1.332.117h.025l.024,0h.025a.1.1,0,0,1,.025,0h.073a.1.1,0,0,1,.025,0H483Zm-.009,15-3-.129c0-.1.007-.205.007-.307v-9.564h3v9.564s0,.01,0,.016v0s0,.009,0,.012v0s0,.008,0,.012v.019c0,.123,0,.246-.009.367v0Zm-9.719,9.563-.081-3a6.982,6.982,0,0,0,5.8-3.384l2.565,1.556a10,10,0,0,1-1.158,1.55h0l-.1.11h0l-.041.043h0l-.04.042,0,0-.009.009,0,0-.029.03h0l-.009.009,0,0-.008.008,0,0-.027.027,0,0-.008.008,0,0-.008.009,0,0-.017.017,0,0-.007.008,0,0-.008.007,0,0-.027.026,0,0-.008.008,0,0-.008.008,0,0-.014.014,0,0-.007.008,0,0-.007.007-.005,0-.007.007-.005,0-.013.013-.005,0-.007.007-.005,0-.007.007-.006,0-.008.008-.01.01-.006.006-.006,0-.007.007-.006.006-.006.006-.007.007-.011.01-.006.006-.007.006-.006.006-.007.006-.006.006-.007.007-.011.01-.006.006-.007.006-.006.006-.007.006-.006.006-.01.009,0,0-.01.01-.005,0-.008.007-.005,0-.007.007-.006,0-.012.011,0,0-.009.008-.005,0-.008.007-.005,0-.009.009-.006,0-.01.009-.005,0-.008.007-.006,0-.008.007-.006,0-.012.011-.005,0-.008.007-.006,0-.008.007-.005,0-.011.009,0,0-.013.011,0,0-.009.007,0,0-.009.008,0,0-.013.012,0,0-.01.008-.005,0-.009.007,0,0-.011.009,0,0-.013.011,0,0-.009.008,0,0-.01.008,0,0-.027.023,0,0-.011.009,0,0-.013.011h0l-.014.012h0l-.012.01,0,0-.011.009,0,0-.028.022,0,0-.011.009,0,0-.011.01,0,0-.014.011h0l-.012.011,0,0-.011.009,0,0-.029.022,0,0-.012.009,0,0-.012.01h0l-.014.012h0l-.013.01,0,0-.012.01,0,0-.029.021,0,0-.012.01,0,0-.013.01h0l-.029.022h0l-.013.011h0l-.03.022h0l-.014.011,0,0-.013.009v0l-.03.021h0l-.013.01,0,0-.045.032h0l-.014.011h0l-.031.021h0l-.014.01h0l-.046.032h0l-.062.043h0l-.047.032h0l-.016.011h0l-.048.032h0l-.048.032h0l-.015.01h0l-.048.031h0l-.064.041h0l-.048.03h0l-.049.03h0l-.016.01h0l-.049.03h0l-.065.04h0l-.049.029h0l-.015.009h0l-.049.028h0l-.016.009h0l-.033.019h0l-.016.009h0l-.05.028h0l-.067.037h0l-.187.1h0l-.051.026h0l-.051.026h0l-.017.009h0l-.052.025h0l-.052.026h0l-.017.009h0l-.052.025h0l-.069.033h0l-.052.024h0l-.017.008h0l-.053.024h0l-.053.024h0l-.07.031h0l-.053.023h0l-.018.008h0l-.107.046h0l-.072.029h0l-.071.028h0l-.054.021h0l-.018.007h0l-.036.014h0l-.018.007h0l-.054.021h0l-.073.027h0l-.055.02h0l-.018.006h0l-.055.02h0l-.055.02h0l-.018.007h0l-.055.019h0l-.073.024h0l-.055.018h0l-.075.024h0l-.056.017h0l-.018,0h0l-.056.018h0l-.056.017h0l-.017,0h0l-.056.016h0l-.056.016-.019.006h0l-.057.015h0l-.076.02h0A9.934,9.934,0,0,1,473.272-10462Z" transform="matrix(0.996, 0.087, -0.087, 0.996, -144.147, 12882.302)" fill="#fff"/><path d="M473-10462H25a10.012,10.012,0,0,1-10-10v-23.007c.157.006.325.009.5.009a15.392,15.392,0,0,0,10.959-4.541A15.4,15.4,0,0,0,31-10510.5a15.4,15.4,0,0,0-4.539-10.959A15.4,15.4,0,0,0,15.5-10526c-.147,0-.306,0-.5.008V-10550a10.012,10.012,0,0,1,10-10H473a10.014,10.014,0,0,1,10,10v24.008a15.415,15.415,0,0,0-10.624,4.7A15.418,15.418,0,0,0,468-10510.5a15.419,15.419,0,0,0,4.376,10.795,15.406,15.406,0,0,0,10.624,4.7V-10472A10.014,10.014,0,0,1,473-10462Z" transform="translate(771 12944)" fill="#111"/><path d="M473-10462H463v-3h10v3Zm-15,0H448v-3h10Zm-15,0H433v-3h10Zm-15,0H418v-3h10Zm-15,0H403v-3h10Zm-15,0H388v-3h10Zm-15,0H373v-3h10Zm-15,0H358v-3h10Zm-15,0H343v-3h10Zm-15,0H328v-3h10Zm-15,0H313v-3h10Zm-15,0H298v-3h10Zm-15,0H283v-3h10Zm-15,0H268v-3h10Zm-15,0H253v-3h10Zm-15,0H238v-3h10Zm-15,0H223v-3h10Zm-15,0H208v-3h10Zm-15,0H193v-3h10Zm-15,0H178v-3h10Zm-15,0H163v-3h10Zm-15,0H148v-3h10Zm-15,0H133v-3h10Zm-15,0H118v-3h10Zm-15,0H103v-3h10Zm-15,0H88v-3H98Zm-15,0H73v-3H83Zm-15,0H58v-3H68Zm-15,0H43v-3H53Zm-15,0H28v-3H38Zm-14.987-.2a9.988,9.988,0,0,1-4.957-2.613h0l-.1-.095h0l-.041-.04h0l-.054-.054v0l-.04-.04h0l-.04-.041h0l-.013-.014h0l-.039-.041v0l-.012-.013h0l-.026-.027h0l-.011-.012,0,0-.025-.026,0,0-.01-.011,0,0-.011-.012h0l-.025-.028,0,0-.011-.012,0,0-.025-.027h0l-.011-.013,0,0-.011-.012h0l-.025-.028,0,0-.01-.012,0,0-.024-.027,0,0-.01-.012,0,0-.011-.013h0l-.012-.014h0l-.011-.013,0,0-.01-.012v0l-.024-.028v0l-.011-.013,0,0-.012-.014h0l-.012-.015,0,0-.01-.012,0,0-.011-.013h0l-.024-.028v0l-.011-.014h0l-.024-.029h0l-.01-.013,0,0-.01-.013h0l-.023-.029v0l-.01-.013,0,0-.023-.029h0l-.011-.014,0,0-.01-.013v0l-.023-.028,0,0-.01-.013,0,0-.023-.029,0,0-.009-.012,0,0-.01-.013h0l-.011-.015,0,0-.01-.013,0,0-.009-.013,0,0-.022-.029,0,0-.01-.014v0l-.023-.03h0l-.01-.014,0,0-.009-.012v0l-.022-.03,0,0-.009-.013,0,0-.022-.03h0l-.01-.014,0,0-.009-.012,0,0-.021-.03,0,0-.009-.014v0l-.022-.03h0l-.01-.016v0l-.01-.015h0l-.022-.031v0l-.01-.014h0l-.022-.032h0l-.043-.063h0l-.042-.064h0a9.992,9.992,0,0,1-.968-1.871l2.8-1.089a7.075,7.075,0,0,0,5.134,4.33Zm-5.012-11.1H15v-10h3Zm0-15H15v-3.711h0v-3h0c.157.006.325.009.5.009s.353,0,.529-.009h.023a.092.092,0,0,0,.023,0,.09.09,0,0,0,.023,0h.024a.094.094,0,0,1,.023,0,.049.049,0,0,1,.024,0c.01,0,.02,0,.03,0h.058c.008,0,.015,0,.023,0H16.3a.181.181,0,0,1,.023,0h.023a.092.092,0,0,0,.023,0H16.4a.181.181,0,0,1,.023,0l.023,0h.024a.09.09,0,0,1,.023,0,.048.048,0,0,1,.023,0,.046.046,0,0,0,.023,0h.023a.1.1,0,0,0,.023,0h.023a.065.065,0,0,1,.024,0,.07.07,0,0,0,.024,0,.237.237,0,0,0,.052,0h0l.026,0a.2.2,0,0,1,.025,0l.023,0,.023,0a.187.187,0,0,1,.023,0l.023,0,.023,0,.094-.009a.189.189,0,0,1,.023,0c.008,0,.015,0,.023,0s.015,0,.023,0a.052.052,0,0,0,.024,0,.213.213,0,0,0,.025,0h0q.6-.06,1.184-.165l.53,2.952q-.4.072-.8.126Zm6.413-5.984-1.448-2.627.02-.011h0l.019-.011h0l.04-.021h0l.04-.023h0a15.542,15.542,0,0,0,3.042-2.244h0l.035-.033h0l.052-.05h0l.035-.033h0l.017-.016h0l.033-.032,0,0,.033-.032,0,0,.014-.015,0,0,.032-.032,0,0,.015-.015,0,0,.016-.016,0,0,.013-.013,0,0,.016-.016.017-.017,0,0,.012-.013.006-.006.011-.011.006-.006.01-.011.007-.007.01-.01.007-.007.01-.01.006-.007.01-.011.006-.006.01-.011.006-.006.011-.012.005,0,.012-.013,0,0,.015-.015v0l.033-.034,0,0,.013-.013,0,0,.012-.012,0,0,.012-.013,0,0,.011-.012.005-.006.011-.012,0,0,.012-.013,0,0,.012-.013,0,0,.013-.014,0,0,.065-.069h0l.015-.017,0,0,.014-.015,0,0,.013-.014,0,0,.012-.014,0,0,.013-.014,0,0,.013-.015,0,0,.014-.016v0l.1-.106,0,0,.014-.016,0,0,.014-.016,0,0,.014-.016,0,0,.014-.016,0,0,.015-.017h0l.11-.127h0l.015-.018h0l.015-.018h0l.014-.017v0l.015-.017h0a15.406,15.406,0,0,0,2.288-3.613v0l.005-.013,2.734,1.234a18.442,18.442,0,0,1-3.789,5.472A18.564,18.564,0,0,1,24.413-10494.279Zm9.494-14.358-2.985-.3q.037-.371.056-.745h0v-.023h0v-.724s0-.01,0-.015v-.01c0-.006,0-.013,0-.019s0,0,0-.006,0-.017,0-.024h0c0-.007,0-.015,0-.021v-.006c0-.007,0-.013,0-.019v0c0-.008,0-.015,0-.022v-.316h0v-.386h0v-.047h0v-.314l0-.021v-.027l0-.021h0l0-.021v-.006l0-.019v0l0-.021v-.027l0-.021v-.027l0-.021v-.028l0-.02v0l0-.021v-.006l0-.017v0l0-.021v-.006l0-.018v0l0-.021v0l0-.018v-.006l0-.021v0l0-.018v-.007l0-.019v0l0-.021v-.007l0-.017v0l0-.021v-.006l0-.016v-.006l0-.021v0l0-.017v-.007l0-.02v0l0-.017v-.007l0-.017v0l0-.02v-.007l0-.016v-.006l0-.021v-.006l0-.016v-.006l0-.021v-.006l0-.015v-.008l0-.019v0l0-.018v-.008l0-.016v0l0-.021v-.006l0-.017v0l0-.02v-.008l0-.014v-.008l0-.02v0l0-.016v-.007l0-.018v-.006l0-.018v-.008l0-.016v0l0-.021v0l0-.017v-.006l0-.02v-.007l0-.015v-.007l0-.02v0l0-.017v-.007l0-.018v0l0-.02v-.008l0-.016v0l0-.02v-.007l0-.015v-.007l0-.02v-.007l0-.014v-.008l0-.017v-.009l0-.014v-.009l0-.014,0-.009,0-.018v-.008l0-.013v-.008l0-.019v-.008l0-.013v-.009l0-.019v-.007l0-.014,0-.008,0-.016,0-.009,0-.015,0-.009,0-.014v-.007l0-.019,0-.009,0-.012,0-.009,0-.018,0-.009,0-.012,0-.009,0-.015,0-.013,0-.012,0-.009,0-.013,0-.011,0-.015,0-.009,0-.012,0-.01,0-.017,0-.011,0-.01,0-.01,0-.014,0-.015,0-.008,0-.012,0-.009,0-.019,0-.009,0-.011,0-.011,0-.015,0-.012,0-.011,0-.009,0-.012,0-.016,0-.011,0-.009,0-.011,0-.012,0-.017,0-.008,0-.012,0-.008,0-.02,0-.009,0-.011,0-.009,0-.019,0-.009,0-.011,0-.009-.009-.039,0-.008,0-.012v-.006l-.005-.022,0-.007,0-.012,0-.008,0-.021v-.006l0-.013,0-.006-.01-.042v0l-.01-.042v-.006l0-.013v0l-.006-.025v-.006l0-.013v-.006l-.006-.024v0l0-.013v0l-.011-.042v-.006l-.011-.043v0l0-.015v0l-.007-.028v0l0-.015v0l-.012-.046v0l-.012-.045v0l-.012-.046h0l-.017-.062h0l-.013-.047h0a15.3,15.3,0,0,0-1.643-3.769l2.564-1.557A18.448,18.448,0,0,1,34-10510.5C34-10509.88,33.968-10509.253,33.907-10508.638Zm-8.369-13.674a15.408,15.408,0,0,0-1.473-1.112h0l-.079-.053,0,0-.013-.009,0,0-.013-.008,0,0-.041-.027-.006,0-.011-.007-.008,0-.01-.007-.007,0-.011-.007-.008,0-.016-.01-.01-.007-.01-.006-.009-.006-.009-.006-.01-.006-.008-.006-.011-.007-.008,0-.015-.009-.005,0-.016-.01-.006,0-.013-.008-.006,0-.013-.009-.005,0-.016-.01,0,0-.039-.024,0,0-.016-.01,0,0-.017-.011h0l-.06-.036h0l-.02-.012h0a15.369,15.369,0,0,0-7.075-2.187l.174-3a18.291,18.291,0,0,1,10.889,4.373l-1.946,2.283ZM18-10529.57H15v-10h3Zm0-15H15V-10550q0-.009,0-.018v0s0-.009,0-.013v-.077c0-.012,0-.022,0-.034v-.334l0-.035v-.11h0v-.092c0-.019,0-.036,0-.054v-.073l0-.036h0l0-.017v-.038l0-.016v0c0-.023,0-.048.007-.071h0l0-.017v0l0-.016v0l0-.018h0c0-.024.005-.048.008-.072h0l0-.017v0l0-.017h0a9.919,9.919,0,0,1,.731-2.733h0l.006-.015v0l.006-.015h0l.007-.016h0l.02-.047,0,0,0-.011,0,0,0-.011,0,0,0-.01,0-.006,0-.011,0,0,.006-.014v0l.006-.014,0-.006,0-.009,0-.007,0-.008,0-.008,0-.006,0-.01,0,0,0-.01,0,0,.024-.051h0l.006-.013v0l.006-.012v0l.006-.013h0l.066-.135,2.69,1.327A6.916,6.916,0,0,0,18-10550Zm2.975-11.153-1.731-2.45c.117-.082.236-.163.357-.241h0l.037-.024h0l.023-.015,0,0,.012-.007h0l.023-.015,0,0,.012-.007h0l.023-.015,0,0,.034-.021.006,0,.016-.01.008,0,.009,0,.009-.006.013-.008.009,0,.009-.006.009,0,.014-.009.008,0,.009,0,.014-.009.007,0,.011-.007.007,0,.015-.009.008,0,.011-.007.006,0,.015-.009.007,0,.013-.008.006,0,.015-.009.006,0,.016-.009,0,0,.015-.009.005,0,.017-.01,0,0,.014-.008.005,0,.017-.01,0,0,.015-.009,0,0,.018-.01,0,0,.016-.009h0l.018-.011,0,0,.038-.021h0l.019-.011h0l.019-.011h0l.019-.01h0l.019-.011h0l.02-.011h0l.039-.021h0l.04-.021h0l.041-.021h0a9.908,9.908,0,0,1,2.89-.945h0l.047-.008h0l.168-.025h0l.047-.007h0l.047-.007h0l.024,0h0l.048-.006h0l.046-.006h0l.046-.006h0l.046,0h0l.024,0,.023,0,.025,0h0l.023,0h0l.026,0,.046,0h0l.046,0a.058.058,0,0,0,.026,0h0l.024,0a.079.079,0,0,0,.026,0l.021,0a.1.1,0,0,0,.024,0h0l.045,0,.027,0h0a.118.118,0,0,1,.026,0h.022l.023,0h.026a.052.052,0,0,0,.024,0,.108.108,0,0,0,.025,0,.222.222,0,0,1,.025,0h0l.027,0h.049a.074.074,0,0,1,.025,0,.1.1,0,0,1,.024,0,.12.12,0,0,0,.026,0,.177.177,0,0,1,.023,0h.049a.085.085,0,0,1,.027,0h.071c.006,0,.015,0,.023,0a.246.246,0,0,0,.027,0H24.9a.078.078,0,0,1,.026,0h.025a.07.07,0,0,0,.025,0,.065.065,0,0,0,.027,0h3.865v3H25A6.936,6.936,0,0,0,20.975-10555.724ZM43.864-10557h-10v-3h10Zm15,0h-10v-3h10Zm15,0h-10v-3h10Zm15,0h-10v-3h10Zm15,0h-10v-3h10Zm15,0h-10v-3h10Zm15,0h-10v-3h10Zm15,0h-10v-3h10Zm15,0h-10v-3h10Zm15,0h-10v-3h10Zm15,0h-10v-3h10Zm15,0h-10v-3h10Zm15,0h-10v-3h10Zm15,0h-10v-3h10Zm15,0h-10v-3h10Zm15,0h-10v-3h10Zm15,0h-10v-3h10Zm15,0h-10v-3h10Zm15,0h-10v-3h10Zm15,0h-10v-3h10Zm15,0h-10v-3h10Zm15,0h-10v-3h10Zm15,0h-10v-3h10Zm15,0h-10v-3h10Zm15,0h-10v-3h10Zm15,0h-10v-3h10Zm15,0h-10v-3h10Zm15,0h-10v-3h10Zm15,0h-10v-3h10Zm13,1.17A6.95,6.95,0,0,0,473-10557h-4.135v-3H473.1a.232.232,0,0,1,.026,0h.118a.057.057,0,0,1,.026,0h.07a.229.229,0,0,0,.026,0h.089a.074.074,0,0,0,.021,0,.084.084,0,0,1,.027,0h.047a.075.075,0,0,0,.021,0l.026,0h.021a.064.064,0,0,1,.027,0c.007,0,.013,0,.02,0a.07.07,0,0,1,.024,0h.023a.047.047,0,0,0,.023,0l.024,0a.061.061,0,0,1,.023,0,.069.069,0,0,1,.024,0h.022c.009,0,.017,0,.025,0a.055.055,0,0,1,.022,0l.026,0a.161.161,0,0,1,.021,0l.026,0a.076.076,0,0,0,.021,0,.08.08,0,0,0,.026,0l.021,0,.026,0a.155.155,0,0,1,.021,0l.026,0,.02,0a.119.119,0,0,1,.026,0l.021,0a.076.076,0,0,0,.026,0,.158.158,0,0,1,.021,0l.023,0a.067.067,0,0,1,.024,0l.023,0a.049.049,0,0,1,.024,0l.021,0a.221.221,0,0,0,.026,0c.006,0,.013,0,.02,0l.027,0,.02,0,.026,0,.02,0,.027,0a.062.062,0,0,0,.019,0,.09.09,0,0,0,.027,0l.019,0c.009,0,.018,0,.027,0l.019,0,.027,0a.043.043,0,0,0,.019,0l.039.007h.006l.039.007a.13.13,0,0,0,.019,0,.065.065,0,0,1,.027,0,.13.13,0,0,0,.019,0,.125.125,0,0,0,.027,0,.045.045,0,0,1,.019,0l.027,0a.063.063,0,0,0,.019,0h0l.023,0a.061.061,0,0,0,.018,0,.219.219,0,0,0,.027.006l.018,0,.027,0a.056.056,0,0,0,.018,0,.07.07,0,0,0,.028.006l.018,0h.005l.023,0,.017,0h0l.024,0a.1.1,0,0,1,.017,0h0l.027.006h0a.135.135,0,0,0,.018,0l.041.01h0l.042.01h0l.043.011h0l.043.011h0l.043.011h0l.042.011h0l.042.012h0l.043.012h0l.044.012h0l.045.013h0l.089.024h0l.015,0h0l.044.013h0l.043.013h0l.043.013h0l.043.013h0l.042.014h0l.041.013h0l.042.013h0l.042.014h0l.041.013h0l.041.014h0l.013,0h0l.025.008s.01,0,.016.006h0l.027.009a.124.124,0,0,1,.015.006h0l.025.009h0l.012,0h0l.024.009a.045.045,0,0,1,.015.006h0l.022.008,0,0a.061.061,0,0,1,.018.007l.021.008h0l.012,0,.006,0,.021.008h0l.011,0,.006,0,.021.008a.028.028,0,0,0,.015.006l.008,0,.018.007.017.007.017.007.009,0,.016.007.018.007.015.006.009,0c.006,0,.012,0,.018.008l.011,0,.013.006.009,0,.009,0,.012,0,.012,0a.128.128,0,0,0,.018.007l.014.006.009,0,.011,0,.007,0,.016.007.005,0,.014.006.006,0,.016.006,0,0,.015.006.005,0,.017.008h0l.016.007.006,0,.014.006,0,0,.017.008.005,0,.016.007h0l.018.008,0,0,.016.007h0l.018.008,0,0,.017.008h0l.019.008,0,0,.017.008h0l.019.009h0l.018.008h0l.019.009h0l.018.009h0l.04.019h0l.04.019h0a9.9,9.9,0,0,1,1.246.707Zm6.133,10.988h-3V-10550a6.9,6.9,0,0,0-.8-3.255l2.653-1.4q.164.309.306.632h0l.007.016h0l.007.017h0l.015.034h0l.006.015v0l.006.014v0l.007.016h0l.014.033,0,0,0,.012,0,.006,0,.011,0,0,.006.014v0l.006.016,0,.006,0,.01,0,.007,0,.01,0,.006,0,.01,0,.007,0,.012,0,.011,0,.008,0,.009,0,.007,0,.009,0,.007,0,.009,0,.006.013.034,0,0,0,.01,0,.006,0,.01,0,0,.02.051,0,0,0,.011v0l0,.013h0l.016.041v0l0,.012v0l0,.013v0l.02.056h0l0,.014h0a9.912,9.912,0,0,1,.481,1.917v0l.011.076h0l0,.015v0c0,.02.006.04.008.061h0l0,.014v0l0,.014v0l.007.06v0l0,.014v0l0,.014h0l.005.045v.049h0l0,.042v.04l0,.038v.057l0,.025v.068l0,.023v.594c0,.006,0,.012,0,.019v.043s0,.008,0,.012,0,0,0,.007,0,.009,0,.014,0,0,0,0v.019s0,0,0,0v.014s0,0,0,.007,0,.008,0,.012,0,0,0,.007,0,.008,0,.012v.007c0,.006,0,.012,0,.018Zm0,15h-3v-10h3Zm-10.081,8.015-2.049-2.19a18.3,18.3,0,0,1,10.671-4.878l.314,2.983a15.385,15.385,0,0,0-4.665,1.249h0l-.1.047h0l-.02.01h0l-.083.038h0l-.02.009h0l-.082.038h0l-.018.009h0l-.019.009h0l-.062.029h0l-.019.009h0l-.018.009h0l-.081.04h0l-.018.009h0l-.019.01h0l-.041.02h0l-.02.01h0l-.017.009,0,0-.017.009h0l-.06.03,0,0-.016.008,0,0-.016.009,0,0-.019.01h0l-.04.021,0,0-.016.009,0,0-.015.008,0,0-.017.009h0l-.04.021h0l-.017.009,0,0-.015.008-.005,0-.015.009,0,0-.018.01h0l-.02.01,0,0-.017.009,0,0-.015.008-.005,0-.014.008-.005,0-.017.009h0l-.02.011h0l-.019.01,0,0-.015.009-.005,0-.015.008,0,0-.016.009,0,0-.039.021,0,0-.015.009-.005,0-.014.008-.006,0-.014.008-.005,0-.018.011h0l-.02.012h0l-.017.011,0,0-.014.009-.006,0-.013.008-.006,0-.016.01h0l-.019.012h0l-.018.011,0,0-.015.008-.005,0-.013.008-.006,0-.014.009,0,0-.038.022,0,0-.015.009-.005,0-.014.008-.006,0-.014.008-.005,0-.017.011h0l-.019.011,0,0-.015.009-.006,0-.013.008-.006,0-.013.008-.006,0-.015.009,0,0-.019.012h0l-.017.011-.006,0-.012.007-.007,0-.012.007-.006,0-.013.009,0,0-.037.023-.005,0-.013.008-.006,0-.012.007-.006,0-.013.008-.005,0-.017.011h0l-.019.012,0,0-.014.009-.006,0-.013.009-.006,0-.013.009-.006,0-.015.01h0l-.019.013h0l-.017.011-.005,0-.013.009-.006,0-.013.009-.005,0-.015.01,0,0-.037.023,0,0-.014.01-.005,0-.013.009-.005,0-.014.009,0,0-.037.025h0l-.016.011,0,0-.013.01-.005,0-.013.01-.005,0-.015.011,0,0-.019.013h0l-.017.012,0,0-.014.01,0,0-.013.01-.005,0-.015.011,0,0-.036.025,0,0-.014.01,0,0-.014.01,0,0-.015.011,0,0-.037.026h0l-.017.012,0,0-.014.011,0,0-.015.011,0,0-.055.039,0,0-.015.012,0,0-.015.011,0,0-.017.012h0l-.037.027h0l-.016.012,0,0-.015.011,0,0-.016.012,0,0-.037.027h0l-.018.013,0,0-.016.012,0,0-.016.012,0,0-.054.041,0,0-.016.012,0,0-.016.013h0l-.055.042h0l-.017.014,0,0-.016.013h0l-.073.057h0l-.017.013h0l-.017.015h0l-.073.058h0l-.109.088h0Q473.314-10522.2,472.92-10521.828Zm-7.72,14.054a18.751,18.751,0,0,1-.2-2.727,18.525,18.525,0,0,1,2.234-8.824l2.636,1.433q-.129.237-.249.478h0l-.013.026h0l-.026.053v0l-.012.024v0l-.026.053h0l-.012.024,0,0-.011.023v0l-.024.051,0,0-.01.021,0,.006-.012.024h0l-.012.026,0,0-.01.021,0,.007-.009.02,0,.006-.012.025,0,0-.009.02,0,.009-.008.017,0,.009-.009.021,0,0-.01.023,0,.009-.007.016,0,.01-.008.018,0,.007-.01.023,0,.01-.007.016,0,.01-.006.015,0,.011-.008.019-.006.013-.007.016-.005.012-.006.013-.005.013-.006.014,0,.011-.009.022-.005.012-.005.012-.006.014,0,.011-.006.014-.005.013-.01.022,0,.011-.006.015,0,.009-.006.016,0,.008-.012.029,0,.008-.006.015,0,.01-.006.015,0,.009-.022.053,0,.007-.007.017,0,.008-.007.017,0,0-.014.035,0,0-.007.017,0,.008-.007.017,0,.006-.022.057,0,.006-.007.017,0,.007-.022.059v0l-.007.018,0,.006-.007.019v0l-.023.061,0,0-.007.019v0l-.022.061v0l-.007.02v0l-.03.083v0l-.007.021v0l-.03.085v0c-.01.028-.02.057-.03.086h0l-.037.108h0l-.029.087h0l-.028.087h0l-.007.021h0l-.028.088v0c-.009.028-.018.058-.027.087h0q-.03.1-.059.2h0l-.032.111h0l-.025.089h0l-.024.089h0l-.03.111h0l-.023.089h0c-.009.038-.019.074-.028.112h0l-.022.088v0l-.021.087v0l-.005.021h0l-.02.089v0c-.007.029-.013.059-.02.089v0l0,.021h0l-.014.067h0l0,.021v0l-.018.088v0l0,.021v0l-.013.066h0l0,.021v0l-.013.067h0l0,.021v0l0,.021v0l-.012.063v0l0,.02v0l-.011.063v0l0,.02v.006l0,.02h0l-.008.045h0l0,.02v.006l0,.02v0l-.01.063v.006l0,.019v.007l0,.019h0l-.007.042v0l0,.019v.008l0,.018v.008l-.009.058s0,.006,0,.009l0,.017v.009l0,.017v0l-.005.036v.008l0,.017v.01l0,.016v.011l0,.029v.01l0,.016v.011l0,.016v.011l0,.016v.008l0,.03v.012l0,.015v.012l0,.015,0,.013,0,.024,0,.014,0,.014,0,.013,0,.015v.012l0,.027v.011l0,.015v.012l0,.015v.013l0,.015,0,.014,0,.022,0,.015,0,.014v.04l0,.019,0,.02v.067l0,.021v.07l0,.016,0,.017,0,.02v.067l0,.024v.067l0,.021v.012l0,.021v.066l0,.025v.066l0,.026v.094l0,.026v.056s0,.007,0,.01v.146s0,.007,0,.01,0,.013,0,.019v.064s0,.006,0,.008v.059c0,.009,0,.018,0,.027v.093c0,.009,0,.018,0,.027v.065c0,.009,0,.019,0,.027v.058s0,0,0,.008,0,.017,0,.024v0c0,.009,0,.018,0,.027s0,.006,0,.009v.029q0,.01,0,.021s0,0,0,.007,0,.019,0,.027,0,0,0,.007,0,.015,0,.021,0,.006,0,.009,0,.014,0,.021,0,.006,0,.008v.028h0v.028s0,.01,0,.016v.028q0,.01,0,.021s0,0,0,.007v.044c0,.007,0,.015,0,.021s0,0,0,0,0,.011,0,.017,0,0,0,.007v.064s0,0,0,.007v.016s0,0,0,.007,0,.014,0,.021v.123s0,.009,0,.014v.668l0,.043v.05l0,.021v.049l0,.021v0l0,.019v0l0,.02v0l0,.022h0l0,.021v0l0,.019v0l0,.045v0l0,.021v0l0,.045h0l0,.022h0l.007.069h0q.035.333.083.662Zm10.163,13.9a18.486,18.486,0,0,1-5.138-3.738,18.529,18.529,0,0,1-3.217-4.491l2.673-1.362a15.5,15.5,0,0,0,2.167,3.19h0l.047.053h0l.016.018h0l.031.035h0l.015.017v0l.015.017h0l.031.034,0,0,.013.015,0,0,.031.033,0,0,.013.015,0,0,.013.014,0,0,.015.017h0l.014.016,0,0,.013.014,0,0,.031.032,0,0,.012.013,0,0,.012.013,0,0,.015.016,0,0,.012.013,0,0,.011.012,0,0,.015.016h0l.015.017,0,0,.011.012,0,0,.012.012,0,0,.015.016,0,0,.011.012,0,0,.011.012,0,0,.015.016.016.017,0,0,.011.012,0,0,.011.012,0,0,.012.012,0,0,.012.013,0,0,.013.014,0,0,.016.016h0a15.53,15.53,0,0,0,4.19,3.017Zm7.638,7.313h-3v-8.442h1.432l.017-.126c.44.058.884.1,1.332.117h.025l.024,0h.025a.1.1,0,0,1,.025,0h.073a.1.1,0,0,1,.025,0H483Zm-.009,15-3-.129c0-.1.007-.205.007-.307v-9.564h3v9.564s0,.01,0,.016v0s0,.009,0,.012v0s0,.008,0,.012v.019c0,.123,0,.246-.009.367v0Zm-9.719,9.563-.081-3a6.982,6.982,0,0,0,5.8-3.384l2.565,1.556a10,10,0,0,1-1.158,1.55h0l-.1.11h0l-.041.043h0l-.04.042,0,0-.009.009,0,0-.029.03h0l-.009.009,0,0-.008.008,0,0-.027.027,0,0-.008.008,0,0-.008.009,0,0-.017.017,0,0-.007.008,0,0-.008.007,0,0-.027.026,0,0-.008.008,0,0-.008.008,0,0-.014.014,0,0-.007.008,0,0-.007.007-.005,0-.007.007-.005,0-.013.013-.005,0-.007.007-.005,0-.007.007-.006,0-.008.008-.01.01-.006.006-.006,0-.007.007-.006.006-.006.006-.007.007-.011.01-.006.006-.007.006-.006.006-.007.006-.006.006-.007.007-.011.01-.006.006-.007.006-.006.006-.007.006-.006.006-.01.009,0,0-.01.01-.005,0-.008.007-.005,0-.007.007-.006,0-.012.011,0,0-.009.008-.005,0-.008.007-.005,0-.009.009-.006,0-.01.009-.005,0-.008.007-.006,0-.008.007-.006,0-.012.011-.005,0-.008.007-.006,0-.008.007-.005,0-.011.009,0,0-.013.011,0,0-.009.007,0,0-.009.008,0,0-.013.012,0,0-.01.008-.005,0-.009.007,0,0-.011.009,0,0-.013.011,0,0-.009.008,0,0-.01.008,0,0-.027.023,0,0-.011.009,0,0-.013.011h0l-.014.012h0l-.012.01,0,0-.011.009,0,0-.028.022,0,0-.011.009,0,0-.011.01,0,0-.014.011h0l-.012.011,0,0-.011.009,0,0-.029.022,0,0-.012.009,0,0-.012.01h0l-.014.012h0l-.013.01,0,0-.012.01,0,0-.029.021,0,0-.012.01,0,0-.013.01h0l-.029.022h0l-.013.011h0l-.03.022h0l-.014.011,0,0-.013.009v0l-.03.021h0l-.013.01,0,0-.045.032h0l-.014.011h0l-.031.021h0l-.014.01h0l-.046.032h0l-.062.043h0l-.047.032h0l-.016.011h0l-.048.032h0l-.048.032h0l-.015.01h0l-.048.031h0l-.064.041h0l-.048.03h0l-.049.03h0l-.016.01h0l-.049.03h0l-.065.04h0l-.049.029h0l-.015.009h0l-.049.028h0l-.016.009h0l-.033.019h0l-.016.009h0l-.05.028h0l-.067.037h0l-.187.1h0l-.051.026h0l-.051.026h0l-.017.009h0l-.052.025h0l-.052.026h0l-.017.009h0l-.052.025h0l-.069.033h0l-.052.024h0l-.017.008h0l-.053.024h0l-.053.024h0l-.07.031h0l-.053.023h0l-.018.008h0l-.107.046h0l-.072.029h0l-.071.028h0l-.054.021h0l-.018.007h0l-.036.014h0l-.018.007h0l-.054.021h0l-.073.027h0l-.055.02h0l-.018.006h0l-.055.02h0l-.055.02h0l-.018.007h0l-.055.019h0l-.073.024h0l-.055.018h0l-.075.024h0l-.056.017h0l-.018,0h0l-.056.018h0l-.056.017h0l-.017,0h0l-.056.016h0l-.056.016-.019.006h0l-.057.015h0l-.076.02h0A9.934,9.934,0,0,1,473.272-10462Z" transform="translate(771 12944)" fill="#fff"/><path d="M9.156-5.544c-.392.168-.42.224-.28.476.252.476.5.98.728,1.512C8.428-3.164,7.14-2.8,5.88-2.492v-4H9.716c1.54,0,2.212.056,2.38.056.28,0,.308-.028.308-.28,0-.168-.056-.98-.056-2.6v-3.36c0-1.764.056-2.548.056-2.716,0-.28-.028-.308-.308-.308-.168,0-.84.056-2.38.056h-.7v-.868a3.028,3.028,0,0,1,.112-.98.8.8,0,0,0,.168-.392c0-.14-.14-.28-.392-.308-.812-.084-1.68-.112-2.548-.14a9.215,9.215,0,0,1,.168,1.848v.84H6.412c-1.876,0-2.772-.056-2.94-.056-.28,0-.308.028-.308.308,0,.2.056,1.288.056,3.556V-1.96c-.672.112-1.316.2-2.016.252a19.079,19.079,0,0,0,.7,2.716c.084.252.224.336.392.336a.793.793,0,0,0,.448-.2A5.518,5.518,0,0,1,3.808.728c2.38-.7,4.452-1.344,6.608-2.1a5.225,5.225,0,0,0,.2.616c.084.308.168.392.56.2l1.484-.728c.336-.168.364-.224.252-.5a21.9,21.9,0,0,0-1.876-4.172c-.14-.252-.224-.28-.56-.14Zm.588-3H5.88v-1.568H9.744Zm0-5.1v1.568H5.88v-1.568ZM20.188-12.32a3.912,3.912,0,0,1,.2-1.652,1.3,1.3,0,0,0,.168-.644c0-.168-.14-.252-.448-.308-.98-.14-1.876-.2-2.856-.252a22.185,22.185,0,0,1,.14,3.08c0,4.844-1.456,9.24-5.964,12.152A5.94,5.94,0,0,1,12.88,1.6c.252.392.392.56.588.56.168,0,.364-.14.672-.364a14.437,14.437,0,0,0,5.1-8.456,16.321,16.321,0,0,0,5.32,8.4c.308.252.476.364.616.364.2,0,.308-.168.532-.588a6.345,6.345,0,0,1,1.428-1.82c-3.7-2.352-6.1-6.3-6.944-11.536Zm3.3-4.256a23.465,23.465,0,0,1-2.044,5.18,7.492,7.492,0,0,1,1.764.9c.308.224.476.336.588.336.168,0,.252-.2.448-.588a26.839,26.839,0,0,0,1.932-5.516A1.574,1.574,0,0,1,26.516-17a.734.734,0,0,0,.252-.532c0-.252-.14-.476-.756-1.064-.7-.616-.952-.756-1.176-.756a.941.941,0,0,0-.392.14,1.347,1.347,0,0,1-.588.112h-5.4c.168-.532.308-1.092.476-1.68.2-.784.28-1.036.476-1.232a.719.719,0,0,0,.28-.532c0-.2-.168-.308-.476-.392a22.739,22.739,0,0,0-2.716-.5,12.224,12.224,0,0,1-.308,2.1,19.514,19.514,0,0,1-3.556,7.7,7.593,7.593,0,0,1,1.568,1.2c.28.308.448.476.588.476.168,0,.308-.2.56-.56a21.575,21.575,0,0,0,2.212-4.06ZM9.324-22.484c.2-.084.308-.2.308-.392,0-.168-.168-.28-.476-.336-.644-.14-1.652-.308-2.464-.42a4.386,4.386,0,0,1-.588,1.2A16.18,16.18,0,0,1,.952-17.584a5.922,5.922,0,0,1,.784,1.96c.084.364.168.5.308.5a1.224,1.224,0,0,0,.616-.28,20.1,20.1,0,0,0,5.152-5.04,26.017,26.017,0,0,0,4.116,3.92c.308.224.476.336.616.336.168,0,.28-.224.448-.644A4.776,4.776,0,0,1,14.028-18.4a20.668,20.668,0,0,1-4.9-3.976Zm41.86,12.04a23.218,23.218,0,0,0-5.432-1.4c.84-2.016,1.624-4.2,2.352-6.1A3.806,3.806,0,0,1,48.86-19.4a.721.721,0,0,0,.28-.476.672.672,0,0,0-.252-.476,9.358,9.358,0,0,0-1.9-1.54.643.643,0,0,0-.392-.112.616.616,0,0,0-.364.112,3.229,3.229,0,0,1-1.372.476,31.247,31.247,0,0,1-4.34.364,10.434,10.434,0,0,1-2.464-.168,16.971,16.971,0,0,0,.812,3.052.454.454,0,0,0,.448.308,1.474,1.474,0,0,0,.5-.112,5.878,5.878,0,0,1,1.26-.308c.924-.112,2.324-.28,3.864-.448-.7,2.352-1.4,4.312-2.324,6.636-4.676,0-8.26,2.716-8.26,6.188,0,2.716,1.708,3.836,3.332,3.836a4.6,4.6,0,0,0,3.584-1.54c1.12-1.12,1.932-2.52,3.416-5.6A18.933,18.933,0,0,1,50.232-7.5C49.168-4.676,47.46-2.352,43.96.084A5.77,5.77,0,0,1,46.4,1.232a.765.765,0,0,0,.42.2c.168,0,.308-.112.56-.308a17.187,17.187,0,0,0,5.656-7.364A22.754,22.754,0,0,1,56.7-3.612a.534.534,0,0,0,.336.2c.084,0,.168-.056.252-.2a24.126,24.126,0,0,0,1.2-2.408c.084-.28.112-.42-.168-.588A32.4,32.4,0,0,0,53.956-9.3c.28-1.2.56-2.436.784-3.612A4.71,4.71,0,0,1,55.188-14a.527.527,0,0,0-.2-.756,12.075,12.075,0,0,0-3.248-1.2,8.762,8.762,0,0,1,.028,1.9A27.7,27.7,0,0,1,51.184-10.444ZM41.636-9.436A19.141,19.141,0,0,1,39.592-6.02a2.261,2.261,0,0,1-1.624,1.064c-.672,0-.98-.392-.98-1.288C36.988-7.84,38.78-9.324,41.636-9.436ZM91.2-18c0-.28-.028-.308-.28-.308-.168,0-1.064.056-3.668.056H82.656c.28-.812.5-1.624.7-2.436a4.3,4.3,0,0,1,.56-1.4.583.583,0,0,0,.2-.42c0-.168-.168-.28-.532-.392-.812-.2-1.68-.392-2.6-.56A16.8,16.8,0,0,1,80.5-20.5a21.684,21.684,0,0,1-3.584,7.98c0-.308.028-.616.056-.9,0-.28-.056-.336-.336-.336-.168,0-.56.056-1.9.056h-3.22c.056-.9.056-1.848.084-2.828h2.8c2.352,0,3.108.056,3.276.056.28,0,.308-.028.308-.336v-2.072c0-.28-.028-.308-.308-.308-.168,0-.924.056-3.276.056h-.9v-1.54a4.92,4.92,0,0,1,.168-1.708,1.43,1.43,0,0,0,.168-.56c0-.112-.168-.252-.448-.28-1.036-.112-1.9-.14-2.968-.168a12.145,12.145,0,0,1,.224,2.716v1.54h-1.2c-2.352,0-3.136-.056-3.3-.056-.28,0-.308.028-.308.308V-16.8c0,.308.028.336.308.336.14,0,.84-.028,2.744-.056C68.768-9.128,68.432-4.312,65.408-.5A5.512,5.512,0,0,1,66.976,1.2c.252.308.392.476.532.476s.28-.168.476-.476c2.268-3.3,3.08-7.084,3.416-12.348h2.8a49.723,49.723,0,0,1-.588,8.316c-.2,1.148-.5,1.512-1.344,1.512a9.621,9.621,0,0,1-1.932-.2A6.1,6.1,0,0,1,70.98.7c.112.728.14.784.756.812.42.028.812.028,1.232.028A2.746,2.746,0,0,0,75.544-.084,4.855,4.855,0,0,1,76.86,1.54c.252.448.336.644.56.644a1.762,1.762,0,0,0,.644-.252,20.213,20.213,0,0,0,6.188-4.788,25.031,25.031,0,0,0,5.04,4.536,1.476,1.476,0,0,0,.672.308c.2,0,.308-.2.5-.644A7.437,7.437,0,0,1,91.784-.812a21.693,21.693,0,0,1-5.8-4.4,23.309,23.309,0,0,0,2.968-10.528c1.288.028,1.82.056,1.96.056.252,0,.28-.028.28-.308Zm-14.308,6.5a12.4,12.4,0,0,1,.924,1.176c.2.28.308.42.42.42.14,0,.308-.168.56-.532.392-.532.756-1.092,1.092-1.652a24.824,24.824,0,0,0,2.66,6.86A17.769,17.769,0,0,1,75.6-.168a4.467,4.467,0,0,0,.28-.644c.644-1.652.98-5.964,1.008-9.576Zm4.844-4.228h4.34A21.043,21.043,0,0,1,84.2-7.728,22.771,22.771,0,0,1,81.7-15.652Zm33.544-4.2a15.392,15.392,0,0,1-.616,1.82c-1.988,0-2.66-.056-2.828-.056-.28,0-.308.028-.308.308,0,.168.056.98.056,2.94v5.768c0,1.932-.056,2.772-.056,2.94,0,.28.028.308.308.308.168,0,.868-.056,3-.056h3.808c2.128,0,2.828.056,3.024.056.28,0,.308-.028.308-.308,0-.168-.056-1.008-.056-2.94v-5.768c0-1.96.056-2.772.056-2.94,0-.28-.028-.308-.308-.308-.2,0-.9.056-3.024.056h-1.26a14.632,14.632,0,0,0,.7-1.82h1.54c2.408,0,3.22.056,3.388.056.28,0,.308-.028.308-.28v-1.932c0-.28-.028-.308-.308-.308-.168,0-.98.056-3.388.056H114.24c-2.408,0-3.22-.056-3.388-.056-.308,0-.336.028-.336.308v1.932c0,.252.028.28.336.28.168,0,.98-.056,3.388-.056Zm4.06,11.984H114.1V-9.52h5.236ZM114.1-11.34v-1.484h5.236v1.484Zm0-4.76h5.236v1.456H114.1Zm3.332,11.2c-.28.224-.336.308-.112.532a15.392,15.392,0,0,0,3.892,2.744,2.2,2.2,0,0,0,.644.224,77.034,77.034,0,0,1-8.456.42,24.631,24.631,0,0,1-7-.728v-3.22h1.232c1.512,0,1.9.056,2.072.056.28,0,.308-.028.308-.308V-7c0-.28-.028-.308-.308-.308-.168,0-.56.056-2.072.056H106.4v-2.38h.588c2.408,0,3.22.056,3.388.056.28,0,.308-.028.308-.308v-1.9c0-.28-.028-.308-.308-.308-.168,0-.98.056-3.388.056h-5.32c-2.408,0-3.22-.056-3.388-.056-.252,0-.28.028-.28.308v1.9c0,.28.028.308.28.308.168,0,.98-.056,3.388-.056h2.1v6.58a7.518,7.518,0,0,1-1.82-2.044l.2-1.512a2.171,2.171,0,0,1,.2-.784.9.9,0,0,0,.168-.5c0-.14-.14-.252-.476-.308-.756-.14-1.568-.308-2.324-.392a13.965,13.965,0,0,1-.028,1.568c-.308,3.192-.924,5.4-2.352,7.252A8.461,8.461,0,0,1,98.98,1.372c.28.28.42.392.56.392s.252-.168.476-.532a15.557,15.557,0,0,0,1.428-3.7,8.328,8.328,0,0,0,2.6,2.38c2.072,1.232,5.1,1.736,9.436,1.736,3.108,0,5.824-.056,8.68-.308.9-.056.9-.056,1.064-.98a9.146,9.146,0,0,1,.784-2.016c-.7.112-1.428.2-2.072.252.168-.084.224-.14.56-.728a5.743,5.743,0,0,1,.98-1.232A12.106,12.106,0,0,1,119.112-5.8c-.112-.084-.168-.14-.252-.14-.112,0-.2.056-.364.2Zm-14.84-17.444c-2.1,0-2.828-.056-3.024-.056-.28,0-.308.028-.308.308,0,.168.056.84.056,2.436v3.444c0,1.624-.056,2.268-.056,2.464,0,.28.028.308.308.308.2,0,.924-.056,3.024-.056h3.7c2.1,0,2.828.056,3,.056.252,0,.28-.028.28-.308,0-.168-.056-.84-.056-2.464v-3.444c0-1.6.056-2.268.056-2.436,0-.28-.028-.308-.28-.308-.168,0-.9.056-3,.056Zm4.284,6.944s-3.717.4-4.956,0,0-1.6,0-1.6h4.956Zm-4.956-3.472v-1.512h4.956v1.512ZM113.792-5.908a5.407,5.407,0,0,1-.9.9,13.407,13.407,0,0,1-3.7,1.988,6.473,6.473,0,0,1,1.036,1.288c.224.336.308.5.5.5a2.018,2.018,0,0,0,.672-.224,17.48,17.48,0,0,0,3.416-2.072,2.327,2.327,0,0,1,.588-.448c.2-.084.336-.168.336-.364,0-.168-.112-.252-.308-.42A14.378,14.378,0,0,0,113.792-5.908Z" transform="translate(829 2446)" fill="#fff"/><path d="M11.228-16.884H9.548V-9.24H1.876v1.624H9.548V.056h1.68V-7.616H18.9V-9.24H11.228Z" transform="translate(1032 2446)" fill="#fff"/><path d="M18-11.3c0-2.56.04-3.9.04-4.02,0-.22-.02-.24-.22-.24-.12,0-.8.04-2.7.04H4.98c-1.9,0-2.58-.04-2.72-.04-.2,0-.22.02-.22.24,0,.12.04,1.38.04,3.94v8.56c0,2.56-.04,3.78-.04,3.92,0,.2.02.22.22.22H4c.22,0,.24-.02.24-.22,0-.12-.04-1.24-.04-3.42V-6.58H15.88v5c0,.5-.18.68-.78.68-.48,0-1.42-.02-2.26-.1A5.787,5.787,0,0,1,13.36.54c.12.62.14.64.78.64,2.12,0,2.78-.14,3.26-.52A1.889,1.889,0,0,0,18.04-1c0-.68-.04-1.72-.04-3.46Zm-2.12-2.26v5.04h-4.9v-5.04ZM4.2-8.52v-5.04H8.9v5.04Z" transform="translate(1187 2446)" fill="#fff"/><path d="M3.838-4.18H9.12V-19.19l.57-2.584L7.866-19.532,4.484-17.214l-2.09-2.85,8.664-6.992h2.774V-4.18H19V0H3.838Zm23.1,1.748A2.607,2.607,0,0,1,27.8-4.484a3.06,3.06,0,0,1,2.109-.76A3.129,3.129,0,0,1,32.414-4.18a4.171,4.171,0,0,1,.912,2.812,7.414,7.414,0,0,1-.532,2.945,6.884,6.884,0,0,1-1.311,2.052,6.6,6.6,0,0,1-1.672,1.292,9.772,9.772,0,0,1-1.615.7L26.752,3.572A4.4,4.4,0,0,0,28.538,2.2,3.6,3.6,0,0,0,29.374.19a2.094,2.094,0,0,1-1.653-.532A2.567,2.567,0,0,1,26.942-2.432ZM46.17-3.838a5.5,5.5,0,0,0,3.838-1.216A4.3,4.3,0,0,0,51.338-8.4a3.763,3.763,0,0,0-1.558-3.344,7.844,7.844,0,0,0-4.446-1.064l-3,.114V-26.6H55.4v4.636H46.588v5.13l1.558-.152a9.987,9.987,0,0,1,3.363.684,7.485,7.485,0,0,1,2.565,1.691,7.306,7.306,0,0,1,1.634,2.622,9.842,9.842,0,0,1,.57,3.439,9.648,9.648,0,0,1-.76,3.952,7.835,7.835,0,0,1-2.109,2.85,9.021,9.021,0,0,1-3.173,1.71,13.321,13.321,0,0,1-3.99.57A17.825,17.825,0,0,1,43,.247a10.957,10.957,0,0,1-2.6-.779l1.33-4.1a9.449,9.449,0,0,0,1.919.589A13.1,13.1,0,0,0,46.17-3.838Zm18.506-9.5q0-6.992,2.394-10.393a7.9,7.9,0,0,1,6.878-3.4q4.788,0,7.03,3.363T83.22-13.338q0,7.03-2.413,10.45a7.933,7.933,0,0,1-6.9,3.42,7.652,7.652,0,0,1-6.992-3.591Q64.676-6.65,64.676-13.338Zm4.94,0a20.067,20.067,0,0,0,1.007,7.163,3.451,3.451,0,0,0,3.325,2.527,3.448,3.448,0,0,0,3.287-2.318q1.045-2.318,1.045-7.372a20.117,20.117,0,0,0-.988-7.106,3.46,3.46,0,0,0-3.382-2.508A3.406,3.406,0,0,0,70.623-20.6,19.576,19.576,0,0,0,69.616-13.338Zm20.406,0q0-6.992,2.394-10.393a7.9,7.9,0,0,1,6.878-3.4q4.788,0,7.03,3.363t2.242,10.431q0,7.03-2.413,10.45a7.933,7.933,0,0,1-6.9,3.42,7.652,7.652,0,0,1-6.992-3.591Q90.022-6.65,90.022-13.338Zm4.94,0a20.067,20.067,0,0,0,1.007,7.163,3.451,3.451,0,0,0,3.325,2.527,3.448,3.448,0,0,0,3.287-2.318q1.045-2.318,1.045-7.372a20.117,20.117,0,0,0-.988-7.106,3.46,3.46,0,0,0-3.382-2.508A3.406,3.406,0,0,0,95.969-20.6,19.576,19.576,0,0,0,94.962-13.338Z" transform="translate(1066 2447)" fill="#fff"/><path d="M12.825-14.283a8.256,8.256,0,0,1-.5,2.781,17.2,17.2,0,0,1-1.269,2.754,25.868,25.868,0,0,1-1.7,2.605Q8.424-4.887,7.533-3.834L6.1-2.727v.135L8.046-2.97H13.23V0H1.863V-1.809q.648-.675,1.458-1.579T4.955-5.306Q5.778-6.318,6.561-7.4a23.357,23.357,0,0,0,1.4-2.174,13.391,13.391,0,0,0,.985-2.12,5.812,5.812,0,0,0,.365-1.944,2.645,2.645,0,0,0-.634-1.822,2.559,2.559,0,0,0-2.012-.716,4.713,4.713,0,0,0-1.768.365,5.016,5.016,0,0,0-1.526.932l-1.4-2.484a8.852,8.852,0,0,1,2.39-1.391,8.56,8.56,0,0,1,3.145-.526,6.711,6.711,0,0,1,2.133.324,4.768,4.768,0,0,1,1.674.945,4.358,4.358,0,0,1,1.107,1.553A5.414,5.414,0,0,1,12.825-14.283ZM29.16,0V-7.668a4.636,4.636,0,0,0-.459-2.376,1.821,1.821,0,0,0-1.674-.729,2.522,2.522,0,0,0-1.634.607,2.881,2.881,0,0,0-.986,1.553V0H20.9V-18.9h3.51v6.912h.108a4.879,4.879,0,0,1,1.593-1.377,5,5,0,0,1,2.4-.513,5.544,5.544,0,0,1,1.809.27,2.941,2.941,0,0,1,1.309.891,4.032,4.032,0,0,1,.783,1.688A11.463,11.463,0,0,1,32.67-8.4V0Z" transform="translate(971 2447)" fill="#fff"/></g><path d="M1198.2,13220.664a1.5,1.5,0,0,1-1.5-1.5v-8.6a1.5,1.5,0,0,1,3,0v8.6A1.5,1.5,0,0,1,1198.2,13220.664Z" transform="translate(0 -10560)" fill="#fff"/><path d="M1198.2,13220.664a1.5,1.5,0,0,1-1.5-1.5v-8.6a1.5,1.5,0,0,1,3,0v8.6A1.5,1.5,0,0,1,1198.2,13220.664Z" transform="matrix(0.927, 0.375, -0.375, 0.927, 5049.623, -10046.6)" fill="#fff"/><path d="M1198.2,13220.664a1.5,1.5,0,0,1-1.5-1.5v-8.6a1.5,1.5,0,0,1,3,0v8.6A1.5,1.5,0,0,1,1198.2,13220.664Z" transform="translate(10238.005 -7071.046) rotate(48)" fill="#fff"/></g></svg>