<svg xmlns="http://www.w3.org/2000/svg" width="256.281" height="132.405" viewBox="0 0 256.281 132.405"><g transform="translate(-80.52 -1684.909)"><path d="M308.247,1767.914h-.006a1,1,0,0,1-.994-1.005,76.465,76.465,0,0,1,1.623-13.19,109.433,109.433,0,0,1,10.99-30.475c6.414-11.876,11.642-20.195,14.9-25.081,3.542-5.315,5.539-7.781,5.622-7.884a1,1,0,0,1,1.552,1.262c-.028.035-2.046,2.531-5.536,7.771-3.228,4.846-8.412,13.1-14.777,24.883a107.429,107.429,0,0,0-10.788,29.914,75.838,75.838,0,0,0-1.585,12.811A1,1,0,0,1,308.247,1767.914Z" transform="translate(-12.079 -5)" fill="#fff"/><path d="M16.625-1.52a6.5,6.5,0,0,1-.646-.437,16.631,16.631,0,0,0-5.3-2.774c-.076-1.843-.076-1.843-.114-2.907,1.406-.1,2.907-.247,4.218-.456.665-.1.855-.114,1.1-.133l-.076-1.311a22.933,22.933,0,0,1-5.263.779c-.019-1.007-.019-1.007-.038-2.565a39.47,39.47,0,0,0,4.408-.456c.988-.133.988-.133,1.311-.152l-.095-1.292a26.784,26.784,0,0,1-5.624.779,21.2,21.2,0,0,1,.133-2.679H9.177a14.878,14.878,0,0,1,.1,2.736c-.627,0-1.273.019-1.653.019a23.6,23.6,0,0,1-4.864-.38l-.019,1.292A1.552,1.552,0,0,1,3-11.476a2.305,2.305,0,0,1,.342.019c1.71.133,3.249.19,4.636.19.437,0,.741,0,1.292-.019l.038,2.6c-.532.019-1.2.019-1.691.019a23.319,23.319,0,0,1-4.351-.3L3.249-7.714H3.4c.114,0,.266,0,.475.019,1.178.1,2.071.133,3.211.133.608,0,1.558-.019,2.242-.038.019.494.019.855.038,1.1.019.551.019.95.038,1.121a1.514,1.514,0,0,0,.019.209c0,.171,0,.171.019.228a8.451,8.451,0,0,0-1.71-.152,8.276,8.276,0,0,0-1.976.19C4.085-4.522,3.1-3.534,3.1-2.28A2.485,2.485,0,0,0,4.123-.285a4.949,4.949,0,0,0,2.945.76,3.825,3.825,0,0,0,3.211-1.2,3.3,3.3,0,0,0,.475-2.071,5.463,5.463,0,0,0-.038-.684c.513.209.95.4,1.273.57A15.289,15.289,0,0,1,15.865-.19ZM9.462-3.059a2.489,2.489,0,0,1-.38,1.71,2.745,2.745,0,0,1-2.09.627c-1.653,0-2.6-.57-2.6-1.577S5.624-3.99,7.505-3.99a6.975,6.975,0,0,1,1.938.209ZM29.469-12.6c-.988.019-2.679.076-4.6.152-3.059.114-3.059.114-3.61.114-.285,0-.418,0-.76-.019l.057,1.387c.608-.152,5.928-.437,8.93-.475v.988c0,.247.019.4.019.494,0,.684,0,.741.019,1.045a2.917,2.917,0,0,0-2.2-.855A3.166,3.166,0,0,0,23.94-6.631a2.961,2.961,0,0,0,3.135,3,3.023,3.023,0,0,0,2.394-1.026,2.661,2.661,0,0,0,.513-.931c-.095,2.66-1.748,4.389-5.206,5.434a4.171,4.171,0,0,1,.836,1.2,12.085,12.085,0,0,0,3-1.539A6.115,6.115,0,0,0,31.16-5.453,5.444,5.444,0,0,0,30.7-7.7v-3.762c1.52-.038,1.748-.038,2.033-.038a33.769,33.769,0,0,1,3.629.1v-1.349a10.6,10.6,0,0,1-1.254.1l-3.344.019c-.323,0-.361,0-1.083.019v-.209A15.729,15.729,0,0,1,30.78-15.2H29.355a5.994,5.994,0,0,1,.076,1.1l.038,1.33ZM27.341-8.683a2.924,2.924,0,0,1,1.273.285,1.42,1.42,0,0,1,.8,1.349,2.129,2.129,0,0,1-2.223,2.242,1.852,1.852,0,0,1-1.976-1.881A2.016,2.016,0,0,1,27.341-8.683Zm5.016-7.106a14.047,14.047,0,0,1,1.9,2.641l.931-.589a15.072,15.072,0,0,0-1.9-2.584Zm2.717-.38a16.355,16.355,0,0,1,1.957,2.831l.95-.551a16.966,16.966,0,0,0-2-2.812Zm9.9,6.365h.076a.872.872,0,0,1,.19.019,2.829,2.829,0,0,1,.323.019,4.983,4.983,0,0,1,.608.038c.665.038,1.368.057,2.147.057.722,0,1.311-.019,2.166-.057.057,2.774.133,4.56.19,4.959a5.367,5.367,0,0,0-2.109-.38c-2.109,0-3.61,1.121-3.61,2.7,0,1.653,1.387,2.7,3.591,2.7a3.244,3.244,0,0,0,3.173-1.6,3.275,3.275,0,0,0,.228-1.292,2.726,2.726,0,0,0-.038-.494,1.334,1.334,0,0,1,.171.114,1.219,1.219,0,0,0,.19.114,10.267,10.267,0,0,1,2.7,1.976l.589-1.33c-.209-.133-.247-.171-.475-.323a13.753,13.753,0,0,0-3.173-1.862c-.152-2.527-.19-3.5-.209-5.377a18.164,18.164,0,0,0,2.014-.3c1.292-.266,1.292-.266,1.33-.266l-.057-1.292a12.95,12.95,0,0,1-3.287.7c-.019-.418-.019-.722-.019-.931a19.44,19.44,0,0,1,.133-2.983H50.388a4.215,4.215,0,0,1,.057.779c0,1.444,0,1.444.019,3.23-.779.038-1.292.057-2.033.057a13.152,13.152,0,0,1-3.42-.3ZM50.692-3.61s.019.437.019.57a2.219,2.219,0,0,1-.361,1.482,2.619,2.619,0,0,1-1.938.665c-1.33,0-2.2-.608-2.2-1.539,0-.95.969-1.577,2.451-1.577A4.907,4.907,0,0,1,50.692-3.61ZM41.61-14.915a8.752,8.752,0,0,1-.209,1.2,32.193,32.193,0,0,0-.988,7.809,30.245,30.245,0,0,0,.532,5.643c.076.437.1.532.114.7L42.408.3a2.07,2.07,0,0,1-.038-.38A16.407,16.407,0,0,1,44-5.472l-.931-.437a2.62,2.62,0,0,1-.152.38A16.866,16.866,0,0,0,41.8-2.185L41.724-2.2v-.361c-.019-.342-.019-.38-.019-.532-.038-.874-.076-1.995-.076-2.66a27.073,27.073,0,0,1,1.463-8.911ZM71.231-1.368v1.14h1.52a12.731,12.731,0,0,1-.1-1.729v-9.728c0-.684,0-1.007.038-1.482-.475.019-.741.038-.988.038h-9.12a10.393,10.393,0,0,1-2.185-.133v1.52a15.929,15.929,0,0,1,2.185-.1h8.645V-2.66H62.187a9.29,9.29,0,0,1-2.071-.133v1.5a15.286,15.286,0,0,1,2.033-.076Zm9.1-13.224a9.82,9.82,0,0,1,.057,1.026v.7L80.351-1.976a3.646,3.646,0,0,1-.133,1.235l.76.95a4.774,4.774,0,0,1,1.1-.285c5.073-.988,7.866-2.755,10.469-6.631A4.839,4.839,0,0,1,91.5-7.9a11.5,11.5,0,0,1-4.275,4.56,14.345,14.345,0,0,1-5.434,1.9L81.852-12.9a11.706,11.706,0,0,1,.1-1.691ZM105.2-3.553c-.038-.475-.057-.817-.057-1.159,0-.076,0-.076.019-.874l.152-6.764c.019-.8.057-1.368.114-2.09H103.55c.076.722.1,1.292.114,2.09l.171,6.764V-4.9c0,.627,0,.76-.038,1.349ZM105.431,0V-1.786h-1.843V0ZM11.362,23.6v4.94a12.372,12.372,0,0,1-.114,1.843h1.387a12.454,12.454,0,0,1-.114-1.824V23.2l3.268-1.159c-.038,1.672-.114,3.173-.228,4.237-.152,1.5-.209,1.634-.836,1.634A7.525,7.525,0,0,1,13.2,27.7a5.027,5.027,0,0,1,.323,1.216,12.092,12.092,0,0,0,1.368.076c1.216,0,1.539-.361,1.729-1.957.133-1.121.3-4.1.342-5.757,0-.247.019-.551.038-.836a10.657,10.657,0,0,1-1.5.608l-2.983,1.026V19.054a11.99,11.99,0,0,1,.114-1.767H11.248a12.362,12.362,0,0,1,.114,1.767v3.42l-2.774.969v-2.28A12.752,12.752,0,0,1,8.7,19.282H7.277a13.8,13.8,0,0,1,.114,1.938v2.622l-.532.19a9.471,9.471,0,0,1-1.653.4l.266,1.311a10.382,10.382,0,0,1,1.577-.627L7.391,25v6.916a1.4,1.4,0,0,0,.3,1.045,2.485,2.485,0,0,0,1.558.57,26.6,26.6,0,0,0,2.755.114c2.926,0,4.18-.152,4.788-.57.513-.361.817-1.216,1.121-3.135a3.951,3.951,0,0,1-1.235-.475c-.133,1.672-.38,2.47-.817,2.717s-1.406.342-3.781.342a14.529,14.529,0,0,1-2.793-.152c-.57-.114-.7-.266-.7-.741V24.583ZM3.1,32.145a19.027,19.027,0,0,1-.114,2.3H4.408c-.057-.646-.1-1.368-.1-2.261V21.961a20.214,20.214,0,0,0,1.463-3.382c.228-.646.285-.817.4-1.083l-1.33-.418a12.152,12.152,0,0,1-.8,2.7A17.163,17.163,0,0,1,.38,25.438a5.856,5.856,0,0,1,.8,1.026,15.735,15.735,0,0,0,1.995-2.85c-.057.969-.076,1.6-.076,2.28Zm25.8-4.674H26.258a12.375,12.375,0,0,1-1.615-.076,13.411,13.411,0,0,1,.076,1.653v3.021a16.463,16.463,0,0,1-.114,2.28H25.9v-.912H34.1v.912H35.4a16.4,16.4,0,0,1-.114-2.3V29.124a14.576,14.576,0,0,1,.076-1.729,12.241,12.241,0,0,1-1.6.076H30.077V24.488h4.37a11.256,11.256,0,0,1,1.824.114V23.291a10.538,10.538,0,0,1-1.862.114H30.077v-.874a8.2,8.2,0,0,1,.1-1.71H28.8a8.334,8.334,0,0,1,.095,1.691Zm-3,1.083H34.1v3.8H25.9Zm2.394-9.386H23.712c-.76,0-1.387-.038-2-.095a21.777,21.777,0,0,1,.076,2.3c0,6.992-.418,9.576-1.957,11.894a4.146,4.146,0,0,1,1.045.893c1.71-2.888,2.109-5.434,2.128-13.908h11.78a14.214,14.214,0,0,1,2.109.1V19.054a13.569,13.569,0,0,1-2.109.114h-5.3v-.817a5.811,5.811,0,0,1,.114-1.33H28.177a6.162,6.162,0,0,1,.114,1.33Zm14.117-.855a5.992,5.992,0,0,1,.076,1.007c0,.323,0,.665-.019,1.235-.152,5.985-.171,6.46-.171,7.733,0,2,.266,3,1.045,3.895a4.506,4.506,0,0,0,3.572,1.33,6.7,6.7,0,0,0,5.358-2.356,11.875,11.875,0,0,0,2.109-4.313,6.452,6.452,0,0,1-1.368-.931,10.848,10.848,0,0,1-.931,2.983A5.457,5.457,0,0,1,46.987,32.2a3.586,3.586,0,0,1-2.375-.741,2.991,2.991,0,0,1-.893-2.28c-.019-.418-.038-.912-.038-1.14,0-.855.057-3.439.133-5.719a28.618,28.618,0,0,1,.247-3.99Zm6,.912a14.816,14.816,0,0,1,1.938,3.021l.969-.57a15.252,15.252,0,0,0-1.957-2.945Zm2.109-1.083a14.233,14.233,0,0,1,1.938,2.983l.969-.551a16.283,16.283,0,0,0-1.976-2.945Zm9.823,8.949a15.657,15.657,0,0,1,2.85-1.083,56.021,56.021,0,0,1,1.881,8.227l1.349-.3a7.652,7.652,0,0,1-.38-1.406c-.456-2.166-.817-3.629-1.463-5.814-.152-.513-.247-.874-.3-1.045.988-.3,1.615-.494,1.862-.551a13.655,13.655,0,0,1,3.268-.513c1.368,0,2.223.7,2.223,1.8,0,1.216-1.007,2.052-2.47,2.052a5.188,5.188,0,0,1-2.679-.76,4.456,4.456,0,0,1,.133,1.007,1.879,1.879,0,0,1-.019.285,6.4,6.4,0,0,0,2.6.589c2.09,0,3.629-1.33,3.629-3.173,0-1.71-1.311-2.869-3.23-2.869a11.8,11.8,0,0,0-1.292.076,17.032,17.032,0,0,1,.1-2.47H67.146a18.129,18.129,0,0,1,.057,2.641,25.949,25.949,0,0,0-3.23.874c-.114-.323-.114-.323-.209-.646-.361-1.064-.361-1.064-.437-1.273a6.506,6.506,0,0,1-.285-.988l-1.292.4a17.009,17.009,0,0,1,1.121,2.831c-1.216.38-1.881.589-2.014.646a5.991,5.991,0,0,1-.95.266Zm24.4-3.268H80.1V20.251a9.754,9.754,0,0,1,.076-1.406H78.755a13.468,13.468,0,0,1,.1,1.463V24.07c0,.323-.019.608-.038.969.4-.019.836-.038,1.178-.038h4.75v6.954H79.325V28.44a9.55,9.55,0,0,1,.1-1.615H77.976a10.549,10.549,0,0,1,.1,1.691V32.7a9.988,9.988,0,0,1-.114,1.6h1.368v-1.14h12.35v1.14h1.368a9.5,9.5,0,0,1-.114-1.6V28.4a10.549,10.549,0,0,1,.1-1.691H91.58a10.076,10.076,0,0,1,.1,1.634v3.61H86.013V25h5.111c.361,0,.8.019,1.178.038-.019-.323-.038-.589-.038-.969V20.289a9.371,9.371,0,0,1,.1-1.444H90.934a10.342,10.342,0,0,1,.076,1.387v3.591h-5V19.016a8.621,8.621,0,0,1,.133-1.729H84.607a7.684,7.684,0,0,1,.133,1.729Zm15.124-5.282a20.2,20.2,0,0,1,.1,2.831v1.235c-2,.171-3.173.247-3.515.247a4.052,4.052,0,0,1-.418-.019l.114,1.33a38.292,38.292,0,0,1,3.819-.4v2.375a20.049,20.049,0,0,0,.247,4.5c.494,1.71,1.938,2.356,5.32,2.356a32.285,32.285,0,0,0,4.807-.4c.456-.057.494-.076.76-.1l-.152-1.463a17.226,17.226,0,0,1-5.282.7,10.557,10.557,0,0,1-2.964-.323,1.632,1.632,0,0,1-1.273-1.235,29.134,29.134,0,0,1-.19-4.788V23.69c2.527-.171,3.895-.247,6.194-.323a17.277,17.277,0,0,1-.228,2.926c-.171.931-.4,1.235-.931,1.235a5.4,5.4,0,0,1-2.489-1.045c.019.38.038.57.038.779,0,.19-.019.285-.038.57a5.45,5.45,0,0,0,2.641.874,1.906,1.906,0,0,0,1.919-1.672,18.066,18.066,0,0,0,.342-3.705c.608,0,1.026-.019,1.33-.019.627-.019,1.121-.019,1.292-.019.8,0,.912,0,1.425.038l-.038-1.349c-.627.076-2.109.133-3.971.171v-.513l.019-1.235v-.8a10.28,10.28,0,0,1,.076-1.463H107.35a18.208,18.208,0,0,1,.114,2.888c0,.228,0,.437-.019.646v.532c-2.375.095-3.135.133-6.213.3a21.987,21.987,0,0,1,.171-3.971Zm20.406-.95a19.548,19.548,0,0,1-.646,3.572c-.361,0-.988.019-1.368.019A12.006,12.006,0,0,1,116,21.03l-.019,1.311h.247c.057,0,.209,0,.418.019.285,0,.931.019,1.254.019.285,0,.931-.019,1.406-.038a28.449,28.449,0,0,1-1.976,4.9,16.774,16.774,0,0,1-1.824,2.964l1.292.76c.1-.152.209-.38.38-.646.722-1.254.893-1.577,1.349-2.489a35.4,35.4,0,0,0,2.109-5.548,22.937,22.937,0,0,0,3.116-.4c.456-.076.456-.076.665-.114l-.057-1.311a15.811,15.811,0,0,1-3.4.627c.266-.969.38-1.425.513-2.071a5.951,5.951,0,0,1,.3-1.216Zm11.191,5.244a26.187,26.187,0,0,0-5.016-2.508l-.7,1.064a20.607,20.607,0,0,1,5.035,2.584Zm.038,8.417a1.923,1.923,0,0,1-.342-.3,13.648,13.648,0,0,0-3.724-2.3,22.666,22.666,0,0,1-.209-2.888,5.831,5.831,0,0,1,.247-1.767l-1.292-.133a7.693,7.693,0,0,0-.19,1.843c0,.475.038,1.368.133,2.6a6.271,6.271,0,0,0-1.919-.285,5.553,5.553,0,0,0-2.242.418,2.7,2.7,0,0,0-1.767,2.413c0,1.691,1.425,2.755,3.705,2.755,2.318,0,3.61-1.083,3.61-3.04a3.938,3.938,0,0,0-.038-.608,10.868,10.868,0,0,1,3.325,2.584Zm-5.282-1.729s.038.589.038.817c0,1.425-.741,2.071-2.375,2.071-1.5,0-2.413-.589-2.413-1.558,0-1.045,1.026-1.71,2.641-1.71A5.638,5.638,0,0,1,126.217,29.523Zm9.367-9.994a10.283,10.283,0,0,1,.057,1.121c.095,4.674.361,7.106,1.026,8.911.646,1.824,1.634,2.888,2.7,2.888,1.349,0,2.223-1.273,3.154-4.6a6.074,6.074,0,0,1-1.121-1.083,13.67,13.67,0,0,1-.988,3.249c-.285.627-.608.95-.95.95-.722,0-1.5-1.311-1.919-3.249a32.537,32.537,0,0,1-.494-5.909,13.774,13.774,0,0,1,.133-2.261Zm9.614,1.615a16.78,16.78,0,0,1,3.952,9.367l1.349-.551a18.192,18.192,0,0,0-1.425-5.073,16.492,16.492,0,0,0-2.717-4.332ZM4.465,53.688a4.462,4.462,0,0,1,.627.057,37.167,37.167,0,0,0,4.18.247,15.018,15.018,0,0,0,2.869-.247c-.19.114-.228.114-.361.19-.228.114-.266.133-.475.247a29.439,29.439,0,0,0-2.527,1.577l.969.779a27.061,27.061,0,0,1,4.788-2.888l-.1-1.254a20.779,20.779,0,0,1-4.807.4,21.722,21.722,0,0,1-5.054-.456ZM5.6,58.552C4.142,59.787,3.42,60.984,3.42,62.219a3.027,3.027,0,0,0,2.166,2.869,13.4,13.4,0,0,0,4.37.589,30.993,30.993,0,0,0,5.13-.437,5.315,5.315,0,0,1,.646-.1l-.171-1.558a18.024,18.024,0,0,1-5.7.722,12.1,12.1,0,0,1-3.477-.38c-1.064-.361-1.615-.988-1.615-1.862,0-.893.57-1.767,1.805-2.793ZM29.526,53.4a5.468,5.468,0,0,1,2.2.475,5.009,5.009,0,0,1,3.021,4.769,5.735,5.735,0,0,1-3.363,5.32,11.389,11.389,0,0,1-3.173.893,3.019,3.019,0,0,1,.665,1.273,14.7,14.7,0,0,0,2.888-.874A6.918,6.918,0,0,0,36.119,58.7a6.36,6.36,0,0,0-1.843-4.636,7.355,7.355,0,0,0-5.225-1.881,7.716,7.716,0,0,0-8.132,7.771c0,2.66,1.349,4.636,3.154,4.636,1.368,0,2.489-1.14,3.591-3.648A28.481,28.481,0,0,0,29.526,53.4Zm-1.368.019a26.1,26.1,0,0,1-1.729,7.03c-.817,1.862-1.577,2.755-2.375,2.755-1.026,0-1.824-1.406-1.824-3.23a6.571,6.571,0,0,1,3.1-5.662A6,6,0,0,1,28.158,53.422ZM53.485,62.01a14.284,14.284,0,0,1,1.957.114V60.851a12.677,12.677,0,0,1-1.9.114H47.728A9.1,9.1,0,0,0,47.9,59.92a2.981,2.981,0,0,1,.057-.456l-1.368-.019a4.407,4.407,0,0,1,.038.456,5.814,5.814,0,0,1-.114,1.064H41.477a13.217,13.217,0,0,1-1.9-.114v1.273a14.181,14.181,0,0,1,1.938-.114H46.17a5.553,5.553,0,0,1-2.109,2.413,11.328,11.328,0,0,1-4.9,1.71,3.976,3.976,0,0,1,.589,1.216,13.438,13.438,0,0,0,4.712-1.767,7.415,7.415,0,0,0,2.869-3.287,8.842,8.842,0,0,0,2.793,3.04,14.014,14.014,0,0,0,5.149,2.052A4.094,4.094,0,0,1,55.86,66.1a11.838,11.838,0,0,1-4.484-1.368,7.839,7.839,0,0,1-2.983-2.717ZM42.009,52.453a13.217,13.217,0,0,1-1.9-.114v1.254a13.217,13.217,0,0,1,1.9-.114H46.8v1.71h-4.18a9.658,9.658,0,0,1-1.634-.095V56.31a9.657,9.657,0,0,1,1.634-.1H46.8v1.843H41.211a12.678,12.678,0,0,1-1.9-.114v1.273a13.4,13.4,0,0,1,1.9-.114H53.77a13.563,13.563,0,0,1,1.9.095V57.944a12.855,12.855,0,0,1-1.9.114h-5.8V56.215h4.389a9.657,9.657,0,0,1,1.634.1V55.094a9.8,9.8,0,0,1-1.634.095H47.975v-1.71h5a13.034,13.034,0,0,1,1.9.114V52.339a12.855,12.855,0,0,1-1.9.114h-2.85a14.684,14.684,0,0,0,1.349-1.786l-1.178-.437a9.589,9.589,0,0,1-1.463,2.223H45.98a15.216,15.216,0,0,0-1.615-2.3l-1.064.494a10.222,10.222,0,0,1,1.387,1.805Zm27.626.836v-1.52a8.6,8.6,0,0,1,.1-1.539H68.4a8.221,8.221,0,0,1,.1,1.539v1.52H66.367a18.7,18.7,0,0,1-1.957-.1v1.273a15.151,15.151,0,0,1,1.957-.095H68.5v3.211H65.531a11.059,11.059,0,0,1-1.843-.1v1.273a10.939,10.939,0,0,1,1.824-.1h2.66a16.593,16.593,0,0,1-6.289,6.555,4.219,4.219,0,0,1,.912.931,15.5,15.5,0,0,0,5.776-6.574c-.076,1.121-.076,1.368-.076,2.09v3.724a15.6,15.6,0,0,1-.114,2.014h1.368a13.24,13.24,0,0,1-.114-2.014V61.668c0-.855-.019-1.387-.076-2.09a12.8,12.8,0,0,0,2.185,3.534A20.884,20.884,0,0,0,74.8,65.9a5.027,5.027,0,0,1,.817-1.178,15.369,15.369,0,0,1-3.572-2.907,14.919,14.919,0,0,1-2.09-3.154h2.907a14.854,14.854,0,0,1,2.147.114V57.469a15.157,15.157,0,0,1-2.166.114H69.635V54.372h2.489a14.993,14.993,0,0,1,2.014.114V53.175a13.218,13.218,0,0,1-2,.114ZM59.66,64.575V62.523h2.413v.988h1.216a20.713,20.713,0,0,1-.076-2.09V53.555a16.405,16.405,0,0,1,.057-1.767,12.24,12.24,0,0,1-1.6.076H59.983a11.611,11.611,0,0,1-1.558-.076c.038.437.076,1.064.076,1.843v8.892a15.409,15.409,0,0,1-.114,2.052Zm0-11.609h2.413v8.493H59.66Zm19.209,2.983a4.2,4.2,0,0,1,.741-.057,55.944,55.944,0,0,0,6.764-.494c.114.19.114.228.323.627a23.169,23.169,0,0,0,2.28,3.724,9.488,9.488,0,0,0-3.933-.684,8.076,8.076,0,0,0-3.686.7,3.551,3.551,0,0,0-2.147,3.1,3.064,3.064,0,0,0,.855,2.09c.874.912,2.622,1.425,4.94,1.425a15.751,15.751,0,0,0,5.586-1.026l-.209-1.463a12.527,12.527,0,0,1-5.4,1.216,6.435,6.435,0,0,1-3.705-.874,1.9,1.9,0,0,1-.722-1.482,2.158,2.158,0,0,1,1.026-1.767,6.735,6.735,0,0,1,3.61-.8,10.3,10.3,0,0,1,3.325.494,3.8,3.8,0,0,1,1.311.779l1.273-.722a35.186,35.186,0,0,1-3.42-5.529c.19-.038.19-.038.646-.133,1.2-.228,1.425-.285,2.565-.589.57-.152.722-.19,1.121-.266l-.19-1.349a22.236,22.236,0,0,1-4.6,1.2,15.63,15.63,0,0,1-.684-1.672,6.056,6.056,0,0,1-.551-1.71l-1.5.209c.171.342.285.608.494,1.1.342.855.646,1.615.931,2.261a44.348,44.348,0,0,1-5.662.4,8.33,8.33,0,0,1-1.463-.095Zm26.334,6.5c-.038-.475-.057-.817-.057-1.159,0-.076,0-.076.019-.874l.152-6.764c.019-.8.057-1.368.114-2.09H103.55c.076.722.1,1.292.114,2.09l.171,6.764V61.1c0,.627,0,.76-.038,1.349ZM105.431,66V64.214h-1.843V66Z" transform="matrix(0.978, -0.208, 0.208, 0.978, 137.509, 1739.141)" fill="#fff"/><path d="M36.04-17.022l.136.158A17.2,17.2,0,0,1,38.2-14l.111.212-1.376.8-.124-.22a16.12,16.12,0,0,0-1.929-2.791l-.2-.228Zm1.6,3.039a17.357,17.357,0,0,0-1.714-2.4l-.473.276a16.388,16.388,0,0,1,1.666,2.423Zm-4.3-2.656.135.153a15.36,15.36,0,0,1,1.932,2.631l.111.205-1.187.751.775,0A10.268,10.268,0,0,0,36.334-13l.282-.037v1.912l-.277-.03a33.733,33.733,0,0,0-3.6-.094c-.269,0-.484,0-1.783.032v3.47a5.635,5.635,0,0,1,.456,2.29A6.373,6.373,0,0,1,28.765-.295,12.3,12.3,0,0,1,25.7,1.278l-.209.08-.1-.2A3.915,3.915,0,0,0,24.595.02l-.28-.294L24.7-.391c2.773-.838,4.345-2.12,4.851-3.986a3.312,3.312,0,0,1-2.48,1A3.211,3.211,0,0,1,23.69-6.631a3.27,3.27,0,0,1,1.037-2.428,3.78,3.78,0,0,1,2.6-.957,3.456,3.456,0,0,1,1.936.544c0-.119,0-.271,0-.484,0-.029,0-.071-.006-.121-.006-.09-.013-.213-.013-.373v-.734c-3.134.051-8.092.332-8.619.464l-.3.074-.081-1.969.275.015c.335.019.464.019.746.019.546,0,.546,0,3.6-.114,1.849-.073,3.378-.125,4.355-.147L29.181-14.1a5.722,5.722,0,0,0-.073-1.065l-.043-.287h2l-.035.281a15.314,15.314,0,0,0-.093,2.3c.485-.012.553-.012.833-.012l2.345-.013-.072-.124a13.74,13.74,0,0,0-1.864-2.593l-.224-.231Zm1.513,2.818A15.428,15.428,0,0,0,33.234-16l-.48.274A14.741,14.741,0,0,1,34.341-13.5ZM30.5-14.95h-.857a6.568,6.568,0,0,1,.039.848l.038,1.334v.416l-.245,0c-.951.018-2.582.072-4.593.152-3.064.114-3.064.114-3.62.114-.2,0-.324,0-.5-.006l.034.834c1.318-.163,5.92-.4,8.689-.434l.253,0v1.241c0,.145.007.254.012.342,0,.058.007.108.007.152,0,.678,0,.733.019,1.029l.045.719-.481-.536a2.686,2.686,0,0,0-2.018-.772A2.917,2.917,0,0,0,24.19-6.631,2.7,2.7,0,0,0,25-4.655a2.973,2.973,0,0,0,2.079.776,2.769,2.769,0,0,0,2.2-.939,2.425,2.425,0,0,0,.468-.856l.484.1A5.077,5.077,0,0,1,28.821-2.09a8.552,8.552,0,0,1-3.6,2.06,4.056,4.056,0,0,1,.506.762A11.4,11.4,0,0,0,28.466-.7,5.882,5.882,0,0,0,30.91-5.453,5.214,5.214,0,0,0,30.472-7.6l-.018-.045V-11.7l.244-.006c1.523-.038,1.751-.038,2.039-.038,1.963,0,2.732.014,3.379.069v-.791c-.283.032-.529.047-1,.062h-.007l-3.344.019c-.325,0-.359,0-1.078.019l-.257.007v-.466A18.862,18.862,0,0,1,30.5-14.95ZM8.877-15.374h2.065l-.057.3a18.6,18.6,0,0,0-.124,2.365,25.508,25.508,0,0,0,5.292-.749l.3-.1.137,1.864-.253.015c-.314.018-.314.018-1.292.15a38.7,38.7,0,0,1-4.188.443c.015,1.188.017,1.35.03,2.061a21.513,21.513,0,0,0,4.936-.746l.312-.108L16.148-8l-.245.019c-.246.019-.434.038-1.086.131-1.433.228-2.924.364-3.995.441.029.8.035.962.1,2.483A17.092,17.092,0,0,1,16.126-2.16a6.167,6.167,0,0,0,.606.411l.231.142L15.916.225l-.232-.242a14.994,14.994,0,0,0-3.81-2.668c-.215-.114-.5-.245-.876-.4.006.1.006.162.006.3a3.508,3.508,0,0,1-.523,2.218A4.042,4.042,0,0,1,7.068.725a5.2,5.2,0,0,1-3.1-.811A2.742,2.742,0,0,1,2.847-2.28c0-1.388,1.067-2.46,2.855-2.866a8.509,8.509,0,0,1,2.031-.2,7.9,7.9,0,0,1,1.43.1c0-.035-.007-.077-.008-.126-.012-.117-.016-.305-.022-.562,0-.161-.008-.349-.015-.559-.011-.149-.016-.331-.022-.559,0-.093,0-.192-.008-.3-.653.017-1.465.032-2,.032-1.131,0-2.037-.038-3.231-.134-.2-.018-.341-.018-.455-.018H3l.027-1.815.3.067a23.1,23.1,0,0,0,4.3.3c.414,0,.959,0,1.437-.012l-.031-2.1c-.406.011-.684.011-1.046.011-1.462,0-3.028-.064-4.655-.191l-.016,0A2.079,2.079,0,0,0,3-11.226a1.309,1.309,0,0,0-.225.016l-.3.049.028-1.916.312.087a23.662,23.662,0,0,0,4.8.371c.164,0,.377,0,.624-.008s.507-.008.777-.01a13.07,13.07,0,0,0-.089-2.442Zm1.475.5H9.47c.034.295.038.738.052,2.484l0,.252H9.272c-.35,0-.707.006-1.021.011-.249,0-.464.008-.632.008A27.487,27.487,0,0,1,3-12.435l-.01.709H3a2.551,2.551,0,0,1,.369.02c1.612.125,3.162.189,4.609.189.444,0,.737,0,1.283-.019l.255-.009.045,3.1-.245.009c-.536.019-1.209.019-1.7.019a26.547,26.547,0,0,1-4.106-.251l-.011.7c.1,0,.234,0,.4.02,1.177.095,2.072.132,3.188.132.6,0,1.556-.019,2.235-.038l.247-.007.01.247c.008.208.013.391.017.553.006.224.01.4.021.539v.011c.007.214.012.406.016.57.006.245.01.438.021.532l0,.028a.866.866,0,0,0,.012.14.424.424,0,0,1,.007.069c0,.065,0,.117,0,.134l0,.015.131.392L9.4-4.693a8.251,8.251,0,0,0-1.67-.149,8.054,8.054,0,0,0-1.919.183c-1.545.351-2.467,1.24-2.467,2.379A2.243,2.243,0,0,0,4.271-.486a4.718,4.718,0,0,0,2.8.711A3.581,3.581,0,0,0,10.075-.866l0-.006A3.084,3.084,0,0,0,10.5-2.793a5.3,5.3,0,0,0-.037-.662l-.035-.408.379.154c.6.243,1,.422,1.3.581A16.28,16.28,0,0,1,15.81-.6l.478-.836c-.131-.083-.246-.162-.459-.322A16.309,16.309,0,0,0,10.612-4.49l-.176-.049-.007-.182c-.076-1.844-.076-1.844-.114-2.908l-.009-.242.242-.016c1.07-.072,2.666-.21,4.2-.453.457-.065.692-.1.878-.114L15.577-9.2a26.107,26.107,0,0,1-5.014.693L10.3-8.49l0-.264c-.019-1.008-.019-1.008-.038-2.567l0-.238.237-.015a39,39,0,0,0,4.387-.454c.69-.093.9-.122,1.08-.137L15.9-12.9a30.467,30.467,0,0,1-5.381.7l-.27.018,0-.271C10.274-13.636,10.3-14.411,10.353-14.874Zm31.029-.332,2.066.344-.126.293a26.867,26.867,0,0,0-1.443,8.812c0,.532.025,1.363.053,2.1.172-.544.376-1.052.758-1.973l.035-.079a1.83,1.83,0,0,0,.107-.274l.081-.282,1.425.669-.109.227A16.228,16.228,0,0,0,42.62-.076a1.892,1.892,0,0,0,.035.345l.037.259L40.838.71,40.811.465C40.8.332,40.782.25,40.734-.02l-.036-.2a30.432,30.432,0,0,1-.536-5.686,32.268,32.268,0,0,1,.994-7.864,8.478,8.478,0,0,0,.2-1.161Zm1.361.734-.913-.152c-.026.176-.074.42-.184.957a31.848,31.848,0,0,0-.983,7.759,29.939,29.939,0,0,0,.527,5.6l.036.207c.021.117.035.2.047.271l.853-.084a1.4,1.4,0,0,1-.007-.157,16.113,16.113,0,0,1,1.551-5.276l-.459-.215-.031.069-.031.069a16.641,16.641,0,0,0-1.108,3.3l-.059.245-.51-.128v-.549c-.019-.339-.019-.384-.019-.534-.037-.847-.076-1.99-.076-2.665A28.508,28.508,0,0,1,42.743-14.473Zm7.34-.673h2.031l-.055.3a19.374,19.374,0,0,0-.129,2.937c0,.155,0,.371.008.65a11.875,11.875,0,0,0,2.95-.653l.331-.139.084,1.912h-.258c-.052.007-.328.064-1.28.26a16.315,16.315,0,0,1-1.815.282c.019,1.694.058,2.665.2,4.989a13.757,13.757,0,0,1,3.076,1.823c.1.067.164.112.221.152.074.052.132.093.244.165l.181.115L55.038-.474,54.78-.765A9.778,9.778,0,0,0,52.2-2.66q0,.009,0,.019a3.5,3.5,0,0,1-.25,1.394A3.471,3.471,0,0,1,48.545.5C46.212.5,44.7-.66,44.7-2.451a2.638,2.638,0,0,1,1.114-2.141A4.606,4.606,0,0,1,48.564-5.4a6.587,6.587,0,0,1,1.824.25c-.052-.77-.107-2.347-.149-4.318-.706.03-1.253.046-1.921.046-.778,0-1.485-.019-2.161-.057h-.015a4.723,4.723,0,0,0-.579-.036l-.028,0a2.587,2.587,0,0,0-.3-.017h-.025l-.024,0a.632.632,0,0,0-.141-.014h-.333l.054-1.9.3.074a13,13,0,0,0,3.361.3c.653,0,1.125-.015,1.78-.045-.016-1.55-.016-1.614-.016-2.992a4.015,4.015,0,0,0-.052-.73Zm1.44.5h-.849c.014.153.021.33.021.529,0,1.443,0,1.443.019,3.227l0,.241-.24.012c-.8.039-1.3.057-2.045.057a14.436,14.436,0,0,1-3.179-.242l-.022.782.033.006a3.134,3.134,0,0,1,.313.019,5.227,5.227,0,0,1,.616.039c.664.038,1.36.056,2.126.056.738,0,1.327-.02,2.155-.057l.256-.011.005.256c.06,2.918.137,4.578.188,4.929l.069.482-.432-.225A5.2,5.2,0,0,0,48.564-4.9a4.108,4.108,0,0,0-2.446.708,2.122,2.122,0,0,0-.914,1.74C45.2-.941,46.484,0,48.545,0A3,3,0,0,0,51.49-1.452,3.048,3.048,0,0,0,51.7-2.641,2.515,2.515,0,0,0,51.66-3.1l-.069-.514.445.267a1.537,1.537,0,0,1,.187.124,1.02,1.02,0,0,0,.157.095l.013.007a11.9,11.9,0,0,1,2.5,1.748l.351-.793-.084-.059c-.058-.041-.118-.083-.215-.148l-.01-.007a13.584,13.584,0,0,0-3.127-1.835l-.137-.062-.009-.151c-.153-2.547-.19-3.5-.209-5.389l0-.225.224-.026a17.62,17.62,0,0,0,1.986-.3h.006c.612-.126.939-.193,1.121-.229l-.032-.727a15.1,15.1,0,0,1-3.023.595l-.267.031-.012-.268c-.019-.424-.019-.736-.019-.942A25.538,25.538,0,0,1,51.523-14.646Zm28.535-.2h2.177l-.041.285A11.653,11.653,0,0,0,82.1-12.9l-.056,11.16A13.855,13.855,0,0,0,87.1-3.556a11.27,11.27,0,0,0,4.188-4.468l.191-.349.232.324a4.616,4.616,0,0,0,1,1.15l.173.144-.126.187A14.837,14.837,0,0,1,88.374-2.1,17.752,17.752,0,0,1,82.128.169l-.016,0a4.469,4.469,0,0,0-1.036.266L80.9.514l-.96-1.2.037-.125A3.424,3.424,0,0,0,80.1-1.976l.038-11.59a9.542,9.542,0,0,0-.056-1Zm1.606.5H80.605c.022.268.034.477.034.776v.7L80.6-1.975A4.174,4.174,0,0,1,80.493-.8l.564.705a7.341,7.341,0,0,1,.954-.225l.018,0a17.284,17.284,0,0,0,6.077-2.2,14.172,14.172,0,0,0,4.11-4.143,4.181,4.181,0,0,1-.687-.778,11.624,11.624,0,0,1-4.169,4.309A14.612,14.612,0,0,1,81.836-1.2l-.292.048L81.6-12.9A13.668,13.668,0,0,1,81.664-14.342Zm21.608-.348H105.7l-.021.27c-.059.751-.095,1.3-.113,2.076l-.152,6.764c-.019.8-.019.8-.019.868,0,.314.016.633.056,1.139l.022.27H103.53l.017-.266c.037-.581.037-.71.037-1.333v-.681l-.171-6.761c-.019-.78-.036-1.346-.113-2.07Zm1.889.5h-1.335c.056.62.072,1.164.088,1.834l.171,6.77V-4.9c0,.529,0,.709-.022,1.1h.87c-.027-.372-.037-.641-.037-.909,0-.079,0-.079.019-.88l.152-6.764C105.083-13.044,105.113-13.56,105.161-14.19Zm-45.01.632.292.05a10.213,10.213,0,0,0,2.143.129h9.12c.154,0,.317-.008.542-.018l.436-.019.282-.011-.022.281c-.037.465-.037.777-.037,1.462v9.728A12.615,12.615,0,0,0,73-.269l.049.291H70.981v-1.14H62.149a15.131,15.131,0,0,0-2,.074l-.279.032V-3.093l.295.054a9.132,9.132,0,0,0,2.026.129h8.794v-8.677H62.586a15.806,15.806,0,0,0-2.156.093l-.279.033Zm11.555.68h-9.12a11.984,11.984,0,0,1-1.935-.089v.947a17.883,17.883,0,0,1,1.935-.066h8.895V-2.41H62.187A10.756,10.756,0,0,1,60.366-2.5v.926c.3-.029.564-.032,1.78-.047h9.335v1.14h.986c-.038-.383-.061-.924-.061-1.479v-9.728c0-.539,0-.865.02-1.22l-.154.007C72.04-12.887,71.872-12.879,71.706-12.879ZM27.341-8.933a3.16,3.16,0,0,1,1.39.314l.009.005a1.663,1.663,0,0,1,.922,1.565,2.375,2.375,0,0,1-2.473,2.492,2.108,2.108,0,0,1-2.226-2.131A2.264,2.264,0,0,1,27.341-8.933Zm1.151.753a2.679,2.679,0,0,0-1.151-.253,1.775,1.775,0,0,0-1.878,1.745,1.608,1.608,0,0,0,1.726,1.631,1.877,1.877,0,0,0,1.973-1.992A1.167,1.167,0,0,0,28.492-8.18ZM48.659-4.259a5.127,5.127,0,0,1,2.124.416l.152.059.007.163c0,.018.019.444.019.581a2.428,2.428,0,0,1-.422,1.646,2.836,2.836,0,0,1-2.127.751c-1.468,0-2.454-.719-2.454-1.789C45.958-3.525,47.043-4.259,48.659-4.259Zm1.79.824a4.571,4.571,0,0,0-1.79-.324c-1.337,0-2.2.521-2.2,1.327,0,.783.767,1.289,1.954,1.289a2.389,2.389,0,0,0,1.749-.578,2.042,2.042,0,0,0,.3-1.319C50.461-3.115,50.454-3.3,50.449-3.435ZM7.505-4.24a7.187,7.187,0,0,1,2,.216l.187.044.024.921a2.652,2.652,0,0,1-.447,1.88,2.949,2.949,0,0,1-2.273.707c-1.813,0-2.853-.666-2.853-1.827a1.661,1.661,0,0,1,.983-1.443A5.053,5.053,0,0,1,7.505-4.24ZM9.2-3.581A6.669,6.669,0,0,0,7.505-3.74c-1.714,0-2.866.579-2.866,1.441,0,.4.229,1.327,2.353,1.327a2.544,2.544,0,0,0,1.9-.54l.012-.013c.209-.209.307-.7.307-1.53Zm94.14,1.545h2.343V.25h-2.343Zm1.843.5h-1.343V-.25h1.343ZM4.637,16.751l1.877.59-.109.254c-.1.222-.149.375-.308.828l-.085.24a20.365,20.365,0,0,1-1.449,3.361v10.16c0,.8.03,1.512.094,2.239l.024.272H2.7l.031-.278a18.742,18.742,0,0,0,.112-2.271V25.894c0-.431.008-.836.026-1.295a14.592,14.592,0,0,1-1.5,2.026l-.213.252L.971,26.6A5.635,5.635,0,0,0,.2,25.61l-.163-.172L.2,25.266a16.9,16.9,0,0,0,3.616-5.583A11.963,11.963,0,0,0,4.6,17.045Zm1.2.9-.8-.25a13.3,13.3,0,0,1-.767,2.468A17.275,17.275,0,0,1,.722,25.438a4.827,4.827,0,0,1,.477.612,15.2,15.2,0,0,0,1.759-2.563l.465.142c-.054.924-.076,1.56-.076,2.265v6.251a19.861,19.861,0,0,1-.086,2.049h.876c-.05-.649-.073-1.3-.073-2.011V21.9l.029-.055A20.018,20.018,0,0,0,5.539,18.5l.086-.244C5.724,17.973,5.785,17.8,5.841,17.653Zm22.027-.882h2.045l-.068.3a5.5,5.5,0,0,0-.108,1.276v.567h5.051a13.481,13.481,0,0,0,2.069-.111l.29-.046v1.877l-.288-.044a13.856,13.856,0,0,0-2.071-.092H23.258c-.026,8.276-.44,10.876-2.162,13.785l-.172.291-.228-.25a3.9,3.9,0,0,0-1-.853l-.208-.138.138-.208c1.5-2.265,1.915-4.792,1.915-11.756a21.6,21.6,0,0,0-.075-2.274l-.03-.3.3.028c.693.065,1.3.094,1.972.094h4.329v-.567a5.944,5.944,0,0,0-.109-1.278Zm1.432.5h-.826a7.286,7.286,0,0,1,.065,1.08v1.067H23.712c-.589,0-1.13-.022-1.72-.07.038.494.051,1.036.051,2.024,0,6.876-.4,9.514-1.864,11.824a3.709,3.709,0,0,1,.655.544c1.541-2.735,1.907-5.414,1.925-13.49V20H34.789a18.549,18.549,0,0,1,1.859.061v-.721a16.556,16.556,0,0,1-1.859.077H29.238V18.351A7.2,7.2,0,0,1,29.3,17.271Zm-18.34-.234h1.961l-.039.284a11.763,11.763,0,0,0-.112,1.733v2.671l2.652-.912a10.347,10.347,0,0,0,1.466-.593l.4-.208-.03.446c-.019.284-.037.582-.037.819v.006c-.036,1.577-.205,4.615-.344,5.781a3.163,3.163,0,0,1-.541,1.713,1.8,1.8,0,0,1-1.436.464,12.3,12.3,0,0,1-1.395-.077l-.189-.02-.031-.187a4.8,4.8,0,0,0-.309-1.164L12.8,27.35l.464.1a7.3,7.3,0,0,0,1.465.2c.314,0,.335-.042.373-.117a5.152,5.152,0,0,0,.214-1.292c.1-.944.176-2.271.218-3.855l-2.759.979v5.181a12.306,12.306,0,0,0,.111,1.789l.041.285H10.96L11,30.343a12.129,12.129,0,0,0,.111-1.808V23.949l-2.274.81v6.873c0,.326.017.4.5.5h.005a14.318,14.318,0,0,0,2.739.146c2.238,0,3.264-.087,3.658-.31.46-.26.615-1.562.691-2.519l.031-.387.34.189a3.713,3.713,0,0,0,1.174.451l.222.056-.036.226c-.321,2.027-.641,2.89-1.224,3.3-.67.461-1.914.616-4.932.616a26.936,26.936,0,0,1-2.783-.116,2.7,2.7,0,0,1-1.71-.644,1.623,1.623,0,0,1-.375-1.219V25.348l-.013,0a10.125,10.125,0,0,0-1.539.611l-.3.156-.385-1.9.261-.039A9.245,9.245,0,0,0,6.777,23.8l.364-.13V21.22a13.62,13.62,0,0,0-.112-1.9l-.039-.284h2l-.041.285a12.6,12.6,0,0,0-.111,1.846v1.928l2.274-.794V19.054A12.079,12.079,0,0,0,11,17.321Zm1.39.5h-.819a12.836,12.836,0,0,1,.08,1.517v3.6L8.338,23.8V21.163a13.983,13.983,0,0,1,.08-1.631H7.56a15.041,15.041,0,0,1,.081,1.688v2.8l-.7.249a9.69,9.69,0,0,1-1.44.369l.15.738c.25-.113.585-.239,1.314-.5l.675-.225v7.263a1.205,1.205,0,0,0,.231.868l.006.006a2.291,2.291,0,0,0,1.4.492,26.458,26.458,0,0,0,2.729.113c2.829,0,4.089-.143,4.646-.526.423-.3.7-1.074.979-2.743a3.609,3.609,0,0,1-.736-.265c-.149,1.516-.42,2.262-.91,2.539s-1.48.374-3.9.374a14.627,14.627,0,0,1-2.845-.157c-.674-.135-.9-.384-.9-.986V24.407l3.274-1.166v5.294a13.332,13.332,0,0,1-.079,1.593h.818a13.523,13.523,0,0,1-.08-1.574V23.019l3.776-1.339-.008.362C16,23.8,15.92,25.273,15.81,26.3a4.752,4.752,0,0,1-.265,1.466.789.789,0,0,1-.819.391,6.673,6.673,0,0,1-1.135-.125,5.174,5.174,0,0,1,.153.652,11.521,11.521,0,0,0,1.154.055c1.016,0,1.294-.171,1.481-1.737.126-1.059.3-4,.34-5.731,0-.13.005-.274.013-.423-.277.122-.618.25-1.143.434l-3.316,1.14V19.054A12.456,12.456,0,0,1,12.351,17.537Zm71.946-.5h2.148l-.052.294a8.33,8.33,0,0,0-.129,1.685v4.557h4.5V20.232a10,10,0,0,0-.074-1.355l-.037-.282h2l-.039.284a9.107,9.107,0,0,0-.093,1.41V24.07c0,.328.014.567.031.843l.023.39-.278-.014c-.351-.018-.8-.038-1.166-.038H86.263v6.454h5.162v-3.36a9.959,9.959,0,0,0-.092-1.594l-.046-.29h2.029l-.044.288a10.409,10.409,0,0,0-.092,1.653V32.7a9.2,9.2,0,0,0,.111,1.558l.044.288H91.425V33.4H79.575v1.14H77.664l.046-.29a9.682,9.682,0,0,0,.111-1.556v-4.18a10.455,10.455,0,0,0-.092-1.652l-.046-.289h2.03l-.046.289a9.209,9.209,0,0,0-.092,1.576v3.265H84.49V25.251h-4.5c-.329,0-.755.018-1.166.038l-.276.013.024-.449c.015-.279.028-.52.028-.783V20.308a13.187,13.187,0,0,0-.094-1.436l-.03-.277h1.991l-.041.285a9.493,9.493,0,0,0-.073,1.371v3.322H84.49V19.016a7.542,7.542,0,0,0-.127-1.676Zm1.555.5h-.944a9.553,9.553,0,0,1,.082,1.479v5.057H79.854V20.251c0-.483.013-.84.044-1.156h-.866c.042.425.068.809.068,1.213V24.07c0,.243-.01.463-.023.707.327-.014.649-.026.913-.026h5v7.454H79.075V28.44a11.386,11.386,0,0,1,.058-1.365h-.871a12.917,12.917,0,0,1,.059,1.441V32.7a10.908,10.908,0,0,1-.076,1.346h.83V32.9h12.85v1.14h.83a10.1,10.1,0,0,1-.076-1.346V28.4a12.535,12.535,0,0,1,.059-1.441h-.872a12.149,12.149,0,0,1,.059,1.384v3.86H85.763V24.751h5.361c.284,0,.614.012.912.025-.012-.215-.022-.433-.022-.706V20.289a9.688,9.688,0,0,1,.061-1.194h-.861c.032.333.046.683.046,1.137v3.841h-5.5V19.016A9.473,9.473,0,0,1,85.851,17.537Zm34.181-.232,2.081.29-.107.291a5.745,5.745,0,0,0-.293,1.177c-.116.563-.216.977-.422,1.74a14.981,14.981,0,0,0,2.987-.582l.313-.1.081,1.858-.215.039c-.21.038-.211.038-.663.114a22.6,22.6,0,0,1-2.972.391,35.5,35.5,0,0,1-2.075,5.418c-.461.923-.629,1.24-1.358,2.506l-.006.01c-.1.153-.177.293-.247.417-.049.086-.09.161-.131.226l-.129.206-1.751-1.03.18-.225a16.528,16.528,0,0,0,1.8-2.922,28.1,28.1,0,0,0,1.855-4.525c-.4.014-.834.025-1.063.025-.169,0-.423-.005-.669-.01s-.45-.009-.585-.009h-.023c-.2-.018-.341-.018-.4-.018h-.5l.027-1.858.289.051a11.8,11.8,0,0,0,2.218.148c.19,0,.447,0,.7-.01l.481-.008a19.042,19.042,0,0,0,.587-3.334Zm1.4.7-.933-.13a21.217,21.217,0,0,1-.637,3.355l-.051.182h-.189c-.176,0-.423,0-.663.009s-.511.01-.705.01a13.439,13.439,0,0,1-2.015-.109l-.011.768c.064,0,.216,0,.423.019.141,0,.356,0,.584.009.243,0,.494.01.659.01.282,0,.931-.019,1.4-.038l.352-.014-.1.337a28.734,28.734,0,0,1-1.992,4.942,18.056,18.056,0,0,1-1.675,2.78l.829.488c.068-.121.153-.271.256-.433.72-1.25.886-1.564,1.339-2.471a35.076,35.076,0,0,0,2.092-5.506l.049-.168.175-.011a22.849,22.849,0,0,0,3.079-.394l.013,0,.447-.075-.033-.77a17,17,0,0,1-3.144.542l-.357.031.095-.346c.27-.985.38-1.426.509-2.055A9.439,9.439,0,0,1,121.435,18.006Zm-69.921-.7.132.161a16.584,16.584,0,0,1,2,2.985l.116.215-1.421.808-.112-.252a14.032,14.032,0,0,0-1.9-2.923l-.2-.233Zm1.577,3.168a15.433,15.433,0,0,0-1.7-2.529l-.484.267a14.846,14.846,0,0,1,1.664,2.559Zm53.965-2.586H109.1l-.043.287a9.959,9.959,0,0,0-.073,1.426v.8l-.019,1.239V21.9c1.867-.041,3.14-.1,3.691-.164l.272-.033.054,1.9-.276-.02c-.5-.037-.607-.037-1.407-.037-.164,0-.661,0-1.284.019h-.008c-.123,0-.268,0-.436.007s-.4.009-.648.011a17.578,17.578,0,0,1-.346,3.517,2.153,2.153,0,0,1-2.162,1.861,5.68,5.68,0,0,1-2.761-.9l-.14-.077.011-.159c.007-.111.015-.194.021-.265.01-.11.016-.182.016-.288,0-.125-.007-.246-.018-.413-.006-.1-.013-.214-.02-.354L103.5,26l.411.269a5.3,5.3,0,0,0,2.352,1c.309,0,.509-.069.685-1.03a15.721,15.721,0,0,0,.217-2.622c-2.153.074-3.51.151-5.687.3V25.4a29.96,29.96,0,0,0,.182,4.726,1.382,1.382,0,0,0,1.1,1.058l.01,0a10.312,10.312,0,0,0,2.88.309,17.124,17.124,0,0,0,5.2-.688l.3-.108.212,2.037-.258.018c-.149.011-.22.021-.349.04-.093.013-.208.03-.394.053a32.491,32.491,0,0,1-4.842.4,9.756,9.756,0,0,1-3.844-.558,2.9,2.9,0,0,1-1.716-1.978,19.794,19.794,0,0,1-.257-4.572V24.035c-1.677.122-2.68.23-3.526.377l-.269.047-.163-1.9.3.03a3.784,3.784,0,0,0,.393.018c.29,0,1.3-.06,3.265-.227V21.372a20.134,20.134,0,0,0-.092-2.794l-.042-.287h2.13l-.056.3a20.01,20.01,0,0,0-.162,3.66c2.806-.156,3.631-.2,5.708-.28v-.314c.018-.2.018-.395.018-.623a17.894,17.894,0,0,0-.111-2.848Zm1.475.5h-.894a24.14,24.14,0,0,1,.077,2.638c0,.227,0,.441-.019.657v.761l-.24.01c-2.323.093-3.078.13-6.209.3l-.268.015,0-.269a36.638,36.638,0,0,1,.123-3.717h-.958c.049.477.062,1.116.062,2.581v1.464l-.229.02c-1.811.155-3.133.248-3.536.248l-.144,0,.066.772c.855-.135,1.9-.239,3.575-.357l.268-.019v2.643a20.024,20.024,0,0,0,.238,4.436c.457,1.583,1.834,2.173,5.079,2.173a32.006,32.006,0,0,0,4.77-.4h.006c.183-.023.3-.039.388-.053l.129-.018-.094-.9a18.421,18.421,0,0,1-5.066.617,10.631,10.631,0,0,1-3.042-.336,1.877,1.877,0,0,1-1.436-1.408v-.005a29.118,29.118,0,0,1-.2-4.847V23.456l.233-.016c2.412-.163,3.807-.244,6.2-.323l.265-.009-.007.265a17.474,17.474,0,0,1-.232,2.964c-.163.889-.417,1.44-1.177,1.44a4.861,4.861,0,0,1-2.212-.826c.006.112.011.208.011.31,0,.129-.008.219-.018.333,0,.029-.005.06-.008.095a5.022,5.022,0,0,0,2.38.766c.869,0,1.4-.473,1.678-1.487a17.877,17.877,0,0,0,.333-3.642l0-.247h.247c.353,0,.647-.007.883-.012.169,0,.316-.007.444-.007.629-.019,1.131-.019,1.3-.019.637,0,.844,0,1.167.02l-.023-.8c-.86.074-2.463.119-3.724.145l-.255.005v-.768l.019-1.239v-.794C108.487,19.1,108.5,18.708,108.531,18.392ZM42.119,18.06l2.241.026-.053.291a28.017,28.017,0,0,0-.243,3.951c-.078,2.351-.133,4.9-.133,5.713,0,.187.014.607.038,1.126a2.758,2.758,0,0,0,.811,2.108,3.365,3.365,0,0,0,2.208.677,5.138,5.138,0,0,0,2.852-.8,5.887,5.887,0,0,0,2.017-2.367,10.564,10.564,0,0,0,.909-2.92l.083-.419.325.277a6.233,6.233,0,0,0,1.324.9l.185.1-.065.2a12.1,12.1,0,0,1-2.156,4.4,6.968,6.968,0,0,1-5.549,2.445,4.74,4.74,0,0,1-3.761-1.416c-.817-.936-1.106-2-1.106-4.059,0-1.056.014-1.594.1-5.1.019-.738.041-1.608.068-2.643.019-.568.019-.9.019-1.229a5.726,5.726,0,0,0-.073-.972Zm1.649.519-1.074-.012a5.862,5.862,0,0,1,.04.754c0,.329,0,.669-.019,1.243-.026,1.033-.049,1.9-.067,2.641-.09,3.5-.1,4.034-.1,5.083,0,1.946.248,2.888.983,3.731a4.271,4.271,0,0,0,3.384,1.244,6.406,6.406,0,0,0,5.168-2.268,11.3,11.3,0,0,0,2-4.03,6.165,6.165,0,0,1-.9-.594,10.355,10.355,0,0,1-.868,2.636,5.708,5.708,0,0,1-5.317,3.446,3.805,3.805,0,0,1-2.542-.8,3.229,3.229,0,0,1-.976-2.45v-.005c-.012-.253-.038-.872-.038-1.151,0-.82.055-3.373.133-5.727A35.317,35.317,0,0,1,43.768,18.579Zm5.657-.162.129.155A15.559,15.559,0,0,1,51.54,21.56l.111.211-1.41.83-.117-.248A14.67,14.67,0,0,0,48.229,19.4L48,19.155Zm1.561,3.166A14.549,14.549,0,0,0,49.3,19.046l-.49.255a16.337,16.337,0,0,1,1.648,2.593ZM135.3,19.276l2.169.026-.046.286a13.6,13.6,0,0,0-.13,2.221,32.347,32.347,0,0,0,.487,5.852c.429,1.986,1.183,3.056,1.676,3.056.23,0,.487-.285.722-.8a13.413,13.413,0,0,0,.97-3.192l.1-.514.338.4a5.841,5.841,0,0,0,1.085,1.048l.131.1-.045.161a12.66,12.66,0,0,1-1.455,3.62,2.3,2.3,0,0,1-1.94,1.161c-1.177,0-2.246-1.113-2.934-3.055-.661-1.8-.944-4.232-1.04-8.989l0-.1a9.086,9.086,0,0,0-.053-1Zm1.588.519-1.032-.012c.013.169.017.344.028.76l0,.1c.1,4.7.369,7.091,1.011,8.831.6,1.707,1.525,2.724,2.463,2.724,1.364,0,2.139-1.694,2.868-4.256a5.739,5.739,0,0,1-.691-.63,13.164,13.164,0,0,1-.905,2.808c-.33.727-.726,1.1-1.177,1.1-.863,0-1.712-1.353-2.163-3.446a32.9,32.9,0,0,1-.5-5.962A15.84,15.84,0,0,1,136.892,19.795Zm-10.543.225.189.075a26.312,26.312,0,0,1,5.059,2.53l.2.131-.946,1.576-.219-.151a20.416,20.416,0,0,0-4.978-2.555l-.3-.108Zm4.773,2.9a25.559,25.559,0,0,0-4.58-2.281l-.417.631a20.613,20.613,0,0,1,4.574,2.354Zm15.3-2.673.128.151a16.747,16.747,0,0,1,2.755,4.393,18.367,18.367,0,0,1,1.443,5.133l.032.2-1.844.753-.032-.334a16.49,16.49,0,0,0-3.893-9.228l-.208-.242Zm3.8,9.561a17.587,17.587,0,0,0-1.374-4.814,16.161,16.161,0,0,0-2.553-4.122l-.7.356a16.975,16.975,0,0,1,3.771,8.93ZM28.5,20.571h1.975l-.06.3a8.12,8.12,0,0,0-.09,1.661v.624h4.082a10.464,10.464,0,0,0,1.815-.11l.3-.057V24.9l-.291-.049a11.081,11.081,0,0,0-1.783-.111h-4.12v2.483h3.436a12.063,12.063,0,0,0,1.566-.074l.313-.038-.035.313a14.334,14.334,0,0,0-.074,1.7V32.05a16.324,16.324,0,0,0,.111,2.264l.041.285h-1.83v-.912H26.147V34.6H24.318l.039-.284a16.293,16.293,0,0,0,.112-2.246V29.048a13.161,13.161,0,0,0-.074-1.624l-.036-.315.314.038a12.092,12.092,0,0,0,1.585.074h2.391V22.512a8.216,8.216,0,0,0-.091-1.644Zm1.376.5H29.1a11.831,11.831,0,0,1,.052,1.441v5.209H26.258c-.584,0-.965-.012-1.335-.045.034.386.046.784.046,1.372v3.021a18.954,18.954,0,0,1-.081,2.03h.759v-.912h8.708V34.1h.759a19.4,19.4,0,0,1-.081-2.049V29.124c0-.624.013-1.043.047-1.448-.369.033-.745.045-1.317.045H29.827V24.238h4.62a13.287,13.287,0,0,1,1.574.076v-.731a13.471,13.471,0,0,1-1.612.072H29.827V22.531A12.233,12.233,0,0,1,29.878,21.071Zm36.98-.177h1.835l-.046.289a14.482,14.482,0,0,0-.087,2.156c.4-.036.67-.051,1.037-.051a3.693,3.693,0,0,1,2.5.856,2.971,2.971,0,0,1,.979,2.263c0,1.983-1.631,3.423-3.879,3.423a6.656,6.656,0,0,1-2.7-.607l-.183-.073.028-.2a1.63,1.63,0,0,0,.016-.25,4.233,4.233,0,0,0-.128-.956l-.111-.536.478.268a4.963,4.963,0,0,0,2.557.728c1.328,0,2.22-.724,2.22-1.8,0-.959-.756-1.555-1.973-1.555a13.432,13.432,0,0,0-3.2.5l-.009,0c-.214.049-.734.205-1.607.473l.056.2c.047.167.106.374.177.612.623,2.106.993,3.578,1.468,5.834a7.363,7.363,0,0,0,.369,1.368l.1.269-1.921.433-.014-.3a55.986,55.986,0,0,0-1.794-7.919,14.142,14.142,0,0,0-2.564.981l-.257.145L59.571,25.7l.29-.054a5.571,5.571,0,0,0,.894-.25l.016-.005c.148-.061.651-.22,1.779-.573a15.384,15.384,0,0,0-1.011-2.535l-.176-.276,1.87-.577.054.272a6.336,6.336,0,0,0,.276.956c.075.207.078.214.437,1.274l0,.01c.063.213.083.282.124.4a25.551,25.551,0,0,1,2.825-.761,16.15,16.15,0,0,0-.054-2.4Zm1.257.5h-.686c.025.292.025.734.025,2.391v.2l-.2.042a25.625,25.625,0,0,0-3.2.866l-.234.079-.082-.233c-.115-.325-.117-.332-.212-.654-.358-1.057-.359-1.057-.434-1.263l0-.008c-.142-.437-.2-.608-.233-.746l-.738.228a26.025,26.025,0,0,1,.988,2.6l.085.244-.247.077c-.956.3-1.859.581-1.99.637l-.047.016c-.357.115-.518.167-.668.2l.239.655a24.646,24.646,0,0,1,2.634-.963l.242-.082.077.244a61.892,61.892,0,0,1,1.867,8l.792-.178a10.385,10.385,0,0,1-.292-1.172c-.472-2.242-.84-3.7-1.458-5.8-.071-.24-.13-.449-.178-.617-.053-.187-.095-.334-.123-.42l-.081-.243.245-.075c1.046-.322,1.624-.5,1.875-.555a13.94,13.94,0,0,1,3.329-.52c1.5,0,2.473.807,2.473,2.055,0,1.355-1.118,2.3-2.72,2.3a5.166,5.166,0,0,1-2.34-.551,3.319,3.319,0,0,1,.044.548c0,.029,0,.069,0,.121a5.876,5.876,0,0,0,2.336.5c1.958,0,3.379-1.229,3.379-2.923,0-1.566-1.2-2.619-2.98-2.619a11.538,11.538,0,0,0-1.268.075l-.279.027.005-.28C68.082,22.089,68.09,21.656,68.114,21.394Zm57.868,2.2,1.807.186-.077.284a5.606,5.606,0,0,0-.238,1.7,23.207,23.207,0,0,0,.186,2.715,13.8,13.8,0,0,1,3.663,2.285l.011.01a1.764,1.764,0,0,0,.311.277l.18.129-.987,1.814-.235-.29a10.3,10.3,0,0,0-2.844-2.3c0,.055,0,.108,0,.167,0,2.091-1.407,3.29-3.86,3.29a4.762,4.762,0,0,1-2.857-.793,2.658,2.658,0,0,1-1.1-2.212,2.934,2.934,0,0,1,1.922-2.644,5.757,5.757,0,0,1,2.337-.437,6.191,6.191,0,0,1,1.644.2c-.069-.955-.108-1.77-.108-2.271a7.888,7.888,0,0,1,.2-1.9Zm1.174.624-.778-.08a7.406,7.406,0,0,0-.139,1.571c0,.26.013,1.032.132,2.584l.027.357-.345-.1a6.017,6.017,0,0,0-1.851-.276,5.28,5.28,0,0,0-2.144.4,2.439,2.439,0,0,0-1.615,2.183c0,1.545,1.324,2.5,3.455,2.5a3.827,3.827,0,0,0,2.513-.727,2.554,2.554,0,0,0,.847-2.063,3.7,3.7,0,0,0-.036-.577l-.059-.473.423.22a11.555,11.555,0,0,1,3.163,2.368l.429-.788c-.045-.041-.1-.095-.193-.188a13.462,13.462,0,0,0-3.653-2.252l-.125-.055-.021-.135a22.743,22.743,0,0,1-.212-2.927A5.833,5.833,0,0,1,127.156,24.213ZM25.647,28.3h8.708v4.3H25.647Zm8.208.5H26.147v3.3h7.708Zm90.253.089a5.867,5.867,0,0,1,2.193.395l.155.055.011.164c0,.024.039.6.039.833,0,1.562-.859,2.321-2.625,2.321-1.643,0-2.663-.693-2.663-1.808C121.217,29.662,122.352,28.893,124.108,28.893Zm1.87.811a5.3,5.3,0,0,0-1.87-.311c-1.475,0-2.391.559-2.391,1.46,0,.819.809,1.308,2.163,1.308,1.489,0,2.125-.545,2.125-1.821C126,30.2,125.989,29.894,125.978,29.7ZM44.436,49.845l.123.151A15.766,15.766,0,0,1,46.126,52.2h2.591a9.383,9.383,0,0,0,1.351-2.081l.1-.206,1.687.626-.172.262a15.44,15.44,0,0,1-1.017,1.4h2.309a12.75,12.75,0,0,0,1.865-.111l.285-.041v1.832l-.287-.042a12.734,12.734,0,0,0-1.863-.111H48.225v1.21h4.139a9.531,9.531,0,0,0,1.6-.092l.287-.042v1.8l-.29-.046a9.353,9.353,0,0,0-1.594-.092H48.225v1.343H53.77a12.75,12.75,0,0,0,1.865-.111l.285-.041v1.831l-.285-.041a13.409,13.409,0,0,0-1.865-.092H48.233l-.032.16a2.291,2.291,0,0,0-.047.352l-.006.075a7.468,7.468,0,0,1-.116.774h5.51a12.559,12.559,0,0,0,1.863-.111l.287-.042V62.41l-.283-.038a14.172,14.172,0,0,0-1.924-.112H48.861A7.779,7.779,0,0,0,51.5,64.508a11.533,11.533,0,0,0,4.393,1.339l.4.047-.215.336a3.821,3.821,0,0,0-.557,1.218l-.059.236-.237-.052a14.185,14.185,0,0,1-5.235-2.089,9.2,9.2,0,0,1-2.629-2.711A7.8,7.8,0,0,1,44.6,65.792a13.658,13.658,0,0,1-4.791,1.8l-.23.053-.066-.226a3.719,3.719,0,0,0-.557-1.147l-.217-.325.386-.06a11.093,11.093,0,0,0,4.8-1.67,5.4,5.4,0,0,0,1.847-1.956H41.515a14,14,0,0,0-1.9.112l-.284.039V60.564l.284.039a12.947,12.947,0,0,0,1.866.112H46.3a4.827,4.827,0,0,0,.075-.814,1.908,1.908,0,0,0-.018-.251c-.006-.051-.013-.109-.019-.182l-.01-.115H41.211a13.1,13.1,0,0,0-1.865.111l-.285.041V57.654l.287.042a12.559,12.559,0,0,0,1.863.111h5.336V56.465h-3.93a9.353,9.353,0,0,0-1.594.092l-.289.046V54.8l.288.044a9.378,9.378,0,0,0,1.6.092h3.93v-1.21H42.009a12.946,12.946,0,0,0-1.866.112l-.284.039V52.053l.283.038a12.864,12.864,0,0,0,1.867.112h2.218a9.229,9.229,0,0,0-1.106-1.381l-.244-.253ZM48.943,52.7H45.834l-.072-.128a14.355,14.355,0,0,0-1.469-2.112l-.574.266a10.869,10.869,0,0,1,1.179,1.59l.243.384H42.009a13.885,13.885,0,0,1-1.65-.081v.688a14.358,14.358,0,0,1,1.65-.081h5.038v2.21h-4.43a11.278,11.278,0,0,1-1.384-.058v.642a11.625,11.625,0,0,1,1.384-.058h4.43v2.343H41.211a14.3,14.3,0,0,1-1.65-.079v.7a14.65,14.65,0,0,1,1.65-.08H53.77a16.141,16.141,0,0,1,1.65.062v-.687a14.207,14.207,0,0,1-1.65.08H47.725V55.965h4.639a11.625,11.625,0,0,1,1.384.058V55.38a11.143,11.143,0,0,1-1.384.059H47.725v-2.21h5.247a14.516,14.516,0,0,1,1.65.079v-.685a14.207,14.207,0,0,1-1.65.08h-3.4l.365-.415a14,14,0,0,0,1.154-1.5l-.67-.249a9.829,9.829,0,0,1-1.4,2.075ZM47.666,59.71l-.8-.011c.006.06.009.122.009.2a6.09,6.09,0,0,1-.118,1.107l-.036.207H41.477a14.359,14.359,0,0,1-1.65-.081v.707a15.516,15.516,0,0,1,1.688-.081h5.043l-.16.353a5.828,5.828,0,0,1-2.2,2.516,11.116,11.116,0,0,1-4.63,1.689,3.8,3.8,0,0,1,.344.735,12.816,12.816,0,0,0,4.408-1.682A7.165,7.165,0,0,0,47.1,62.2l.2-.473.247.451a8.6,8.6,0,0,0,2.715,2.954,13.452,13.452,0,0,0,4.831,1.962,4.018,4.018,0,0,1,.353-.8,11.733,11.733,0,0,1-4.194-1.348,8.048,8.048,0,0,1-3.073-2.8l-.237-.382h5.541a15.441,15.441,0,0,1,1.707.082v-.706a14.294,14.294,0,0,1-1.65.079H47.423l.06-.3A8.838,8.838,0,0,0,47.65,59.9l.006-.07C47.66,59.781,47.663,59.744,47.666,59.71ZM68.1,49.98h1.92l-.046.29a8.33,8.33,0,0,0-.092,1.5v1.27h2.258a12.925,12.925,0,0,0,1.96-.111l.285-.041v1.881l-.28-.034a14.636,14.636,0,0,0-1.984-.112H69.885v2.711h2.961a15.028,15.028,0,0,0,2.132-.112l.284-.039v1.889l-.288-.044a14.786,14.786,0,0,0-2.109-.111H70.382a13.407,13.407,0,0,0,1.854,2.74,15.154,15.154,0,0,0,3.513,2.857l.259.157-.2.225a4.772,4.772,0,0,0-.781,1.126l-.139.267-.237-.186a20.994,20.994,0,0,1-3.092-2.825,11.2,11.2,0,0,1-1.681-2.487c.007.262.01.546.01.878v3.724A12.952,12.952,0,0,0,70,67.372l.039.284H68.1l.034-.28a15.3,15.3,0,0,0,.112-1.984V61.668c0-.368,0-.613.01-.91a15.909,15.909,0,0,1-5.32,5.6l-.2.133L62.6,66.3a4,4,0,0,0-.865-.883l-.291-.225.316-.188a16.185,16.185,0,0,0,5.987-6.09h-2.23a10.593,10.593,0,0,0-1.783.092l-.266.044v2.369a20.4,20.4,0,0,0,.075,2.064l.029.276H61.823v-.988H59.91v2.052H58.1l.041-.285a15.068,15.068,0,0,0,.111-2.017V53.631c0-.636-.025-1.249-.075-1.821l-.027-.308.307.038a11.348,11.348,0,0,0,1.527.074h1.691a12.063,12.063,0,0,0,1.566-.074l.318-.038-.04.317a16.568,16.568,0,0,0-.055,1.736V57.2l.263.04a10.866,10.866,0,0,0,1.8.092h2.714V54.622H66.367a14.979,14.979,0,0,0-1.926.093l-.281.035V52.918l.275.027a18.466,18.466,0,0,0,1.932.094h1.878v-1.27a7.942,7.942,0,0,0-.091-1.5Zm1.339.5H68.69a10.2,10.2,0,0,1,.055,1.289v1.77H66.367c-.616,0-1.142-.021-1.707-.071v.719a16.945,16.945,0,0,1,1.707-.065h2.378v3.711H65.531a13.709,13.709,0,0,1-1.593-.059v.7a14.182,14.182,0,0,1,1.574-.058H68.6l-.206.371a16.761,16.761,0,0,1-6.076,6.464,4.11,4.11,0,0,1,.534.561,15.077,15.077,0,0,0,5.495-6.339l.476.122c-.075,1.113-.075,1.355-.075,2.073v3.724a16.256,16.256,0,0,1-.084,1.764h.8a14.442,14.442,0,0,1-.08-1.764V61.668c0-.854-.019-1.377-.075-2.07l.475-.127a12.488,12.488,0,0,0,2.149,3.479,19.694,19.694,0,0,0,2.791,2.576,4.924,4.924,0,0,1,.513-.74,15.454,15.454,0,0,1-3.376-2.8,15.225,15.225,0,0,1-2.123-3.2l-.2-.371h3.33a17.656,17.656,0,0,1,1.9.079v-.743a17.171,17.171,0,0,1-1.916.081H69.385V54.122h2.739a15.529,15.529,0,0,1,1.764.084v-.746a14.907,14.907,0,0,1-1.745.08H69.385v-1.77A10.163,10.163,0,0,1,69.442,50.48ZM63.015,63.261c-.037-.471-.052-1.043-.052-1.84V53.555c0-.682.009-1.153.031-1.486-.37.033-.746.045-1.32.045H59.983c-.562,0-.93-.012-1.285-.045.035.5.053,1.022.053,1.562v8.892a17.383,17.383,0,0,1-.081,1.8h.74V62.273h2.913v.988ZM86.2,50.4l.037.244a5.918,5.918,0,0,0,.537,1.657c.374,1,.478,1.236.6,1.485a21.765,21.765,0,0,0,4.355-1.149l.3-.128.269,1.908-.234.045c-.389.074-.535.11-1.1.262-1.138.3-1.362.36-2.583.593l-.33.069a36.122,36.122,0,0,0,3.257,5.2l.171.227-1.669.947-.133-.108a3.577,3.577,0,0,0-1.234-.736,10,10,0,0,0-3.244-.48,6.546,6.546,0,0,0-3.478.76,1.918,1.918,0,0,0-.908,1.555,1.646,1.646,0,0,0,.629,1.288,6.261,6.261,0,0,0,3.548.818,12.357,12.357,0,0,0,5.281-1.188l.313-.163.287,2.012-.189.07a16.093,16.093,0,0,1-5.673,1.042c-2.374,0-4.192-.533-5.12-1.5a3.318,3.318,0,0,1-.924-2.263,3.79,3.79,0,0,1,2.288-3.322,8.313,8.313,0,0,1,3.8-.728,12.084,12.084,0,0,1,3.242.4,23.219,23.219,0,0,1-1.811-3.076c-.1-.184-.15-.294-.189-.375l-.047-.095a56.909,56.909,0,0,1-6.625.473,3.616,3.616,0,0,0-.623.043l-.356.048-.108-1.964.3.047a8.071,8.071,0,0,0,1.425.092,44.494,44.494,0,0,0,5.3-.353c-.247-.577-.508-1.228-.8-1.964-.2-.478-.316-.745-.485-1.083l-.156-.311Zm.88,3.941-.123-.258a16.623,16.623,0,0,1-.65-1.6,8.169,8.169,0,0,1-.524-1.516l-.919.128c.106.229.206.464.35.8.348.869.646,1.616.929,2.257l.134.3-.328.045a44.905,44.905,0,0,1-5.7.4,9.4,9.4,0,0,1-1.2-.056l.045.815a4.085,4.085,0,0,1,.506-.024,55.912,55.912,0,0,0,6.729-.492l.164-.023.085.142a3,3,0,0,1,.147.277c.038.078.089.184.183.363a22.874,22.874,0,0,0,2.26,3.692l-.318.369a9.251,9.251,0,0,0-3.817-.655,7.849,7.849,0,0,0-3.576.677,3.3,3.3,0,0,0-2.007,2.873,2.818,2.818,0,0,0,.788,1.919c.831.867,2.521,1.346,4.757,1.346a15.543,15.543,0,0,0,5.31-.942l-.132-.921a12.977,12.977,0,0,1-5.2,1.09,6.618,6.618,0,0,1-3.859-.927l-.006,0a2.16,2.16,0,0,1-.812-1.674,2.4,2.4,0,0,1,1.142-1.978,7.013,7.013,0,0,1,3.744-.837,10.628,10.628,0,0,1,3.4.507l.005,0a3.8,3.8,0,0,1,1.251.713l.879-.5a35.093,35.093,0,0,1-3.277-5.347l-.133-.288.311-.062c.189-.038.189-.038.644-.133,1.208-.23,1.429-.286,2.552-.586.45-.12.647-.171.9-.224l-.112-.8a23.946,23.946,0,0,1-4.354,1.092Zm16.189-3.035H105.7l-.021.27c-.059.751-.095,1.3-.113,2.076l-.152,6.764c-.019.8-.019.8-.019.868,0,.314.016.633.056,1.139l.022.27H103.53l.017-.266c.037-.581.037-.71.037-1.333v-.681l-.171-6.761c-.019-.78-.036-1.346-.113-2.07Zm1.889.5h-1.335c.056.62.072,1.164.088,1.834l.171,6.77V61.1c0,.529,0,.709-.022,1.1h.87c-.027-.372-.037-.641-.037-.909,0-.079,0-.079.019-.88l.152-6.764C105.083,52.956,105.113,52.44,105.161,51.81Zm-76.11.127a7.593,7.593,0,0,1,5.4,1.953A6.6,6.6,0,0,1,36.369,58.7a7.353,7.353,0,0,1-1.184,4.078,7.449,7.449,0,0,1-3.319,2.707,14.921,14.921,0,0,1-2.933.888l-.225.049-.067-.221a2.78,2.78,0,0,0-.622-1.19l-.264-.333.419-.069a11.167,11.167,0,0,0,3.108-.873A5.505,5.505,0,0,0,34.5,58.647a4.758,4.758,0,0,0-2.873-4.541,5.06,5.06,0,0,0-1.88-.442,28.511,28.511,0,0,1-1.854,7.38c-1.155,2.628-2.333,3.8-3.821,3.8a2.977,2.977,0,0,1-2.46-1.43,6.2,6.2,0,0,1-.943-3.456,7.966,7.966,0,0,1,8.382-8.021Zm0,13.9a13.923,13.923,0,0,0,2.621-.811,6.95,6.95,0,0,0,3.1-2.523,6.855,6.855,0,0,0,1.1-3.8A6.109,6.109,0,0,0,34.1,54.248a7.1,7.1,0,0,0-5.051-1.811,7.467,7.467,0,0,0-7.882,7.521c0,2.5,1.248,4.386,2.9,4.386,1.262,0,2.3-1.079,3.362-3.5a28.1,28.1,0,0,0,1.842-7.469l.025-.232.233.009a5.693,5.693,0,0,1,2.293.5,5.241,5.241,0,0,1,3.172,5,6,6,0,0,1-3.51,5.548,10.851,10.851,0,0,1-2.831.842A2.869,2.869,0,0,1,29.049,65.84ZM4.354,52.03l.281.066a21.575,21.575,0,0,0,5,.449,20.732,20.732,0,0,0,4.745-.391l.288-.073.131,1.731-.166.07a26.745,26.745,0,0,0-4.738,2.86l-.155.112L8.357,55.741l.282-.189c1.035-.7,1.519-1.005,2.159-1.371-.48.045-.939.061-1.525.061a37.244,37.244,0,0,1-4.211-.249c-.1-.011-.181-.022-.245-.03a2.173,2.173,0,0,0-.352-.025H4.193Zm5.279,1.015a22.923,22.923,0,0,1-4.829-.4l-.068.8.145.017c.061.008.136.018.239.029a36.716,36.716,0,0,0,4.152.245A14.788,14.788,0,0,0,12.1,53.5l.17.461a2.449,2.449,0,0,1-.246.131c-.038.018-.072.034-.12.061l-.012.007c-.227.114-.262.131-.467.243-.776.431-1.215.7-2.225,1.376l.555.447a27.811,27.811,0,0,1,4.517-2.733l-.059-.785A23.152,23.152,0,0,1,9.633,53.045Zm49.777-.329h2.913v8.993H59.41Zm2.413.5H59.91v7.993h1.913Zm-33.386-.068-.03.3a26.412,26.412,0,0,1-1.749,7.1c-.87,1.982-1.7,2.905-2.6,2.905-1.182,0-2.074-1.5-2.074-3.48a7.1,7.1,0,0,1,.86-3.4A6.577,6.577,0,0,1,25.2,54.1a6.232,6.232,0,0,1,2.939-.928Zm-4.383,9.809c.675,0,1.377-.852,2.146-2.605a25.742,25.742,0,0,0,1.676-6.65,5.638,5.638,0,0,0-2.419.827,6.354,6.354,0,0,0-2.977,5.448C22.48,61.62,23.186,62.957,24.054,62.957ZM5.6,58.233l1.383,1.03-.244.2c-1.17.972-1.715,1.8-1.715,2.6,0,.764.473,1.3,1.445,1.625a11.98,11.98,0,0,0,3.4.367,17.964,17.964,0,0,0,5.605-.7l.307-.126.235,2.145-.258.02a3.787,3.787,0,0,0-.473.065l-.149.027a31.413,31.413,0,0,1-5.173.441,13.689,13.689,0,0,1-4.46-.606l-.005,0a3.285,3.285,0,0,1-2.32-3.1c0-1.3.744-2.566,2.274-3.858Zm.578,1.054-.557-.415A4.625,4.625,0,0,0,3.67,62.219a2.786,2.786,0,0,0,2.009,2.637,13.211,13.211,0,0,0,4.277.571,30.9,30.9,0,0,0,5.088-.433l.146-.026c.109-.02.187-.034.267-.045l-.109-.992a20.038,20.038,0,0,1-5.486.628A12.248,12.248,0,0,1,6.3,64.166c-1.474-.5-1.784-1.417-1.784-2.1A3.821,3.821,0,0,1,6.173,59.287Zm97.165,4.677h2.343V66.25h-2.343Zm1.843.5h-1.343V65.75h1.343Z" transform="matrix(0.978, -0.208, 0.208, 0.978, 137.509, 1739.141)" fill="#fff"/><path d="M341.156,1767.914a1,1,0,0,1-1-.995,76.246,76.246,0,0,0-1.6-12.87,107.436,107.436,0,0,0-10.777-29.856c-6.364-11.786-11.549-20.036-14.777-24.883-3.5-5.251-5.516-7.747-5.536-7.771a1,1,0,0,1,1.552-1.261c.083.1,2.08,2.569,5.622,7.884,3.257,4.887,8.485,13.2,14.9,25.081a109.433,109.433,0,0,1,10.99,30.475,76.465,76.465,0,0,1,1.623,13.19,1,1,0,0,1-.994,1.005Z" transform="matrix(0.891, -0.454, 0.454, 0.891, -960.442, 381.578)" fill="#fff"/><path d="M308.247,1745.17h-.005a1,1,0,0,1-.995-1,63.632,63.632,0,0,1,.957-9.27,87.564,87.564,0,0,1,6.482-21.408c7.236-15.961,11.9-22.857,12.1-23.142a1,1,0,1,1,1.652,1.127c-.058.085-4.783,7.084-11.927,22.841a85.54,85.54,0,0,0-6.322,20.861,63.143,63.143,0,0,0-.938,9A1,1,0,0,1,308.247,1745.17Z" transform="translate(426.78 -10.128) rotate(14)" fill="#fff"/><path d="M19.362,54.261a1,1,0,0,1-.827-.436c-.2-.286-4.86-7.182-12.1-23.142A87.564,87.564,0,0,1-.043,9.275,63.631,63.631,0,0,1-1,0,1,1,0,0,1,0-1,1,1,0,0,1,1,0a63.137,63.137,0,0,0,.938,9A85.54,85.54,0,0,0,8.261,29.857C15.413,45.631,20.14,52.629,20.187,52.7a1,1,0,0,1-.825,1.563Z" transform="translate(136.468 1799.994) rotate(139)" fill="#fff"/></g></svg>